<?xml version="1.0" encoding="UTF-8" standalone="no"?>
<svg width="583px" height="213px" viewBox="0 0 583 213" version="1.1" xmlns="http://www.w3.org/2000/svg" xmlns:xlink="http://www.w3.org/1999/xlink" xmlns:sketch="http://www.bohemiancoding.com/sketch/ns">
    <!-- Generator: Sketch 3.3.1 (12002) - http://www.bohemiancoding.com/sketch -->
    <title>1_after_mx</title>
    <desc>Created with Sketch.</desc>
    <defs></defs>
    <g id="Page-1" stroke="none" stroke-width="1" fill="none" fill-rule="evenodd" sketch:type="MSPage">
        <g id="1_after_mx" sketch:type="MSLayerGroup">
            <g id="Group" transform="translate(1.000000, 127.000000)" sketch:type="MSShapeGroup">
                <rect id="Rectangle-path-7-Copy-12" fill="#E0E0E0" x="41.650674" y="47.8091512" width="150" height="13.9765886"></rect>
                <rect id="Rectangle-path-7-Copy-13" fill="#E0E0E0" x="41.650674" y="71.8091512" width="100" height="13.9765886"></rect>
                <g id="places-copy-8" transform="translate(1.000000, 42.000000)">
                    <path d="M5.19476546,21.8723185 C7.45411482,24.1146885 13.99999,42.5 13.99999,42.5 C13.99999,42.5 20.4301105,24.1657025 22.678364,21.9964515 C25.0345301,19.7230799 26.49999,16.5326782 26.49999,13 C26.49999,6.09644063 20.9035494,0.5 13.99999,0.5 C7.09643061,0.5 1.49998998,6.09644063 1.49998998,13 C1.49998998,16.4688434 2.91296718,19.6076682 5.19476546,21.8723185 Z" id="Oval-51" opacity="0.740788246" fill="#E2E2E2"></path>
                    <path d="M4.84254809,22.2272029 C5.57729362,22.9564267 6.9714677,25.8298928 8.75700077,30.1685157 C9.03188587,30.8364523 9.31424879,31.5345577 9.603074,32.2596099 C10.5098494,34.5359332 11.4404458,36.9757165 12.3435571,39.4156179 C12.6596791,40.2696728 12.9497673,41.0626909 13.2074257,41.7742914 C13.3619399,42.2010284 13.471247,42.5056244 13.5289545,42.6677067 L14.0035406,44.0006703 L14.4718138,42.6654759 C14.5282724,42.5044946 14.6352504,42.2019463 14.7865216,41.7780688 C15.0387763,41.0712252 15.3228794,40.2835053 15.6326012,39.4351555 C16.5174252,37.0115597 17.4300691,34.5880848 18.320554,32.3270016 C18.615701,31.5775764 18.9040897,30.8571989 19.1846092,30.1694631 C20.93208,25.8852746 22.3019834,23.0544004 23.0255389,22.3562703 C25.5483467,19.9221127 26.99999,16.5760419 26.99999,13 C26.99999,5.82029825 21.1796917,0 13.99999,0 C6.82028823,0 0.99998998,5.82029825 0.99998998,13 C0.99998998,16.511547 2.39946156,19.8024765 4.84254809,22.2272029 L4.84254809,22.2272029 Z M5.54698283,21.5174341 C3.29118601,19.2785899 1.99998998,16.242276 1.99998998,13 C1.99998998,6.372583 7.37257298,1 13.99999,1 C20.627407,1 25.99999,6.372583 25.99999,13 C25.99999,16.3017978 24.6606344,19.3890429 22.3311891,21.6366327 C21.4573726,22.4797437 20.0812261,25.3235191 18.2586725,29.7917843 C17.976569,30.4834038 17.6866878,31.2075091 17.3901113,31.9605643 C16.4962085,34.2303261 15.58073,36.6613279 14.6932463,39.0922089 C14.3826603,39.9429259 14.0977402,40.7329109 13.8446997,41.4419564 C13.6927939,41.8676123 13.5852102,42.1718736 13.5281661,42.3345241 L14.4710255,42.3322933 C14.4127377,42.168581 14.3028303,41.8623124 14.1476873,41.4338387 C13.8892504,40.7200881 13.598353,39.9248579 13.2813754,39.0684915 C12.3756306,36.6214751 11.4422302,34.1743405 10.532078,31.8895403 C10.2419,31.1610919 9.95812737,30.4595013 9.6817508,29.7879406 C7.82422203,25.2743772 6.42345205,22.3873165 5.54698283,21.5174341 L5.54698283,21.5174341 Z" id="Shape" fill="#ABABAB"></path>
                    <circle id="Oval-52" fill="#000000" cx="14" cy="13" r="4"></circle>
                </g>
                <g id="Group-Copy" fill="#E5712A">
                    <polygon id="Star-1" points="9 13.630137 3.70993273 18.0901699 5.89278111 11.121774 0.440491353 6.90983006 7.07963311 7.06315749 9 0 10.9203669 7.06315749 17.5595086 6.90983006 12.1072189 11.121774 14.2900673 18.0901699 "></polygon>
                    <polygon id="Star-1-Copy" points="29 13.630137 23.7099327 18.0901699 25.8927811 11.121774 20.4404914 6.90983006 27.0796331 7.06315749 29 0 30.9203669 7.06315749 37.5595086 6.90983006 32.1072189 11.121774 34.2900673 18.0901699 "></polygon>
                    <polygon id="Star-1-Copy-3" points="49 13.630137 43.7099327 18.0901699 45.8927811 11.121774 40.4404914 6.90983006 47.0796331 7.06315749 49 0 50.9203669 7.06315749 57.5595086 6.90983006 52.1072189 11.121774 54.2900673 18.0901699 "></polygon>
                    <polygon id="Star-1-Copy-2" points="69 13.630137 63.7099327 18.0901699 65.8927811 11.121774 60.4404914 6.90983006 67.0796331 7.06315749 69 0 70.9203669 7.06315749 77.5595086 6.90983006 72.1072189 11.121774 74.2900673 18.0901699 "></polygon>
                    <polygon id="Star-1-Copy-4" points="89 13.630137 83.7099327 18.0901699 85.8927811 11.121774 80.4404914 6.90983006 87.0796331 7.06315749 89 0 90.9203669 7.06315749 97.5595086 6.90983006 92.1072189 11.121774 94.2900673 18.0901699 "></polygon>
                </g>
                <rect id="Rectangle-path-Copy-6" fill="#A1C3FE" x="108.895009" y="2.86500643" width="100" height="13.9765886"></rect>
            </g>
            <g id="1_before_mx" sketch:type="MSShapeGroup">
                <rect id="Rectangle-path-Copy-5" fill="#E0E0E0" x="0" y="71.1459429" width="583" height="13.9765886"></rect>
                <rect id="Rectangle-path-Copy-7" fill="#E0E0E0" x="0" y="95.1459429" width="497.5" height="13.9765886"></rect>
                <path d="M8.48740549,23.8872609 L8.48740549,3.05278829 L0.704690645,3.05278829 L0.704690645,0.265190635 L19.4283235,0.265190635 L19.4283235,3.05278829 L11.6133821,3.05278829 L11.6133821,23.8872609 L8.48740549,23.8872609 Z M32.2544953,23.8872609 L32.2544953,21.3735891 C30.9224574,23.3071925 29.1124169,24.2739797 26.8243196,24.2739797 C25.8145489,24.2739797 24.8719314,24.0806223 23.9964387,23.6939016 C23.120946,23.3071809 22.4710502,22.8211018 22.0467317,22.2356496 C21.6224131,21.6501975 21.3243204,20.9331636 21.1524446,20.0845266 C21.0342799,19.5151878 20.9751985,18.6128531 20.9751985,17.3774953 L20.9751985,6.77495626 L23.8755891,6.77495626 L23.8755891,16.2656789 C23.8755891,17.7803349 23.9346705,18.8008325 24.0528352,19.3272024 C24.2354533,20.0899015 24.6221682,20.6887724 25.2129914,21.1238332 C25.8038147,21.558894 26.5342761,21.7764211 27.4043977,21.7764211 C28.2745192,21.7764211 29.0909173,21.5535229 29.8536164,21.1077199 C30.6163156,20.6619169 31.1561051,20.0549894 31.4730012,19.2869192 C31.7898973,18.5188489 31.948343,17.4043581 31.948343,15.9434133 L31.948343,6.77495626 L34.8487336,6.77495626 L34.8487336,23.8872609 L32.2544953,23.8872609 Z M48.8995149,23.8872609 L48.8995149,0.265190635 L52.1060578,0.265190635 L64.5132844,18.8115774 L64.5132844,0.265190635 L67.5103547,0.265190635 L67.5103547,23.8872609 L64.3038117,23.8872609 L51.8965852,5.32476095 L51.8965852,23.8872609 L48.8995149,23.8872609 Z M84.1070344,18.3765188 L87.1041047,18.7471242 C86.6314461,20.4981095 85.7559666,21.8569827 84.4776399,22.8237844 C83.1993132,23.7905861 81.566517,24.2739797 79.5792024,24.2739797 C77.0762602,24.2739797 75.0916609,23.5032355 73.6253449,21.9617238 C72.159029,20.4202122 71.4258821,18.2583686 71.4258821,15.4761281 C71.4258821,12.5972075 72.1670856,10.3628548 73.6495149,8.77300314 C75.1319442,7.18315144 77.0547765,6.38823751 79.4180696,6.38823751 C81.7061669,6.38823751 83.5752889,7.16703832 85.0254914,8.72466329 C86.475694,10.2822883 87.2007844,12.4736726 87.2007844,15.298882 C87.2007844,15.4707579 87.1954134,15.7285678 87.1846711,16.0723195 L74.4229524,16.0723195 C74.5303748,17.9522118 75.0621077,19.3916505 76.0181672,20.3906789 C76.9742267,21.3897073 78.1665976,21.8892141 79.5953156,21.8892141 C80.6587975,21.8892141 81.5665033,21.60992 82.3184602,21.0513234 C83.0704171,20.4927269 83.6666025,19.6011343 84.1070344,18.3765188 L84.1070344,18.3765188 Z M74.5840852,13.6875539 L84.139261,13.6875539 C84.0103541,12.2480936 83.6451233,11.1685145 83.0435578,10.4487844 C82.1197251,9.3315913 80.9219832,8.77300314 79.4502961,8.77300314 C78.1182582,8.77300314 76.9983964,9.21879946 76.090677,10.1104055 C75.1829576,11.0020115 74.6807653,12.1943824 74.5840852,13.6875539 L74.5840852,13.6875539 Z M90.213968,25.3052297 L93.0337922,25.724175 C93.1519569,26.5942965 93.4795903,27.2280793 94.0167024,27.6255422 C94.7364325,28.1626543 95.7193329,28.4312063 96.9654328,28.4312063 C98.308213,28.4312063 99.3448237,28.1626543 100.075296,27.6255422 C100.805769,27.0884301 101.299904,26.3364845 101.557718,25.3696828 C101.708109,24.7788596 101.777933,23.5381493 101.767191,21.6475149 C100.499606,23.1406864 98.9205204,23.8872609 97.029886,23.8872609 C94.6773351,23.8872609 92.8565526,23.0386366 91.5674836,21.3413625 C90.2784147,19.6440884 89.6338899,17.6084642 89.6338899,15.2344289 C89.6338899,13.6016083 89.9292971,12.0950315 90.5201203,10.7146535 C91.1109436,9.33427553 91.9676245,8.26812408 93.0901887,7.5161672 C94.2127529,6.76421031 95.5313432,6.38823751 97.0459992,6.38823751 C99.0655406,6.38823751 100.730563,7.2046356 102.041116,8.83745626 L102.041116,6.77495626 L104.715921,6.77495626 L104.715921,21.5669484 C104.715921,24.2310243 104.444684,26.1189448 103.9022,27.2307668 C103.359717,28.3425888 102.500351,29.2207538 101.324075,29.8652883 C100.1478,30.5098228 98.7003047,30.8320852 96.9815461,30.8320852 C94.9405203,30.8320852 93.291611,30.3728612 92.0347688,29.4543996 C90.7779265,28.535938 90.170999,27.1528952 90.213968,25.3052297 L90.213968,25.3052297 Z M92.6148469,15.0249563 C92.6148469,17.2700847 93.0606432,18.9082519 93.9522492,19.939507 C94.8438553,20.9707622 95.9610316,21.486382 97.3038117,21.486382 C98.6358496,21.486382 99.753026,20.9734477 100.655374,19.9475637 C101.557723,18.9216796 102.00889,17.3130532 102.00889,15.1216359 C102.00889,13.0268989 101.544295,11.4478131 100.615091,10.3843313 C99.6858872,9.32084938 98.5660253,8.78911642 97.2554719,8.78911642 C95.9664029,8.78911642 94.8707108,9.31279282 93.9683625,10.3601613 C93.0660143,11.4075299 92.6148469,12.9624459 92.6148469,15.0249563 L92.6148469,15.0249563 Z M108.019144,15.3311086 C108.019144,12.1621474 108.899994,9.81500295 110.661722,8.2896047 C112.133409,7.02202024 113.927336,6.38823751 116.043558,6.38823751 C118.396109,6.38823751 120.318941,7.15898176 121.812113,8.70049337 C123.305284,10.242005 124.051859,12.3716224 124.051859,15.0894094 C124.051859,17.2915688 123.72154,19.0237292 123.060892,20.2859426 C122.400244,21.5481559 121.438828,22.5283707 120.176614,23.2266164 C118.914401,23.9248621 117.536729,24.2739797 116.043558,24.2739797 C113.648038,24.2739797 111.711778,23.505921 110.23472,21.9697805 C108.757662,20.43364 108.019144,18.2207715 108.019144,15.3311086 L108.019144,15.3311086 Z M111.000101,15.3311086 C111.000101,17.5225258 111.478123,19.1633785 112.434183,20.253716 C113.390242,21.3440535 114.593355,21.8892141 116.043558,21.8892141 C117.483018,21.8892141 118.68076,21.341368 119.63682,20.2456594 C120.592879,19.1499508 121.070902,17.4795573 121.070902,15.2344289 C121.070902,13.1182074 120.590193,11.5149519 119.628763,10.4246145 C118.667332,9.33427698 117.472276,8.78911642 116.043558,8.78911642 C114.593355,8.78911642 113.390242,9.33159146 112.434183,10.4165578 C111.478123,11.5015242 111.000101,13.1396914 111.000101,15.3311086 L111.000101,15.3311086 Z M138.618265,17.6191945 L141.470316,17.9898 C141.158791,19.9556302 140.361191,21.4944331 139.077493,22.6062551 C137.793796,23.7180771 136.217395,24.2739797 134.348245,24.2739797 C132.006437,24.2739797 130.123887,23.5086065 128.70054,21.9778371 C127.277193,20.4470677 126.56553,18.2529979 126.56553,15.3955617 C126.56553,13.5478962 126.87168,11.9312132 127.483988,10.5454641 C128.096295,9.15971496 129.028171,8.12041871 130.279642,7.42754415 C131.531113,6.73466959 132.892672,6.38823751 134.364359,6.38823751 C136.222766,6.38823751 137.742771,6.85820351 138.924417,7.79814962 C140.106064,8.73809573 140.86338,10.0727992 141.19639,11.8023 L138.376566,12.2373586 C138.10801,11.0879388 137.632673,10.2232013 136.95054,9.64312032 C136.268408,9.0630393 135.443953,8.77300314 134.477152,8.77300314 C133.016207,8.77300314 131.829207,9.29667954 130.916116,10.3440481 C130.003026,11.3914166 129.546488,13.0483824 129.546488,15.3149953 C129.546488,17.6138349 129.986913,19.2842284 130.867777,20.3262258 C131.74864,21.3682232 132.898043,21.8892141 134.316019,21.8892141 C135.454696,21.8892141 136.40537,21.5400965 137.16807,20.8418508 C137.930769,20.1436051 138.414162,19.0693971 138.618265,17.6191945 L138.618265,17.6191945 Z M143.967874,3.60063985 L143.967874,0.265190635 L146.868265,0.265190635 L146.868265,3.60063985 L143.967874,3.60063985 Z M143.967874,23.8872609 L143.967874,6.77495626 L146.868265,6.77495626 L146.868265,23.8872609 L143.967874,23.8872609 Z M150.203714,15.3311086 C150.203714,12.1621474 151.084565,9.81500295 152.846292,8.2896047 C154.317979,7.02202024 156.111907,6.38823751 158.228128,6.38823751 C160.580679,6.38823751 162.503511,7.15898176 163.996683,8.70049337 C165.489854,10.242005 166.236429,12.3716224 166.236429,15.0894094 C166.236429,17.2915688 165.90611,19.0237292 165.245462,20.2859426 C164.584814,21.5481559 163.623398,22.5283707 162.361185,23.2266164 C161.098971,23.9248621 159.7213,24.2739797 158.228128,24.2739797 C155.832608,24.2739797 153.896348,23.505921 152.41929,21.9697805 C150.942232,20.43364 150.203714,18.2207715 150.203714,15.3311086 L150.203714,15.3311086 Z M153.184671,15.3311086 C153.184671,17.5225258 153.662694,19.1633785 154.618753,20.253716 C155.574813,21.3440535 156.777926,21.8892141 158.228128,21.8892141 C159.667588,21.8892141 160.86533,21.341368 161.82139,20.2456594 C162.777449,19.1499508 163.255472,17.4795573 163.255472,15.2344289 C163.255472,13.1182074 162.774764,11.5149519 161.813333,10.4246145 C160.851903,9.33427698 159.656846,8.78911642 158.228128,8.78911642 C156.777926,8.78911642 155.574813,9.33159146 154.618753,10.4165578 C153.662694,11.5015242 153.184671,13.1396914 153.184671,15.3311086 L153.184671,15.3311086 Z" id="Tu-Negocio-Copy-2" fill="#4387FC"></path>
                <path d="M5.28466797,54.3271484 L1,40.3261719 L3.45214844,40.3261719 L5.68017578,48.4077148 L6.51074219,51.4135742 C6.54589861,51.2641594 6.78759542,50.3017667 7.23583984,48.5263672 L9.46386719,40.3261719 L11.902832,40.3261719 L13.9990234,48.4472656 L14.6977539,51.1235352 L15.5019531,48.4208984 L17.9013672,40.3261719 L20.2084961,40.3261719 L15.831543,54.3271484 L13.3662109,54.3271484 L11.1381836,45.9423828 L10.5976562,43.5561523 L7.76318359,54.3271484 L5.28466797,54.3271484 Z M24.7832031,54.3271484 L20.4985352,40.3261719 L22.9506836,40.3261719 L25.1787109,48.4077148 L26.0092773,51.4135742 C26.0444338,51.2641594 26.2861306,50.3017667 26.734375,48.5263672 L28.9624023,40.3261719 L31.4013672,40.3261719 L33.4975586,48.4472656 L34.1962891,51.1235352 L35.0004883,48.4208984 L37.3999023,40.3261719 L39.7070312,40.3261719 L35.3300781,54.3271484 L32.8647461,54.3271484 L30.6367188,45.9423828 L30.0961914,43.5561523 L27.2617188,54.3271484 L24.7832031,54.3271484 Z M44.2817383,54.3271484 L39.9970703,40.3261719 L42.4492188,40.3261719 L44.6772461,48.4077148 L45.5078125,51.4135742 C45.5429689,51.2641594 45.7846657,50.3017667 46.2329102,48.5263672 L48.4609375,40.3261719 L50.8999023,40.3261719 L52.9960938,48.4472656 L53.6948242,51.1235352 L54.4990234,48.4208984 L56.8984375,40.3261719 L59.2055664,40.3261719 L54.8286133,54.3271484 L52.3632812,54.3271484 L50.1352539,45.9423828 L49.5947266,43.5561523 L46.7602539,54.3271484 L44.2817383,54.3271484 Z M60.3789062,54.3271484 L60.3789062,51.6245117 L63.081543,51.6245117 L63.081543,54.3271484 L60.3789062,54.3271484 Z M73.7866211,40.3261719 L73.7866211,43.2792969 L71.2553711,43.2792969 L71.2553711,48.921875 C71.2553711,50.0644588 71.2795408,50.7302237 71.3278809,50.9191895 C71.3762209,51.1081552 71.4860831,51.2641595 71.6574707,51.387207 C71.8288583,51.5102545 72.0375964,51.5717773 72.2836914,51.5717773 C72.6264666,51.5717773 73.1230436,51.4531262 73.7734375,51.2158203 L74.0898438,54.0898438 C73.2285113,54.4589862 72.2529351,54.6435547 71.1630859,54.6435547 C70.4951138,54.6435547 69.8930691,54.5314953 69.3569336,54.307373 C68.8207981,54.0832508 68.4274915,53.7932147 68.177002,53.4372559 C67.9265124,53.081297 67.7529302,52.6001007 67.65625,51.9936523 C67.577148,51.5629861 67.5375977,50.6928776 67.5375977,49.3833008 L67.5375977,43.2792969 L65.8369141,43.2792969 L65.8369141,40.3261719 L67.5375977,40.3261719 L67.5375977,37.5444336 L71.2553711,35.3823242 L71.2553711,40.3261719 L73.7866211,40.3261719 Z M85.5727539,54.3271484 L85.5727539,52.230957 C85.0629857,52.9780311 84.3928264,53.5668924 83.5622559,53.9975586 C82.7316853,54.4282248 81.8549851,54.6435547 80.9321289,54.6435547 C79.9916945,54.6435547 79.147953,54.4370138 78.4008789,54.0239258 C77.6538049,53.6108378 77.1132829,53.0307655 76.7792969,52.2836914 C76.4453108,51.5366174 76.2783203,50.5039128 76.2783203,49.1855469 L76.2783203,40.3261719 L79.9829102,40.3261719 L79.9829102,46.7597656 C79.9829102,48.7285255 80.0510247,49.9348122 80.1872559,50.3786621 C80.323487,50.822512 80.5717755,51.174071 80.9321289,51.4333496 C81.2924823,51.6926282 81.749509,51.8222656 82.3032227,51.8222656 C82.9360383,51.8222656 83.5029272,51.6486834 84.0039062,51.3015137 C84.5048853,50.954344 84.8476553,50.5236842 85.0322266,50.0095215 C85.2167978,49.4953588 85.309082,48.2363381 85.309082,46.2324219 L85.309082,40.3261719 L89.0136719,40.3261719 L89.0136719,54.3271484 L85.5727539,54.3271484 Z M105.585449,54.3271484 L101.880859,54.3271484 L101.880859,47.1816406 C101.880859,45.6699143 101.801759,44.6921409 101.643555,44.248291 C101.485351,43.8044411 101.228273,43.4594739 100.872314,43.2133789 C100.516356,42.9672839 100.087893,42.8442383 99.5869141,42.8442383 C98.9453093,42.8442383 98.3696315,43.0200178 97.8598633,43.371582 C97.3500951,43.7231463 97.0007334,44.1889619 96.8117676,44.769043 C96.6228018,45.349124 96.5283203,46.4213789 96.5283203,47.9858398 L96.5283203,54.3271484 L92.8237305,54.3271484 L92.8237305,40.3261719 L96.2646484,40.3261719 L96.2646484,42.3828125 C97.4863342,40.8007733 99.0244048,40.0097656 100.878906,40.0097656 C101.696293,40.0097656 102.443356,40.1569809 103.120117,40.451416 C103.796878,40.7458511 104.308836,41.1215797 104.656006,41.5786133 C105.003176,42.0356468 105.244872,42.5541963 105.381104,43.1342773 C105.517335,43.7143584 105.585449,44.5449165 105.585449,45.6259766 L105.585449,54.3271484 Z M117.450684,49.8710938 L121.14209,50.4907227 C120.667478,51.844245 119.918218,52.8747523 118.894287,53.5822754 C117.870356,54.2897985 116.589363,54.6435547 115.05127,54.6435547 C112.616687,54.6435547 110.814947,53.8481525 109.645996,52.2573242 C108.72314,50.9829038 108.261719,49.3745214 108.261719,47.4321289 C108.261719,45.1118048 108.868158,43.2946843 110.081055,41.9807129 C111.293951,40.6667415 112.827627,40.0097656 114.682129,40.0097656 C116.765147,40.0097656 118.408685,40.6975029 119.612793,42.072998 C120.816901,43.4484932 121.392578,45.5556499 121.339844,48.3945312 L112.058594,48.3945312 C112.084961,49.4931696 112.383786,50.3478973 112.955078,50.9587402 C113.52637,51.5695831 114.238277,51.875 115.09082,51.875 C115.670901,51.875 116.158689,51.7167985 116.554199,51.4003906 C116.949709,51.0839828 117.248534,50.5742223 117.450684,49.8710938 L117.450684,49.8710938 Z M117.661621,46.1269531 C117.635254,45.0546821 117.358401,44.2395047 116.831055,43.6813965 C116.303708,43.1232882 115.662113,42.8442383 114.90625,42.8442383 C114.097652,42.8442383 113.42969,43.1386689 112.902344,43.7275391 C112.374997,44.3164092 112.115723,45.1162059 112.124512,46.1269531 L117.661621,46.1269531 Z M124.016113,55.25 L128.248047,55.7641602 C128.31836,56.2563501 128.480956,56.5947256 128.73584,56.7792969 C129.087404,57.0429701 129.64111,57.1748047 130.396973,57.1748047 C131.363774,57.1748047 132.088865,57.0297866 132.572266,56.7397461 C132.897463,56.5463858 133.143554,56.2343772 133.310547,55.8037109 C133.424805,55.4960922 133.481934,54.9292033 133.481934,54.1030273 L133.481934,52.0595703 C132.374506,53.5712966 130.977059,54.3271484 129.289551,54.3271484 C127.408682,54.3271484 125.918951,53.5317462 124.820312,51.940918 C123.95898,50.6840757 123.52832,49.1196383 123.52832,47.2475586 C123.52832,44.9008672 124.093012,43.1079164 125.222412,41.8686523 C126.351812,40.6293883 127.755851,40.0097656 129.43457,40.0097656 C131.166024,40.0097656 132.594233,40.7700119 133.719238,42.2905273 L133.719238,40.3261719 L137.186523,40.3261719 L137.186523,52.8901367 C137.186523,54.5424887 137.050294,55.7773397 136.777832,56.5947266 C136.50537,57.4121135 136.123049,58.0537086 135.630859,58.5195312 C135.138669,58.9853539 134.481694,59.3500963 133.659912,59.6137695 C132.838131,59.8774427 131.798834,60.0092773 130.541992,60.0092773 C128.168933,60.0092773 126.485845,59.6027873 125.492676,58.7897949 C124.499507,57.9768026 124.00293,56.9462953 124.00293,55.6982422 C124.00293,55.5751947 124.007324,55.4257821 124.016113,55.25 L124.016113,55.25 Z M127.325195,47.0366211 C127.325195,48.5219801 127.613034,49.6096157 128.188721,50.2995605 C128.764407,50.9895054 129.474117,51.3344727 130.317871,51.3344727 C131.223149,51.3344727 131.98779,50.9807164 132.611816,50.2731934 C133.235843,49.5656703 133.547852,48.5175851 133.547852,47.1289062 C133.547852,45.6787037 133.249026,44.6020543 132.651367,43.8989258 C132.053708,43.1957973 131.297856,42.8442383 130.383789,42.8442383 C129.496089,42.8442383 128.764407,43.1892055 128.188721,43.8791504 C127.613034,44.5690952 127.325195,45.621575 127.325195,47.0366211 L127.325195,47.0366211 Z M139.994629,47.1289062 C139.994629,45.8984313 140.297849,44.7075253 140.904297,43.5561523 C141.510745,42.4047794 142.369867,41.5258819 143.481689,40.9194336 C144.593511,40.3129852 145.834954,40.0097656 147.206055,40.0097656 C149.324229,40.0097656 151.060052,40.6975029 152.413574,42.072998 C153.767097,43.4484932 154.443848,45.1865129 154.443848,47.2871094 C154.443848,49.405284 153.760505,51.1608817 152.393799,52.5539551 C151.027093,53.9470284 149.306651,54.6435547 147.232422,54.6435547 C145.949212,54.6435547 144.725348,54.3535185 143.560791,53.7734375 C142.396234,53.1933565 141.510745,52.3430232 140.904297,51.2224121 C140.297849,50.101801 139.994629,48.7373127 139.994629,47.1289062 L139.994629,47.1289062 Z M143.791504,47.3266602 C143.791504,48.715339 144.12109,49.7788049 144.780273,50.5170898 C145.439456,51.2553748 146.252437,51.6245117 147.219238,51.6245117 C148.18604,51.6245117 148.996823,51.2553748 149.651611,50.5170898 C150.3064,49.7788049 150.633789,48.70655 150.633789,47.300293 C150.633789,45.9291924 150.3064,44.8745154 149.651611,44.1362305 C148.996823,43.3979455 148.18604,43.0288086 147.219238,43.0288086 C146.252437,43.0288086 145.439456,43.3979455 144.780273,44.1362305 C144.12109,44.8745154 143.791504,45.9379813 143.791504,47.3266602 L143.791504,47.3266602 Z M169.552246,44.4658203 L165.900391,45.125 C165.777343,44.3955042 165.498293,43.8461933 165.063232,43.4770508 C164.628172,43.1079083 164.06348,42.9233398 163.369141,42.9233398 C162.446284,42.9233398 161.710208,43.2419402 161.160889,43.8791504 C160.61157,44.5163606 160.336914,45.5820238 160.336914,47.0761719 C160.336914,48.737313 160.615964,49.9106411 161.174072,50.5961914 C161.732181,51.2817417 162.481441,51.6245117 163.421875,51.6245117 C164.125004,51.6245117 164.700681,51.4245625 165.148926,51.0246582 C165.59717,50.6247539 165.913573,49.9370166 166.098145,48.9614258 L169.736816,49.5810547 C169.358885,51.2509849 168.633794,52.5122028 167.561523,53.3647461 C166.489252,54.2172894 165.052255,54.6435547 163.250488,54.6435547 C161.202626,54.6435547 159.570074,53.9975651 158.352783,52.7055664 C157.135492,51.4135678 156.526855,49.6250114 156.526855,47.3398438 C156.526855,45.0283088 157.137689,43.2287662 158.359375,41.9411621 C159.581061,40.653558 161.233388,40.0097656 163.316406,40.0097656 C165.021493,40.0097656 166.377192,40.3767053 167.383545,41.1105957 C168.389898,41.8444861 169.112791,42.9628831 169.552246,44.4658203 L169.552246,44.4658203 Z M172.360352,38.4277344 L172.360352,35 L176.064941,35 L176.064941,38.4277344 L172.360352,38.4277344 Z M172.360352,54.3271484 L172.360352,40.3261719 L176.064941,40.3261719 L176.064941,54.3271484 L172.360352,54.3271484 Z M179.004883,47.1289062 C179.004883,45.8984313 179.308102,44.7075253 179.914551,43.5561523 C180.520999,42.4047794 181.380121,41.5258819 182.491943,40.9194336 C183.603765,40.3129852 184.845208,40.0097656 186.216309,40.0097656 C188.334483,40.0097656 190.070306,40.6975029 191.423828,42.072998 C192.777351,43.4484932 193.454102,45.1865129 193.454102,47.2871094 C193.454102,49.405284 192.770759,51.1608817 191.404053,52.5539551 C190.037347,53.9470284 188.316905,54.6435547 186.242676,54.6435547 C184.959466,54.6435547 183.735602,54.3535185 182.571045,53.7734375 C181.406488,53.1933565 180.520999,52.3430232 179.914551,51.2224121 C179.308102,50.101801 179.004883,48.7373127 179.004883,47.1289062 L179.004883,47.1289062 Z M182.801758,47.3266602 C182.801758,48.715339 183.131344,49.7788049 183.790527,50.5170898 C184.44971,51.2553748 185.26269,51.6245117 186.229492,51.6245117 C187.196294,51.6245117 188.007077,51.2553748 188.661865,50.5170898 C189.316654,49.7788049 189.644043,48.70655 189.644043,47.300293 C189.644043,45.9291924 189.316654,44.8745154 188.661865,44.1362305 C188.007077,43.3979455 187.196294,43.0288086 186.229492,43.0288086 C185.26269,43.0288086 184.44971,43.3979455 183.790527,44.1362305 C183.131344,44.8745154 182.801758,45.9379813 182.801758,47.3266602 L182.801758,47.3266602 Z M196.868652,54.3271484 L196.868652,51.6245117 L199.571289,51.6245117 L199.571289,54.3271484 L196.868652,54.3271484 Z M212.833984,49.1987305 L215.16748,49.5019531 C214.912596,51.1103596 214.260015,52.3693802 213.209717,53.2790527 C212.159419,54.1887253 210.869637,54.6435547 209.340332,54.6435547 C207.424307,54.6435547 205.884039,54.0173402 204.719482,52.7648926 C203.554926,51.5124449 202.972656,49.7172968 202.972656,47.3793945 C202.972656,45.8676682 203.223142,44.5449275 203.724121,43.4111328 C204.2251,42.2773381 204.987544,41.4270048 206.011475,40.8601074 C207.035406,40.2932101 208.149408,40.0097656 209.353516,40.0097656 C210.874031,40.0097656 212.117671,40.3942833 213.084473,41.1633301 C214.051274,41.9323769 214.670897,43.024407 214.943359,44.4394531 L212.63623,44.7954102 C212.416503,43.8549758 212.027591,43.1474633 211.469482,42.6728516 C210.911374,42.1982398 210.23682,41.9609375 209.445801,41.9609375 C208.250482,41.9609375 207.279301,42.3894 206.532227,43.2463379 C205.785153,44.1032758 205.411621,45.4589751 205.411621,47.3134766 C205.411621,49.1943453 205.771969,50.5610309 206.492676,51.4135742 C207.213383,52.2661175 208.153803,52.6923828 209.313965,52.6923828 C210.24561,52.6923828 211.023434,52.4067411 211.647461,51.8354492 C212.271487,51.2641573 212.666991,50.3852598 212.833984,49.1987305 L212.833984,49.1987305 Z M216.314453,47.3266602 C216.314453,44.7338738 217.035149,42.8134828 218.476562,41.5654297 C219.68067,40.5283151 221.148429,40.0097656 222.879883,40.0097656 C224.804697,40.0097656 226.377924,40.6403746 227.599609,41.9016113 C228.821295,43.1628481 229.432129,44.9052623 229.432129,47.1289062 C229.432129,48.9306731 229.161868,50.3478952 228.621338,51.3806152 C228.080808,52.4133352 227.294195,53.2153292 226.261475,53.7866211 C225.228755,54.357913 224.101569,54.6435547 222.879883,54.6435547 C220.919912,54.6435547 219.335699,54.015143 218.127197,52.7583008 C216.918695,51.5014586 216.314453,49.6909298 216.314453,47.3266602 L216.314453,47.3266602 Z M218.753418,47.3266602 C218.753418,49.1196379 219.144527,50.4621537 219.926758,51.354248 C220.708988,52.2463424 221.693353,52.6923828 222.879883,52.6923828 C224.057623,52.6923828 225.037594,52.2441451 225.819824,51.3476562 C226.602055,50.4511674 226.993164,49.0844818 226.993164,47.2475586 C226.993164,45.5161046 226.599857,44.2043502 225.813232,43.3122559 C225.026607,42.4201616 224.048834,41.9741211 222.879883,41.9741211 C221.693353,41.9741211 220.708988,42.4179643 219.926758,43.3056641 C219.144527,44.1933638 218.753418,45.5336824 218.753418,47.3266602 L218.753418,47.3266602 Z M232.213867,54.3271484 L232.213867,40.3261719 L234.336426,40.3261719 L234.336426,42.2905273 C234.775881,41.604977 235.360348,41.0534689 236.089844,40.6359863 C236.81934,40.2185038 237.649898,40.0097656 238.581543,40.0097656 C239.618658,40.0097656 240.468991,40.2250955 241.132568,40.6557617 C241.796146,41.0864279 242.264159,41.6884727 242.536621,42.4619141 C243.644049,40.8271403 245.08544,40.0097656 246.86084,40.0097656 C248.249519,40.0097656 249.317379,40.3942833 250.064453,41.1633301 C250.811527,41.9323769 251.185059,43.1166912 251.185059,44.7163086 L251.185059,54.3271484 L248.825195,54.3271484 L248.825195,45.5073242 C248.825195,44.5581007 248.748292,43.8747579 248.594482,43.4572754 C248.440673,43.0397928 248.161623,42.7036146 247.757324,42.4487305 C247.353025,42.1938464 246.878421,42.0664062 246.333496,42.0664062 C245.349116,42.0664062 244.531742,42.3937956 243.881348,43.048584 C243.230954,43.7033724 242.905762,44.7514576 242.905762,46.1928711 L242.905762,54.3271484 L240.532715,54.3271484 L240.532715,45.2304688 C240.532715,44.175776 240.339357,43.3847683 239.952637,42.8574219 C239.565916,42.3300755 238.93311,42.0664062 238.054199,42.0664062 C237.386227,42.0664062 236.768802,42.2421857 236.201904,42.59375 C235.635007,42.9453143 235.224122,43.4594693 234.969238,44.1362305 C234.714354,44.8129917 234.586914,45.7885678 234.586914,47.0629883 L234.586914,54.3271484 L232.213867,54.3271484 Z M255.377441,54.3271484 L255.377441,51.6245117 L258.080078,51.6245117 L258.080078,54.3271484 L255.377441,54.3271484 Z M262.206543,54.3271484 L262.206543,40.3261719 L264.329102,40.3261719 L264.329102,42.2905273 C264.768557,41.604977 265.353024,41.0534689 266.08252,40.6359863 C266.812015,40.2185038 267.642573,40.0097656 268.574219,40.0097656 C269.611333,40.0097656 270.461667,40.2250955 271.125244,40.6557617 C271.788822,41.0864279 272.256835,41.6884727 272.529297,42.4619141 C273.636724,40.8271403 275.078116,40.0097656 276.853516,40.0097656 C278.242194,40.0097656 279.310055,40.3942833 280.057129,41.1633301 C280.804203,41.9323769 281.177734,43.1166912 281.177734,44.7163086 L281.177734,54.3271484 L278.817871,54.3271484 L278.817871,45.5073242 C278.817871,44.5581007 278.740968,43.8747579 278.587158,43.4572754 C278.433349,43.0397928 278.154299,42.7036146 277.75,42.4487305 C277.345701,42.1938464 276.871096,42.0664062 276.326172,42.0664062 C275.341792,42.0664062 274.524417,42.3937956 273.874023,43.048584 C273.22363,43.7033724 272.898438,44.7514576 272.898438,46.1928711 L272.898438,54.3271484 L270.525391,54.3271484 L270.525391,45.2304688 C270.525391,44.175776 270.332033,43.3847683 269.945312,42.8574219 C269.558592,42.3300755 268.925786,42.0664062 268.046875,42.0664062 C267.378903,42.0664062 266.761477,42.2421857 266.19458,42.59375 C265.627683,42.9453143 265.216798,43.4594693 264.961914,44.1362305 C264.70703,44.8129917 264.57959,45.7885678 264.57959,47.0629883 L264.57959,54.3271484 L262.206543,54.3271484 Z M283.115723,54.3271484 L288.230957,47.0498047 L283.498047,40.3261719 L286.464355,40.3261719 L288.613281,43.6088867 C289.01758,44.2329133 289.342772,44.7558573 289.588867,45.1777344 C289.975588,44.5976533 290.331541,44.0834983 290.656738,43.6352539 L293.016602,40.3261719 L295.851074,40.3261719 L291.012695,46.9179688 L296.220215,54.3271484 L293.306641,54.3271484 L290.432617,49.9765625 L289.667969,48.8032227 L285.989746,54.3271484 L283.115723,54.3271484 Z" id="www.tunegocio.com.mx-copy" fill="#2FB357"></path>
            </g>
        </g>
    </g>
</svg>