<?xml version="1.0" encoding="UTF-8" standalone="no"?>
<svg width="444px" height="679px" viewBox="0 0 444 679" version="1.1" xmlns="http://www.w3.org/2000/svg" xmlns:xlink="http://www.w3.org/1999/xlink" xmlns:sketch="http://www.bohemiancoding.com/sketch/ns">
    <!-- Generator: Sketch 3.3.1 (12002) - http://www.bohemiancoding.com/sketch -->
    <title>3_mx</title>
    <desc>Created with Sketch.</desc>
    <defs>
        <rect id="path-1" x="0" y="0" width="244" height="192"></rect>
    </defs>
    <g id="Page-1" stroke="none" stroke-width="1" fill="none" fill-rule="evenodd" sketch:type="MSPage">
        <g id="3_mx" sketch:type="MSLayerGroup">
            <rect id="Rectangle-152" fill="#E9E9E9" sketch:type="MSShapeGroup" x="0" y="0.6" width="444" height="678"></rect>
            <rect id="Rectangle-152-Copy" fill="#FFFFFF" sketch:type="MSShapeGroup" x="1" y="1.6" width="442" height="676"></rect>
            <rect id="Rectangle-135" opacity="0.599172108" fill="#F0F0F0" sketch:type="MSShapeGroup" x="196" y="4.6" width="244" height="192"></rect>
            <g id="Path-246" transform="translate(196.000000, 4.600000)">
                <mask id="mask-2" sketch:name="Mask" fill="white">
                    <use xlink:href="#path-1"></use>
                </mask>
                <use id="Mask" fill="#F0F0F0" sketch:type="MSShapeGroup" xlink:href="#path-1"></use>
                <path d="M-4.92174609,138.617782 L-4.99781701,139.533099 L-5.77732012,148.912409 L-5.83696759,149.630113 L37.5,156.9 L38.6521894,199.028269 L38.6794515,199.78 L50.3447205,199.78 L51.1856362,199.78 L51.1225204,198.941456 L48,158.4 L96,162.9 L109.641979,197.725793 L110.36646,198.216782 L114.263975,198.216782 L115.368148,198.216782 L114.999125,197.176099 L103,162.9 L120.532559,162.262079 L165.804889,156.785845 L206.290388,154.445365 L229.527073,157.566225 L245.067129,160.684314 L245.876295,160.846584 L245.992699,160.029558 L246.772202,154.558293 L246.878582,153.811622 L246.135908,153.680207 L232.884355,151.33538 L196.210837,146.640106 L196.89127,147.385002 L195.332263,105.178105 L186.718433,79.1677339 L186.457019,78.3813732 L185.687902,78.6898514 L181.790386,80.2530698 L181.102572,80.5289387 L181.3429,81.2299624 L189.917434,106.241457 L190.654916,148.209805 L191.354307,147.419565 L168.748717,149.764393 L128.968188,155.238778 L111,155.9 L105,100.4 C105,100.4 105.816731,100.196383 106.246572,100.110687 C107.353115,99.8900474 108.040686,99.7511181 108.201259,99.7145256 C111.247694,99.0202833 115.101026,98.3120101 119.572474,97.6030109 C123.715272,96.9461231 128.155801,96.3245654 132.596582,95.7580014 C134.151051,95.5596791 135.594423,95.38241 136.889592,95.2286336 C137.342744,95.1748305 137.744945,95.1278133 138.09156,95.0878867 C138.299259,95.0639619 145.014176,91.8352071 145.014176,91.8352071 L145.765437,91.4585619 L145.333918,90.7374203 L142.995408,86.8293743 L142.602405,86.1725986 L141.938311,86.553106 L136.481789,89.6795428 L82.9937784,95.8344135 C82.1662461,95.8725784 81.7282699,95.9062168 81.2570012,95.9542646 C79.9082963,96.0917707 78.5583848,96.3176708 77.2909911,96.6540747 C75.1556033,97.2208699 73.4648949,98.0431692 72.3805539,99.2029246 C71.3714663,100.282193 70.7759803,101.773821 70.5074224,103.564281 C70.2763573,105.104779 70.3018754,106.732386 70.4823148,108.279219 C70.5129293,108.541665 42.5,112.9 42.5,112.9 L29.2938262,-5.08646557 L29.2097246,-5.84046477 L28.4536843,-5.77729119 L19.099647,-4.99568199 L18.3006391,-4.9289181 L18.3893894,-4.13205275 L35.5,148.9 L-4.03083816,138.84111 L-4.92174609,138.617782 Z" id="Path" fill="#C9C9C9" sketch:type="MSShapeGroup" mask="url(#mask-2)"></path>
                <path d="M36.1240059,150.515211 L37.2131599,150.788236 L37.0888715,149.672283 L19.9398032,-4.30472886 L19.2295455,-3.44109962 L28.5835828,-4.22270881 L27.7434409,-4.91353443 L40.9949936,113.891063 L41.0855252,114.702709 L41.8921578,114.575002 L71.5132758,109.885347 L72.3088088,109.759397 L72.1573986,108.968315 C72.1272409,108.810748 72.0798248,108.510097 72.0318082,108.09847 C71.8660271,106.677296 71.8425496,105.17984 72.0501645,103.795683 C72.2758861,102.290809 72.7578319,101.083588 73.5200672,100.26834 C74.3649411,99.3647061 75.8131238,98.6603625 77.6912032,98.1618645 C78.8706393,97.8488072 80.1423311,97.6359968 81.4152295,97.5062194 C81.861522,97.460718 82.2755669,97.4289177 82.6462506,97.4084385 C82.8662422,97.3962847 136.959638,91.1311037 136.959638,91.1311037 L142,87.9 L144,90.9 L138.078991,93.5670918 C137.564655,93.5782655 137.160651,93.6254933 136.705664,93.6795143 C135.406151,93.8338066 133.958305,94.0116252 132.399155,94.2105447 C127.943882,94.7789575 123.488357,95.4026142 119.32817,96.0622592 C114.825319,96.7762377 110.940401,97.4903168 107.854642,98.1935204 C107.716007,98.2251136 107.01543,98.366671 105.965931,98.5759362 C105.512312,98.6663737 105.052341,98.7577786 104.59236,98.8489861 C104.10169,98.9462125 103.277328,99.1092253 103.277328,99.1092253 L103.355052,99.8203767 L109.591077,156.877848 L109.670317,157.602868 L129.107094,156.790814 L168.935538,151.312946 L191.515258,148.97124 L192.21465,148.180999 L191.435147,105.974103 L183,81.4 L186,80.4 L193.812623,105.452956 L195.332333,147.442585 L195.356745,148.103507 L232.649412,152.877136 L245.864092,155.216344 L245.227798,154.338259 L244.448295,159.809523 L245.373865,159.154767 L229.783803,156.02833 L206.348703,152.893545 L165.666134,155.232796 L120.406291,160.708408 L101.759366,161.485048 L100.703634,161.529155 L101.056776,162.52505 L113.528826,197.697464 L114.263975,196.656782 L110.36646,196.656782 L111.09094,197.14777 L97.0598845,161.975356 L96.4095528,161.4879 L47.3008572,156.798245 L46.3794353,156.710253 L46.4489082,157.633256 L49.5669206,199.058544 L50.3447205,198.22 L39.431677,198.22 L40.2111646,198.971731 L38.6521584,155.983226 L38.6290187,155.345165 L-4.8737075,148.207304 L-4.22267988,149.041614 L-3.44317678,139.662303 L-4.41015563,140.354292 L36.1240059,150.515211 Z" id="Path" fill="#FFFFFF" sketch:type="MSShapeGroup" mask="url(#mask-2)"></path>
            </g>
            <rect id="Rectangle-135-Copy" fill-opacity="0.66" fill="#2FB357" sketch:type="MSShapeGroup" x="4" y="4.6" width="187" height="192"></rect>
            <path d="M34.7827148,248.22207 L34.7827148,227.387598 L27,227.387598 L27,224.6 L45.7236328,224.6 L45.7236328,227.387598 L37.9086914,227.387598 L37.9086914,248.22207 L34.7827148,248.22207 Z M58.5498047,248.22207 L58.5498047,245.708398 C57.2177668,247.642002 55.4077263,248.608789 53.1196289,248.608789 C52.1098582,248.608789 51.1672407,248.415432 50.291748,248.028711 C49.4162554,247.64199 48.7663595,247.155911 48.342041,246.570459 C47.9177225,245.985007 47.6196298,245.267973 47.4477539,244.419336 C47.3295893,243.849997 47.2705078,242.947662 47.2705078,241.712305 L47.2705078,231.109766 L50.1708984,231.109766 L50.1708984,240.600488 C50.1708984,242.115144 50.2299799,243.135642 50.3481445,243.662012 C50.5307626,244.424711 50.9174775,245.023582 51.5083008,245.458643 C52.099124,245.893703 52.8295855,246.11123 53.699707,246.11123 C54.5698286,246.11123 55.3862267,245.888332 56.1489258,245.442529 C56.9116249,244.996726 57.4514144,244.389799 57.7683105,243.621729 C58.0852067,242.853658 58.2436523,241.739167 58.2436523,240.278223 L58.2436523,231.109766 L61.144043,231.109766 L61.144043,248.22207 L58.5498047,248.22207 Z M75.1948242,248.22207 L75.1948242,224.6 L78.4013672,224.6 L90.8085938,243.146387 L90.8085938,224.6 L93.8056641,224.6 L93.8056641,248.22207 L90.5991211,248.22207 L78.1918945,229.65957 L78.1918945,248.22207 L75.1948242,248.22207 Z M110.402344,242.711328 L113.399414,243.081934 C112.926755,244.832919 112.051276,246.191792 110.772949,247.158594 C109.494623,248.125395 107.861826,248.608789 105.874512,248.608789 C103.37157,248.608789 101.38697,247.838045 99.9206543,246.296533 C98.4543384,244.755022 97.7211914,242.593178 97.7211914,239.810938 C97.7211914,236.932017 98.4623949,234.697664 99.9448242,233.107813 C101.427254,231.517961 103.350086,230.723047 105.713379,230.723047 C108.001476,230.723047 109.870598,231.501848 111.320801,233.059473 C112.771003,234.617098 113.496094,236.808482 113.496094,239.633691 C113.496094,239.805567 113.490723,240.063377 113.47998,240.407129 L100.718262,240.407129 C100.825684,242.287021 101.357417,243.72646 102.313477,244.725488 C103.269536,245.724517 104.461907,246.224023 105.890625,246.224023 C106.954107,246.224023 107.861813,245.944729 108.61377,245.386133 C109.365726,244.827536 109.961912,243.935944 110.402344,242.711328 L110.402344,242.711328 Z M100.879395,238.022363 L110.43457,238.022363 C110.305663,236.582903 109.940433,235.503324 109.338867,234.783594 C108.415034,233.666401 107.217293,233.107813 105.745605,233.107813 C104.413568,233.107813 103.293706,233.553609 102.385986,234.445215 C101.478267,235.336821 100.976075,236.529192 100.879395,238.022363 L100.879395,238.022363 Z M116.509277,249.640039 L119.329102,250.058984 C119.447266,250.929106 119.7749,251.562889 120.312012,251.960352 C121.031742,252.497464 122.014642,252.766016 123.260742,252.766016 C124.603522,252.766016 125.640133,252.497464 126.370605,251.960352 C127.101078,251.42324 127.595214,250.671294 127.853027,249.704492 C128.003419,249.113669 128.073242,247.872959 128.0625,245.982324 C126.794916,247.475496 125.21583,248.22207 123.325195,248.22207 C120.972644,248.22207 119.151862,247.373446 117.862793,245.676172 C116.573724,243.978898 115.929199,241.943274 115.929199,239.569238 C115.929199,237.936418 116.224606,236.429841 116.81543,235.049463 C117.406253,233.669085 118.262934,232.602933 119.385498,231.850977 C120.508062,231.09902 121.826653,230.723047 123.341309,230.723047 C125.36085,230.723047 127.025872,231.539445 128.336426,233.172266 L128.336426,231.109766 L131.01123,231.109766 L131.01123,245.901758 C131.01123,248.565834 130.739993,250.453754 130.19751,251.565576 C129.655027,252.677398 128.79566,253.555563 127.619385,254.200098 C126.443109,254.844632 124.995614,255.166895 123.276855,255.166895 C121.23583,255.166895 119.58692,254.707671 118.330078,253.789209 C117.073236,252.870747 116.466308,251.487705 116.509277,249.640039 L116.509277,249.640039 Z M118.910156,239.359766 C118.910156,241.604894 119.355953,243.243061 120.247559,244.274316 C121.139165,245.305572 122.256341,245.821191 123.599121,245.821191 C124.931159,245.821191 126.048335,245.308257 126.950684,244.282373 C127.853032,243.256489 128.304199,241.647863 128.304199,239.456445 C128.304199,237.361708 127.839604,235.782623 126.9104,234.719141 C125.981197,233.655659 124.861335,233.123926 123.550781,233.123926 C122.261712,233.123926 121.16602,233.647602 120.263672,234.694971 C119.361324,235.742339 118.910156,237.297255 118.910156,239.359766 L118.910156,239.359766 Z M134.314453,239.665918 C134.314453,236.496957 135.195304,234.149812 136.957031,232.624414 C138.428718,231.35683 140.222646,230.723047 142.338867,230.723047 C144.691418,230.723047 146.61425,231.493791 148.107422,233.035303 C149.600593,234.576814 150.347168,236.706432 150.347168,239.424219 C150.347168,241.626378 150.016849,243.358539 149.356201,244.620752 C148.695553,245.882965 147.734137,246.86318 146.471924,247.561426 C145.20971,248.259671 143.832039,248.608789 142.338867,248.608789 C139.943347,248.608789 138.007087,247.84073 136.530029,246.30459 C135.052971,244.768449 134.314453,242.555581 134.314453,239.665918 L134.314453,239.665918 Z M137.29541,239.665918 C137.29541,241.857335 137.773433,243.498188 138.729492,244.588525 C139.685552,245.678863 140.888665,246.224023 142.338867,246.224023 C143.778328,246.224023 144.976069,245.676177 145.932129,244.580469 C146.888188,243.48476 147.366211,241.814367 147.366211,239.569238 C147.366211,237.453017 146.885503,235.849761 145.924072,234.759424 C144.962642,233.669086 143.767585,233.123926 142.338867,233.123926 C140.888665,233.123926 139.685552,233.666401 138.729492,234.751367 C137.773433,235.836334 137.29541,237.474501 137.29541,239.665918 L137.29541,239.665918 Z M164.913574,241.954004 L167.765625,242.324609 C167.4541,244.29044 166.656501,245.829242 165.372803,246.941064 C164.089105,248.052886 162.512705,248.608789 160.643555,248.608789 C158.301746,248.608789 156.419197,247.843416 154.99585,246.312646 C153.572503,244.781877 152.86084,242.587807 152.86084,239.730371 C152.86084,237.882706 153.166989,236.266023 153.779297,234.880273 C154.391605,233.494524 155.32348,232.455228 156.574951,231.762354 C157.826422,231.069479 159.187981,230.723047 160.659668,230.723047 C162.518076,230.723047 164.03808,231.193013 165.219727,232.132959 C166.401373,233.072905 167.15869,234.407609 167.491699,236.137109 L164.671875,236.572168 C164.403319,235.422748 163.927982,234.558011 163.24585,233.97793 C162.563717,233.397849 161.739263,233.107813 160.772461,233.107813 C159.311516,233.107813 158.124516,233.631489 157.211426,234.678857 C156.298335,235.726226 155.841797,237.383192 155.841797,239.649805 C155.841797,241.948644 156.282222,243.619038 157.163086,244.661035 C158.04395,245.703033 159.193352,246.224023 160.611328,246.224023 C161.750006,246.224023 162.70068,245.874906 163.463379,245.17666 C164.226078,244.478414 164.709472,243.404206 164.913574,241.954004 L164.913574,241.954004 Z M170.263184,227.935449 L170.263184,224.6 L173.163574,224.6 L173.163574,227.935449 L170.263184,227.935449 Z M170.263184,248.22207 L170.263184,231.109766 L173.163574,231.109766 L173.163574,248.22207 L170.263184,248.22207 Z M176.499023,239.665918 C176.499023,236.496957 177.379874,234.149812 179.141602,232.624414 C180.613289,231.35683 182.407216,230.723047 184.523438,230.723047 C186.875988,230.723047 188.798821,231.493791 190.291992,233.035303 C191.785164,234.576814 192.531738,236.706432 192.531738,239.424219 C192.531738,241.626378 192.201419,243.358539 191.540771,244.620752 C190.880124,245.882965 189.918707,246.86318 188.656494,247.561426 C187.394281,248.259671 186.016609,248.608789 184.523438,248.608789 C182.127918,248.608789 180.191658,247.84073 178.7146,246.30459 C177.237541,244.768449 176.499023,242.555581 176.499023,239.665918 L176.499023,239.665918 Z M179.47998,239.665918 C179.47998,241.857335 179.958003,243.498188 180.914062,244.588525 C181.870122,245.678863 183.073235,246.224023 184.523438,246.224023 C185.962898,246.224023 187.16064,245.676177 188.116699,244.580469 C189.072759,243.48476 189.550781,241.814367 189.550781,239.569238 C189.550781,237.453017 189.070073,235.849761 188.108643,234.759424 C187.147212,233.669086 185.952156,233.123926 184.523438,233.123926 C183.073235,233.123926 181.870122,233.666401 180.914062,234.751367 C179.958003,235.836334 179.47998,237.474501 179.47998,239.665918 L179.47998,239.665918 Z" id="Tu-Negocio-Copy-4" fill="#4387FC" sketch:type="MSShapeGroup"></path>
            <g id="Group" transform="translate(28.000000, 262.600000)" fill="#E5712A" sketch:type="MSShapeGroup">
                <polygon id="Star-1" points="9 13.630137 3.70993273 18.0901699 5.89278111 11.121774 0.440491353 6.90983006 7.07963311 7.06315749 9 0 10.9203669 7.06315749 17.5595086 6.90983006 12.1072189 11.121774 14.2900673 18.0901699 "></polygon>
                <polygon id="Star-1-Copy" points="29 13.630137 23.7099327 18.0901699 25.8927811 11.121774 20.4404914 6.90983006 27.0796331 7.06315749 29 0 30.9203669 7.06315749 37.5595086 6.90983006 32.1072189 11.121774 34.2900673 18.0901699 "></polygon>
                <polygon id="Star-1-Copy-3" points="49 13.630137 43.7099327 18.0901699 45.8927811 11.121774 40.4404914 6.90983006 47.0796331 7.06315749 49 0 50.9203669 7.06315749 57.5595086 6.90983006 52.1072189 11.121774 54.2900673 18.0901699 "></polygon>
                <polygon id="Star-1-Copy-2" points="69 13.630137 63.7099327 18.0901699 65.8927811 11.121774 60.4404914 6.90983006 67.0796331 7.06315749 69 0 70.9203669 7.06315749 77.5595086 6.90983006 72.1072189 11.121774 74.2900673 18.0901699 "></polygon>
                <polygon id="Star-1-Copy-4" points="89 13.630137 83.7099327 18.0901699 85.8927811 11.121774 80.4404914 6.90983006 87.0796331 7.06315749 89 0 90.9203669 7.06315749 97.5595086 6.90983006 92.1072189 11.121774 94.2900673 18.0901699 "></polygon>
            </g>
            <path d="M239,124.119231 L242.809524,156.446154 L271,159.6 L267.190476,118.6 L239,124.119231 Z" id="Path-247" stroke="#C9C9C9" stroke-width="1.56" fill="#F0F0F0" sketch:type="MSShapeGroup"></path>
            <path d="M295.933633,105.6 L276.304835,107.134247 C276.304835,107.134247 273.096459,108.033794 272.379075,109.435616 C271.526156,111.102287 272.379075,116.339726 272.379075,116.339726 L277.089987,159.29863 L303,161.6 L295.933633,105.6 Z" id="Path-248" stroke="#C9C9C9" stroke-width="1.56" fill="#F0F0F0" sketch:type="MSShapeGroup"></path>
            <g id="place-copy-11" transform="translate(323.000000, 105.000000)" sketch:type="MSShapeGroup">
                <path d="M5.19476546,21.8723185 C7.45411482,24.1146885 13.99999,42.5 13.99999,42.5 C13.99999,42.5 20.4301105,24.1657025 22.678364,21.9964515 C25.0345301,19.7230799 26.49999,16.5326782 26.49999,13 C26.49999,6.09644063 20.9035494,0.5 13.99999,0.5 C7.09643061,0.5 1.49998998,6.09644063 1.49998998,13 C1.49998998,16.4688434 2.91296718,19.6076682 5.19476546,21.8723185 Z" id="Oval-51" fill="#EE3E34"></path>
                <path d="M4.84254809,22.2272029 C5.57729362,22.9564267 6.9714677,25.8298928 8.75700077,30.1685157 C9.03188587,30.8364523 9.31424879,31.5345577 9.603074,32.2596099 C10.5098494,34.5359332 11.4404458,36.9757165 12.3435571,39.4156179 C12.6596791,40.2696728 12.9497673,41.0626909 13.2074257,41.7742914 C13.3619399,42.2010284 13.471247,42.5056244 13.5289545,42.6677067 L14.0035406,44.0006703 L14.4718138,42.6654759 C14.5282724,42.5044946 14.6352504,42.2019463 14.7865216,41.7780688 C15.0387763,41.0712252 15.3228794,40.2835053 15.6326012,39.4351555 C16.5174252,37.0115597 17.4300691,34.5880848 18.320554,32.3270016 C18.615701,31.5775764 18.9040897,30.8571989 19.1846092,30.1694631 C20.93208,25.8852746 22.3019834,23.0544004 23.0255389,22.3562703 C25.5483467,19.9221127 26.99999,16.5760419 26.99999,13 C26.99999,5.82029825 21.1796917,0 13.99999,0 C6.82028823,0 0.99998998,5.82029825 0.99998998,13 C0.99998998,16.511547 2.39946156,19.8024765 4.84254809,22.2272029 L4.84254809,22.2272029 Z M5.54698283,21.5174341 C3.29118601,19.2785899 1.99998998,16.242276 1.99998998,13 C1.99998998,6.372583 7.37257298,1 13.99999,1 C20.627407,1 25.99999,6.372583 25.99999,13 C25.99999,16.3017978 24.6606344,19.3890429 22.3311891,21.6366327 C21.4573726,22.4797437 20.0812261,25.3235191 18.2586725,29.7917843 C17.976569,30.4834038 17.6866878,31.2075091 17.3901113,31.9605643 C16.4962085,34.2303261 15.58073,36.6613279 14.6932463,39.0922089 C14.3826603,39.9429259 14.0977402,40.7329109 13.8446997,41.4419564 C13.6927939,41.8676123 13.5852102,42.1718736 13.5281661,42.3345241 L14.4710255,42.3322933 C14.4127377,42.168581 14.3028303,41.8623124 14.1476873,41.4338387 C13.8892504,40.7200881 13.598353,39.9248579 13.2813754,39.0684915 C12.3756306,36.6214751 11.4422302,34.1743405 10.532078,31.8895403 C10.2419,31.1610919 9.95812737,30.4595013 9.6817508,29.7879406 C7.82422203,25.2743772 6.42345205,22.3873165 5.54698283,21.5174341 L5.54698283,21.5174341 Z" id="Shape" fill="#B6392F"></path>
                <circle id="Oval-52" fill="#000000" cx="14" cy="13" r="4"></circle>
            </g>
            <rect id="Rectangle-path" fill="#E0E0E0" sketch:type="MSShapeGroup" x="28.8950086" y="338.465006" width="379.776388" height="13.9765886"></rect>
            <rect id="Rectangle-path-Copy-3" fill="#A1C3FE" sketch:type="MSShapeGroup" x="136.895009" y="265.465006" width="100" height="13.9765886"></rect>
            <rect id="Rectangle-path" fill="#E0E0E0" sketch:type="MSShapeGroup" x="28.8950086" y="366.168349" width="379.776388" height="13.9765886"></rect>
            <rect id="Rectangle-path-7" fill="#E0E0E0" sketch:type="MSShapeGroup" x="28.8950086" y="393.128215" width="229.309233" height="13.9765886"></rect>
            <rect id="Rectangle-path-Copy-10" fill="#E0E0E0" sketch:type="MSShapeGroup" x="28.8950086" y="447.465006" width="379.779999" height="13.9765886"></rect>
            <rect id="Rectangle-path-Copy-11" fill="#F0F0F0" sketch:type="MSShapeGroup" x="28.8950086" y="477.465006" width="100" height="100"></rect>
            <g id="Group-Copy-2" transform="translate(45.895009, 509.009420)" fill="#E0E0E0" sketch:type="MSShapeGroup">
                <path d="M40.5857282,0.614429682 L26.8802233,18.2214544 L39.2456505,36.7573522 L64.6989894,36.7573522 L40.5857282,0.614429682 Z" id="Shape"></path>
                <path d="M19.1517183,12.6626729 L0.3969596,36.7573522 L35.2272258,36.7573522 L19.1517183,12.6626729 Z" id="Shape"></path>
                <ellipse id="Oval" cx="10.4439257" cy="10.65403" rx="6.02854136" ry="6.0241216"></ellipse>
            </g>
            <rect id="Rectangle-path-Copy-15" fill="#E0E0E0" sketch:type="MSShapeGroup" x="28.8950086" y="587.465006" width="98.394857" height="13.9765886"></rect>
            <rect id="Rectangle-path-Copy-14" fill="#E0E0E0" sketch:type="MSShapeGroup" x="28.8950086" y="612.168349" width="98.394857" height="13.9765886"></rect>
            <rect id="Rectangle-path-7-Copy-28" fill="#E0E0E0" sketch:type="MSShapeGroup" x="28.8950086" y="636.128215" width="59.4108793" height="13.9765886"></rect>
            <rect id="Rectangle-path-Copy-12" fill="#F0F0F0" sketch:type="MSShapeGroup" x="168.895009" y="477.465006" width="100" height="100"></rect>
            <path d="M203.855006,547.174415 L217.325004,547.174415 L210.590005,540.439416 L213.957505,540.439416 L205.725839,526.969418 L208.345006,526.969418 L203.855006,522.479418 L205.538756,522.479418 L207.222506,522.479418 L203.013131,515.744419 L206.100006,515.744419 L201.610007,509.00942 L197.120007,515.744419 L200.206882,515.744419 L195.997507,522.479418 L197.681257,522.479418 L199.365007,522.479418 L194.875007,526.969418 L197.494174,526.969418 L189.262508,540.439416 L192.630008,540.439416 L185.895009,547.174415 L199.365007,547.174415 L199.365007,553.909414 L203.855006,553.909414 L203.855006,547.174415 L203.855006,547.174415 Z M240.41643,539.541416 L251,539.541416 L245.708215,534.153417 L248.354107,534.153417 L241.88637,523.377418 L243.944287,523.377418 L240.41643,519.785419 L241.739376,519.785419 L243.062322,519.785419 L239.754957,514.397419 L242.180358,514.397419 L238.652502,509.00942 L235.124645,514.397419 L237.550046,514.397419 L234.242681,519.785419 L235.565627,519.785419 L236.888573,519.785419 L233.360717,523.377418 L235.418633,523.377418 L228.950896,534.153417 L231.596788,534.153417 L226.305003,539.541416 L236.888573,539.541416 L236.888573,544.929415 L240.41643,544.929415 L240.41643,539.541416 L240.41643,539.541416 Z M221.815004,530.336917 L228.550003,530.336917 L225.182503,526.969418 L226.866253,526.969418 L222.75042,520.234418 L224.060004,520.234418 L221.815004,517.989419 L222.656879,517.989419 L223.498754,517.989419 L221.394066,514.621919 L222.937504,514.621919 L220.692504,511.25442 L218.447504,514.621919 L219.990942,514.621919 L217.886254,517.989419 L218.728129,517.989419 L219.570004,517.989419 L217.325004,520.234418 L218.634588,520.234418 L214.518755,526.969418 L216.202505,526.969418 L212.835005,530.336917 L219.570004,530.336917 L219.570004,533.704417 L221.815004,533.704417 L221.815004,530.336917 L221.815004,530.336917 Z" id="Triangle-1" fill="#E0E0E0" sketch:type="MSShapeGroup"></path>
            <rect id="Rectangle-path-Copy-16" fill="#E0E0E0" sketch:type="MSShapeGroup" x="168.895009" y="587.465006" width="98.394857" height="13.9765886"></rect>
            <rect id="Rectangle-path-Copy-17" fill="#E0E0E0" sketch:type="MSShapeGroup" x="168.895009" y="612.168349" width="98.394857" height="13.9765886"></rect>
            <rect id="Rectangle-path-7-Copy-29" fill="#E0E0E0" sketch:type="MSShapeGroup" x="168.895009" y="636.128215" width="59.4108793" height="13.9765886"></rect>
            <rect id="Rectangle-path-Copy-13" fill="#F0F0F0" sketch:type="MSShapeGroup" x="308.895009" y="477.465006" width="100" height="100"></rect>
            <path d="M372.317645,477.475818 C372.317645,477.475818 371.92417,520.905216 370.847216,523.059124 C369.376786,525.999983 350.261206,550.99728 353.202065,553.938139 C356.142923,556.878997 367.906357,555.408568 367.906357,555.408568 C367.906357,555.408568 369.83104,556.6558 370.847216,558.349426 C371.863391,560.043052 372.317645,561.324375 372.317645,562.760714 C372.317645,565.701572 372.317645,577.465006 372.317645,577.465006 L409.078376,577.465006 L409.078376,477.465006 L372.317645,477.475818 L372.317645,477.475818 Z M392.903654,521.588695 C400.212515,521.588695 406.137518,515.663693 406.137518,508.354832 C406.137518,501.045971 400.212515,495.120969 392.903654,495.120969 C385.594793,495.120969 379.669791,501.045971 379.669791,508.354832 C379.669791,515.663693 385.594793,521.588695 392.903654,521.588695 L392.903654,521.588695 Z" id="Path-317" fill="#E0E0E0" sketch:type="MSShapeGroup"></path>
            <rect id="Rectangle-path-Copy-18" fill="#E0E0E0" sketch:type="MSShapeGroup" x="308.895009" y="587.465006" width="98.394857" height="13.9765886"></rect>
            <rect id="Rectangle-path-Copy-19" fill="#E0E0E0" sketch:type="MSShapeGroup" x="308.895009" y="612.168349" width="98.394857" height="13.9765886"></rect>
            <rect id="Rectangle-path-7-Copy-30" fill="#E0E0E0" sketch:type="MSShapeGroup" x="308.895009" y="636.128215" width="59.4108793" height="13.9765886"></rect>
            <rect id="Rectangle-path-7-Copy-14" fill="#E0E0E0" sketch:type="MSShapeGroup" x="28.8950086" y="290.128215" width="100" height="13.9765886"></rect>
            <path d="M42,45 L97.7511312,45 L97.7511312,156 L42,156 L42,45 L42,45 Z M49.5339367,59.5 L63.0950226,59.5 L63.0950226,73.5 L49.5339367,73.5 L49.5339367,59.5 L49.5339367,59.5 Z M77.158371,59.5 L90.719457,59.5 L90.719457,73.5 L77.158371,73.5 L77.158371,59.5 L77.158371,59.5 Z M49.5339367,86.5 L63.0950226,86.5 L63.0950226,100.5 L49.5339367,100.5 L49.5339367,86.5 L49.5339367,86.5 Z M77.158371,86.5 L90.719457,86.5 L90.719457,100.5 L77.158371,100.5 L77.158371,86.5 L77.158371,86.5 Z M49.5339367,114.5 L63.0950226,114.5 L63.0950226,128.5 L49.5339367,128.5 L49.5339367,114.5 L49.5339367,114.5 Z M77.158371,114.5 L90.719457,114.5 L90.719457,128.5 L77.158371,128.5 L77.158371,114.5 L77.158371,114.5 Z M104.280543,79 L153,79 L153,86.5 L104.280543,86.5 L104.280543,79 L104.280543,79 Z M138.936652,156 L153,156 L153,94 L104.280543,94 L104.280543,156 L118.343891,156 L118.343891,128.5 L138.936652,128.5 L138.936652,156 L138.936652,156 Z" id="Rectangle-175" opacity="0.8" fill="#FFFFFF" sketch:type="MSShapeGroup"></path>
        </g>
    </g>
</svg>