<?xml version="1.0" encoding="UTF-8" standalone="no"?>
<svg width="1074px" height="364px" viewBox="0 0 1074 364" version="1.1" xmlns="http://www.w3.org/2000/svg" xmlns:xlink="http://www.w3.org/1999/xlink" xmlns:sketch="http://www.bohemiancoding.com/sketch/ns">
    <!-- Generator: Sketch 3.2.2 (9983) - http://www.bohemiancoding.com/sketch -->
    <title>arrow_down</title>
    <desc>Created with Sketch.</desc>
    <defs></defs>
    <g id="Page-1" stroke="none" stroke-width="1" fill="none" fill-rule="evenodd" sketch:type="MSPage">
        <g id="arrow_down" sketch:type="MSArtboardGroup">
            <rect id="Rectangle-224" sketch:type="MSShapeGroup" x="0" y="0" width="1074" height="364"></rect>
            <g id="thin_arrow_down" sketch:type="MSLayerGroup" transform="translate(50.500000, 167.500000)" fill="#64D24C">
                <path d="M6,79.0857864 L8.29289322,76.7928932 C8.68341751,76.4023689 9.31658249,76.4023689 9.70710678,76.7928932 C10.0976311,77.1834175 10.0976311,77.8165825 9.70710678,78.2071068 L5.70710678,82.2071068 L5,82.9142136 L4.29289322,82.2071068 L0.292893219,78.2071068 C-0.0976310729,77.8165825 -0.0976310729,77.1834175 0.292893219,76.7928932 C0.683417511,76.4023689 1.31658249,76.4023689 1.70710678,76.7928932 L4,79.0857864 L4,1.90126026 C4,1.34897551 4.44771525,0.901260257 5,0.901260257 C5.55228475,0.901260257 6,1.34897551 6,1.90126026 L6,79.0857864 L6,79.0857864 Z" id="Path-211" sketch:type="MSShapeGroup"></path>
            </g>
        </g>
    </g>
</svg>