<svg xmlns="http://www.w3.org/2000/svg" width="103" height="95" viewBox="0 0 103 95">
  <g fill="#C5C9CE">
    <path d="M102.991148,33.7668644 L102.963387,32.3915784 L101.593406,32.2730297 C98.1163516,31.9725318 95.273793,29.3598305 94.6807383,25.9195021 L94.3928613,24.2501589 L92.7617598,24.7054343 C91.9083887,24.9437394 91.0298711,25.0645021 90.1503477,25.0645021 C84.8052109,25.0645021 80.4566797,20.7136229 80.4566797,15.3660487 C80.4566797,14.7235911 80.5206523,14.0783157 80.6469883,13.4481356 L80.9411016,11.9798623 L79.4803926,11.6536017 C75.9950898,10.875286 73.4655547,7.71412076 73.4655547,4.13712924 C73.4655547,3.48199153 73.5480352,2.83087924 73.7103809,2.20230932 L74.152959,0.489692797 L72.3953203,0.297881356 C71.1398066,0.161016949 69.8724238,0.0915783898 68.6281758,0.0915783898 C52.5483066,0.0915783898 39.0138652,11.1969174 35.2801152,26.1439195 C34.9779551,26.1360699 34.6753926,26.1318432 34.3714219,26.1318432 C15.4190195,26.1314407 0,41.558072 0,60.5200318 C0,79.4817903 15.4190195,94.9086229 34.371623,94.9086229 C50.4516934,94.9086229 63.9859336,83.8032839 67.7196836,68.8562818 C68.0216426,68.8643326 68.3244062,68.8683581 68.628377,68.8683581 C87.5809805,68.8683581 103,53.4417267 103,34.4797669 C103,34.2414619 102.995977,34.0041631 102.991148,33.7668644 Z M34.371623,91.8476907 C17.1060469,91.8476907 3.05942188,77.7941314 3.05942188,60.5200318 C3.05942188,43.2459322 17.1060469,29.1923729 34.371623,29.1923729 C51.6371992,29.1923729 65.6838242,43.2459322 65.6838242,60.5200318 C65.6838242,77.7941314 51.6371992,91.8476907 34.371623,91.8476907 Z M68.628377,65.8074258 C68.5310098,65.8074258 68.4346484,65.8046081 68.3374824,65.803803 C68.6040352,64.0809216 68.7432461,62.3165784 68.7432461,60.5200318 C68.7432461,42.9156462 55.4524238,28.3611229 38.3831914,26.366928 C41.9648555,13.0131886 54.1665332,3.15210805 68.628377,3.15210805 C69.2298809,3.15210805 69.8374199,3.16981992 70.4465684,3.20544492 C70.4198125,3.51479873 70.4065352,3.82576271 70.4065352,4.13712924 C70.4065352,8.65486229 73.2951621,12.6979979 77.4475508,14.2371186 C77.4143574,14.6128919 77.3976602,14.9896716 77.3976602,15.3660487 C77.3976602,22.4016843 83.1185859,28.1254343 90.15075,28.1254343 C90.7864531,28.1254343 91.4215527,28.0775318 92.0508184,27.9825318 C93.2343125,31.5720021 96.2368027,34.2917797 99.934543,35.1089407 C99.5989883,52.0946186 85.684332,65.8074258 68.628377,65.8074258 Z"/>
    <path d="M64.4753848 11.4795021C61.9283477 11.4795021 59.855875 13.5527966 59.855875 16.1012924 59.855875 18.6497881 61.9281465 20.7230826 64.4753848 20.7230826 67.022623 20.7230826 69.0948945 18.6497881 69.0948945 16.1012924 69.0948945 13.5527966 67.0224219 11.4795021 64.4753848 11.4795021zM64.4753848 17.6621504C63.615375 17.6621504 62.9152969 16.961928 62.9152969 16.1012924 62.9152969 15.2406568 63.6151738 14.5404343 64.4753848 14.5404343 65.3355957 14.5404343 66.0354727 15.2406568 66.0354727 16.1012924 66.0354727 16.961928 65.3353945 17.6621504 64.4753848 17.6621504zM46.2413672 17.769428C45.7076582 18.4807203 45.2007051 19.2260275 44.7353945 19.9838136L47.3419785 21.5861335C47.758002 20.9088559 48.2108398 20.2430508 48.6878184 19.6074364L46.2413672 17.769428zM58.7397734 8.24970339C54.7006445 9.83310381 51.0081348 12.3675106 48.0607656 15.5789936L50.314293 17.6492691C52.9486387 14.7789407 56.2478574 12.514036 59.8556738 11.0997034L58.7397734 8.24970339zM92.0260742 43.519661C91.2169609 45.5172775 90.1541699 47.4112394 88.8666699 49.1492161L91.3247891 50.9717267C92.765582 49.0264407 93.9557148 46.9060487 94.8613906 44.669322L92.0260742 43.519661zM78.0762129 45.464947C75.5289746 45.464947 73.4567031 47.5382415 73.4567031 50.0867373 73.4567031 52.6352331 75.5289746 54.7085275 78.0762129 54.7085275 80.6234512 54.7085275 82.6957227 52.6350318 82.6957227 50.0867373 82.6957227 47.5382415 80.6234512 45.464947 78.0762129 45.464947zM78.0762129 51.6475953C77.216002 51.6475953 76.516125 50.9471716 76.516125 50.0867373 76.516125 49.2261017 77.216002 48.5258792 78.0762129 48.5258792 78.9364238 48.5258792 79.6363008 49.2261017 79.6363008 50.0867373 79.6363008 50.9475742 78.936625 51.6475953 78.0762129 51.6475953zM68.628377 25.6294703C66.0811387 25.6294703 64.0088672 27.7029661 64.0088672 30.2512606 64.0088672 32.7997564 66.0811387 34.8730508 68.628377 34.8730508 71.1756152 34.8730508 73.2478867 32.7997564 73.2478867 30.2512606 73.2478867 27.7029661 71.1756152 25.6294703 68.628377 25.6294703zM68.628377 31.8123199C67.768166 31.8123199 67.0682891 31.1120975 67.0682891 30.2514619 67.0682891 29.3908263 67.768166 28.6906038 68.628377 28.6906038 69.4885879 28.6906038 70.1884648 29.3910275 70.1884648 30.2514619 70.1884648 31.1118962 69.4887891 31.8123199 68.628377 31.8123199zM85.6338379 32.0627013C82.4766465 32.0627013 79.9082852 34.6325318 79.9082852 37.7912818 79.9082852 40.9500318 82.4768477 43.5198623 85.6338379 43.5198623 88.7912305 43.5198623 91.3595918 40.9498305 91.3595918 37.7912818 91.3595918 34.6325318 88.7910293 32.0627013 85.6338379 32.0627013zM85.6338379 40.4589301C84.1636738 40.4589301 82.967707 39.2623729 82.967707 37.7912818 82.967707 36.3203919 84.1636738 35.1236335 85.6338379 35.1236335 87.104002 35.1236335 88.3001699 36.3201907 88.3001699 37.7912818 88.3001699 39.2621716 87.1042031 40.4589301 85.6338379 40.4589301zM36.3875664 33.4673729C33.8403281 33.4673729 31.7680566 35.5408686 31.7680566 38.0891631 31.7680566 40.6374576 33.8403281 42.7109534 36.3875664 42.7109534 38.9348047 42.7109534 41.0070762 40.6376589 41.0070762 38.0891631 41.0070762 35.5406674 38.9348047 33.4673729 36.3875664 33.4673729zM36.3875664 39.6500212C35.5273555 39.6500212 34.8274785 38.9497987 34.8274785 38.0891631 34.8274785 37.2285275 35.5273555 36.5283051 36.3875664 36.5283051 37.2477773 36.5283051 37.9476543 37.2287288 37.9476543 38.0891631 37.9476543 38.9495975 37.2477773 39.6500212 36.3875664 39.6500212zM11.4082559 43.6832945C10.8737422 44.3955932 10.3669902 45.1406992 9.9022832 45.8976801L12.5090684 47.4997987C12.9242871 46.8233263 13.377125 46.1575212 13.854707 45.5211017L11.4082559 43.6832945zM23.9068633 34.1635699C19.8681367 35.7467691 16.1754258 38.2811758 13.2278555 41.4930614L15.4813828 43.5633369C18.1157285 40.6928072 21.4151484 38.4279025 25.0227637 37.0137712L23.9068633 34.1635699zM57.8783555 69.7929979C57.0692422 71.7900106 56.0066523 73.6839725 54.7189512 75.4223517L57.1770703 77.2448623C58.6182656 75.2991737 59.8081973 73.1787818 60.7136719 70.9424576L57.8783555 69.7929979zM12.7530898 72.4588347L10.0754922 73.9397881C11.4235449 76.3793962 13.1180156 78.6082733 15.1120313 80.5654343L17.2545117 78.3804343C15.4719277 76.6307839 13.957707 74.6386017 12.7530898 72.4588347zM10.5748008 67.2261864L7.62622461 68.0423411C7.9324082 69.1491314 8.30900195 70.2478708 8.74614844 71.3085699L11.5744238 70.1418008C11.1843516 69.1950212 10.8479922 68.214428 10.5748008 67.2261864zM43.819459 71.5052119C41.2722207 71.5052119 39.1999492 73.5787076 39.1999492 76.1270021 39.1999492 78.6752966 41.2724219 80.7487924 43.819459 80.7487924 46.3666973 80.7487924 48.4389687 78.6754979 48.4389687 76.1270021 48.4389687 73.5785064 46.3664961 71.5052119 43.819459 71.5052119zM43.819459 77.6878602C42.959248 77.6878602 42.2593711 76.9876377 42.2593711 76.1270021 42.2593711 75.2663665 42.9594492 74.5661441 43.819459 74.5661441 44.6796699 74.5661441 45.3795469 75.2665678 45.3795469 76.1270021 45.3795469 76.9876377 44.6794687 77.6878602 43.819459 77.6878602zM13.2505879 52.8069174C10.7033496 52.8069174 8.63107813 54.8802119 8.63107813 57.4287076 8.63107813 59.9772034 10.7035508 62.0504979 13.2505879 62.0504979 15.797625 62.0504979 17.8700977 59.9770021 17.8700977 57.4287076 17.8698965 54.8802119 15.7978262 52.8069174 13.2505879 52.8069174zM13.2505879 58.9895657C12.390377 58.9895657 11.6905 58.2891419 11.6905 57.4287076 11.6905 56.568072 12.3905781 55.8678496 13.2505879 55.8678496 14.1107988 55.8678496 14.8106758 56.568072 14.8106758 57.4287076 14.8106758 58.2893432 14.1107988 58.9895657 13.2505879 58.9895657zM34.371623 51.6697352C31.8243848 51.6697352 29.7521133 53.7432309 29.7521133 56.2915254 29.7521133 58.8398199 31.8245859 60.9133157 34.371623 60.9133157 36.9188613 60.9133157 38.9911328 58.8400212 38.9911328 56.2915254 38.9911328 53.7430297 36.9188613 51.6697352 34.371623 51.6697352zM34.371623 57.8523835C33.5114121 57.8523835 32.8115352 57.152161 32.8115352 56.2915254 32.8115352 55.4308898 33.5116133 54.7306674 34.371623 54.7306674 35.231834 54.7306674 35.9317109 55.4310911 35.9317109 56.2915254 35.9317109 57.1519597 35.231834 57.8523835 34.371623 57.8523835zM55.5729258 53.9048517C52.4157344 53.905053 49.847373 56.4748835 49.847373 59.6334322 49.847373 62.7921822 52.4159355 65.3618114 55.5729258 65.3618114 58.7301172 65.3618114 61.2986797 62.7919809 61.2986797 59.6334322 61.2986797 56.4746822 58.7301172 53.9048517 55.5729258 53.9048517zM55.5729258 62.3008792C54.1027617 62.3008792 52.9067949 61.104322 52.9067949 59.6334322 52.9067949 58.1625424 54.1027617 56.9657839 55.5729258 56.9657839 57.043291 56.9659852 58.2392578 58.1625424 58.2392578 59.6334322 58.2392578 61.104322 57.043291 62.3008792 55.5729258 62.3008792zM26.0223867 75.902786C22.8651953 75.902786 20.296834 78.4726165 20.296834 81.6313665 20.296834 84.7901165 22.8653965 87.3597458 26.0223867 87.3597458 29.1795781 87.3597458 31.7481406 84.7899153 31.7481406 81.6313665 31.7483418 78.4724153 29.1795781 75.902786 26.0223867 75.902786zM26.0223867 84.2986123C24.5522227 84.2986123 23.3562559 83.1020551 23.3562559 81.6311653 23.3562559 80.1600742 24.5522227 78.9635169 26.0223867 78.9635169 27.492752 78.9635169 28.6887187 80.1600742 28.6887187 81.6311653 28.6889199 83.1020551 27.4925508 84.2986123 26.0223867 84.2986123z"/>
  </g>
</svg>
