<?xml version="1.0" encoding="UTF-8" standalone="no"?>
<svg width="1160px" height="930px" viewBox="0 0 1160 930" version="1.1" xmlns="http://www.w3.org/2000/svg" xmlns:xlink="http://www.w3.org/1999/xlink" xmlns:sketch="http://www.bohemiancoding.com/sketch/ns">
    <!-- Generator: Sketch 3.3.1 (12002) - http://www.bohemiancoding.com/sketch -->
    <title>google_browser_mx</title>
    <desc>Created with Sketch.</desc>
    <defs></defs>
    <g id="Page-1" stroke="none" stroke-width="1" fill="none" fill-rule="evenodd" sketch:type="MSPage">
        <g id="google_browser_mx" sketch:type="MSArtboardGroup">
            <g id="bg" sketch:type="MSLayerGroup">
                <rect id="Rectangle-159" fill="#E6E6E6" sketch:type="MSShapeGroup" x="0" y="0" width="1160" height="67.9287958" rx="4"></rect>
                <rect id="Rectangle-154" fill="#FCFCFC" sketch:type="MSShapeGroup" x="136" y="13.9652944" width="48" height="39.9798316" rx="3"></rect>
                <rect id="Rectangle-155" fill="#FCFCFC" sketch:type="MSShapeGroup" x="244" y="13.9652944" width="66.3648881" height="39.9581152" rx="3"></rect>
                <rect id="Rectangle-156" fill="#FCFCFC" sketch:type="MSShapeGroup" x="415" y="13.9636239" width="562.030981" height="39.9798316" rx="3"></rect>
                <ellipse id="Oval-19" stroke="#E04D48" fill="#FC6059" sketch:type="MSShapeGroup" cx="34.4638554" cy="34.4304646" rx="10.5" ry="10.4890052"></ellipse>
                <ellipse id="Oval-20" stroke="#EEAF2D" fill="#FEBD2C" sketch:type="MSShapeGroup" cx="72.4122203" cy="34.4304646" rx="10.5" ry="10.4890052"></ellipse>
                <ellipse id="Oval-21" stroke="#43B85C" fill="#2CCA42" sketch:type="MSShapeGroup" cx="110.360585" cy="34.4304646" rx="10.5" ry="10.4890052"></ellipse>
                <rect id="Rectangle-157" fill="#FCFCFC" sketch:type="MSShapeGroup" x="185" y="13.9652944" width="48" height="39.9581152" rx="3"></rect>
                <g id="Group" transform="translate(264.000000, 21.976963)" fill="#6C6C6C" sketch:type="MSShapeGroup">
                    <path d="M10.0361446,20.7836875 L10.0361446,21.6658989 L11.8219545,21.6658989 L11.8219545,20.7836875 L11.8219545,3.13946064 L11.8219545,2.2572493 L10.0361446,2.2572493 L10.0361446,3.13946064 L10.0361446,20.7836875 Z" id="Line-27"></path>
                    <path d="M6.89156627,7.46229623 L7.78447122,7.46229623 L7.78447122,5.69787354 L6.89156627,5.69787354 L5.10575636,5.69787354 L4.21285141,5.69787354 L4.21285141,7.46229623 L5.10575636,7.46229623 L6.89156627,7.46229623 Z" id="Line-28"></path>
                    <path d="M6.89156627,12.0497952 L7.78447122,12.0497952 L7.78447122,10.2853725 L6.89156627,10.2853725 L5.10575636,10.2853725 L4.21285141,10.2853725 L4.21285141,12.0497952 L5.10575636,12.0497952 L6.89156627,12.0497952 Z" id="Line-29"></path>
                    <path d="M6.89156627,16.6372942 L7.78447122,16.6372942 L7.78447122,14.8728715 L6.89156627,14.8728715 L5.10575636,14.8728715 L4.21285141,14.8728715 L4.21285141,16.6372942 L5.10575636,16.6372942 L6.89156627,16.6372942 Z" id="Line-30"></path>
                    <path d="M27.5060241,1.11037455 L27.5060241,22.2834468 L0.718875502,22.2834468 L0.718875502,1.11037455 L27.5060241,1.11037455 Z M25.7202142,3.13684021 L2.50468541,3.13684021 L2.50468541,20.7810671 L25.7202142,20.7810671 L25.7202142,3.13684021 Z" id="Rectangle-158"></path>
                </g>
                <path d="M0,920.290701 C0,925.616777 2.67361657,929.934031 5.98375504,929.934031 L1154.01624,929.934031 C1157.32485,929.934031 1160,925.625413 1160,920.290701 L1160,66.1451425 L1160,62.9340314 L1.99655766,62.9340314 L0,66.1451425 L0,920.290701 Z" id="Mask" fill="#E6E6E6" sketch:type="MSShapeGroup"></path>
                <path d="M1.99655766,921.545885 C1.99655766,925.067021 3.77616857,927.921466 5.98375504,927.921466 L1154.01624,927.921466 C1156.21831,927.921466 1158.00344,925.081961 1158.00344,921.545885 L1158.00344,74.921466 L1.99655766,74.921466 L1.99655766,921.545885 Z" id="Path" fill="#FFFFFF" sketch:type="MSShapeGroup"></path>
                <path d="M1.99655766,67.8285664 L1.99655766,174.816754 L1158.00344,174.816754 L1158.00344,67.8285664 L1.99655766,67.8285664 Z" id="Rectangle-11" fill="#FAFAFA" sketch:type="MSShapeGroup"></path>
                <path d="M228.557623,98.5282166 L228.557623,146.476205 C228.557623,148.083001 230.361554,149.388921 232.568133,149.388921 L1032.93596,149.388921 C1035.14657,149.388921 1036.94647,148.079592 1036.94647,146.476205 L1036.94647,98.5282166 C1036.94647,96.9214206 1035.14253,95.6155003 1032.93596,95.6155003 L232.568133,95.6155003 C230.35752,95.6155003 228.557623,96.9248292 228.557623,98.5282166 Z" id="Rectangle-path" fill="#E6E6E6" sketch:type="MSShapeGroup"></path>
                <path d="M1032.93596,96.7844877 C1034.2591,96.7844877 1035.3425,97.5688002 1035.3425,98.5282166 L1035.3425,146.476205 C1035.3425,147.433487 1034.2614,148.219934 1032.93596,148.219934 L232.568133,148.219934 C231.244992,148.219934 230.161583,147.435621 230.161583,146.476205 L230.161583,98.5282166 C230.161583,97.5709348 231.24269,96.7844877 232.568133,96.7844877 L1032.93596,96.7844877 Z" id="Path" fill="#FFFFFF" sketch:type="MSShapeGroup"></path>
                <g id="Group" transform="translate(34.321004, 96.768163)" sketch:type="MSShapeGroup">
                    <path d="M157.507793,38.292281 C156.892962,38.6331969 156.276447,39.0247439 155.658248,39.3065902 C153.805334,40.1453783 151.901886,40.3749059 150.222472,40.3749059 C148.425145,40.3749059 145.623876,40.2601421 142.76702,38.1825804 C138.783255,35.3759312 137.046569,30.5474145 137.046569,26.3315337 C137.046569,17.622989 144.106171,13.3564772 149.887263,13.3564772 C151.900201,13.3564772 153.975465,13.862788 155.658248,14.9277282 C158.46457,16.7808255 159.19226,19.19424 159.581372,20.4887078 L146.410522,25.825223 L142.093233,26.1627635 C143.496394,33.3000572 148.315655,37.4518052 153.645309,37.4518052 C156.500481,37.4518052 158.575745,36.4425591 160.484246,35.4890073 L157.507793,38.292281 L157.507793,38.292281 Z M152.237095,21.5570235 C153.305047,21.1621011 153.865974,20.8245606 153.865974,20.0414667 C153.865974,17.7917593 151.346011,15.2028237 148.315655,15.2028237 C146.075314,15.2028237 141.867514,16.9445327 141.867514,23.0168861 C141.867514,23.970438 141.977005,24.9796841 142.037646,25.9889301 L152.237095,21.5570235 L152.237095,21.5570235 Z" id="Shape" fill="#EE3E34"></path>
                    <path d="M135.70068,39.5276792 L125.779168,39.5276792 C127.062732,37.8450399 127.291819,37.6745819 127.291819,36.5505721 L127.291819,27.3947863 C127.291819,23.0168861 127.342353,16.7774501 127.517538,10.9396873 C127.568072,8.07396855 127.793791,4.47916232 127.852747,1.89528986 L123.478186,1.89528986 L127.682616,-0.128265387 L135.698995,-0.128265387 C133.963994,0.880980682 133.399698,1.21683347 133.177348,3.18469454 C132.722542,7.51196363 132.672008,14.3640356 132.672008,22.3401174 L132.672008,35.320237 C132.672008,37.5091871 133.062804,37.8450399 134.912349,38.0154978 C135.867442,38.1218231 136.820851,38.1825804 137.772575,38.292281 L135.70068,39.5276792 L135.70068,39.5276792 Z" id="Shape" fill="#2FB357"></path>
                    <path d="M117.313036,16.1057445 C118.601653,17.1740602 121.291747,19.4187045 121.291747,23.6902794 C121.291747,27.8470905 118.936862,29.8098885 116.581977,31.6663612 C115.854287,32.3954486 115.013738,33.181918 115.013738,34.4173162 C115.013738,35.6510267 115.854287,36.3294831 116.465749,36.8324184 L118.48374,38.4087325 C120.9498,40.4862942 123.193511,42.393398 123.193511,46.2734259 C123.193511,51.5542469 118.094628,56.8907621 108.449369,56.8907621 C100.318446,56.8907621 96.3953216,53.0157973 96.3953216,48.8556107 C96.3953216,46.8320555 97.4076864,43.9663367 100.717664,42.001851 C104.191036,39.863532 108.902491,39.5833734 111.420769,39.4162909 C110.639176,38.4070448 109.74304,37.3387291 109.74304,35.5970202 C109.74304,34.6434683 110.022661,34.0814634 110.302283,33.4080701 C109.687452,33.4637643 109.067569,33.5177708 108.506641,33.5177708 C102.568894,33.5177708 99.198275,29.080801 99.198275,24.6978377 C99.198275,22.1122776 100.380771,19.2516219 102.789559,17.1740602 C105.986678,14.5361813 109.798627,14.0821893 112.825615,14.0821893 L124.372638,14.0821893 L120.789776,16.1057445 L117.313036,16.1057445 L117.313036,16.1057445 Z M113.329271,41.043236 C112.877833,40.9875419 112.598212,40.9875419 112.040653,40.9875419 C111.535313,40.9875419 108.504956,41.1023056 106.150071,41.8904627 C104.918726,42.3377038 101.330811,43.6828027 101.330811,47.6725313 C101.330811,51.6622599 105.203401,54.5246033 111.200104,54.5246033 C116.580292,54.5246033 119.442202,51.9441062 119.442202,48.4606883 C119.442202,45.5966573 117.594342,44.0811005 113.329271,41.043236 L113.329271,41.043236 Z M114.95815,30.3769565 C116.246768,29.0824887 116.359627,27.2850856 116.359627,26.2758395 C116.359627,22.2304168 113.945786,15.9403497 109.293287,15.9403497 C107.836223,15.9403497 106.2663,16.6694372 105.370163,17.793447 C104.418439,18.9680879 104.133764,20.4887078 104.133764,21.9502581 C104.133764,25.7138346 106.323571,31.9482075 111.142832,31.9482075 C112.542624,31.9482075 114.062014,31.2748142 114.95815,30.3769565 L114.95815,30.3769565 Z" id="Shape" fill="#0075BE"></path>
                    <path d="M82.549001,40.2567667 C73.6364849,40.2567667 68.8728115,33.2983695 68.8728115,27.004927 C68.8728115,19.6499197 74.8711993,13.3564772 83.3946035,13.3564772 C91.6333327,13.3564772 96.7878024,19.8119391 96.7878024,26.6083169 C96.7878024,33.2426753 91.6922891,40.2567667 82.549001,40.2567667 M89.5580691,35.7084086 C90.9056429,33.9160686 91.2408518,31.6646735 91.2408518,29.4740357 C91.2408518,24.5341306 88.8876511,15.0964985 81.9341704,15.0964985 C80.079572,15.0964985 78.2317114,15.8255859 76.8841377,17.0036022 C74.6993837,18.9664002 74.3085873,21.4456351 74.3085873,23.8590496 C74.3085873,29.4166538 77.0593223,38.5724396 83.8376184,38.5724396 C86.0257413,38.5741273 88.2660827,37.5091871 89.5580691,35.7084086" id="Shape" fill="#F4B400"></path>
                    <path d="M52.7255087,40.2567667 C43.8079392,40.2567667 39.0442659,33.2983695 39.0442659,27.004927 C39.0442659,19.6499197 45.0443381,13.3564772 53.5677423,13.3564772 C61.804787,13.3564772 66.9643102,19.8119391 66.9643102,26.6083169 C66.9643102,33.2426753 61.8637434,40.2567667 52.7255087,40.2567667 M59.7295234,35.7084086 C61.0821506,33.9160686 61.4123062,31.6646735 61.4123062,29.4740357 C61.4123062,24.5341306 59.0591055,15.0964985 52.1056247,15.0964985 C50.2594487,15.0964985 48.4082192,15.8255859 47.0606454,17.0036022 C44.8758914,18.9664002 44.4800416,21.4456351 44.4800416,23.8590496 C44.4800416,29.4166538 47.2307766,38.5724396 54.0141261,38.5724396 C56.1971956,38.5741273 58.4358526,37.5091871 59.7295234,35.7084086" id="Shape" fill="#EE3E34"></path>
                    <path d="M35.4782487,38.3007195 L27.9638404,40.0390531 C24.9149548,40.5116098 22.1827489,40.9335354 19.2938876,40.9335354 C4.78725586,40.9335354 -0.734427711,30.2453157 -0.734427711,21.8692484 C-0.734427711,11.6535855 7.0932915,2.17376076 20.4999662,2.17376076 C23.3399779,2.17376076 26.0721837,2.59906178 28.5399282,3.28089358 C32.4798971,4.38802639 34.3260732,5.75506538 35.4765643,6.54828553 L31.1154786,10.703409 L29.2794093,11.12871 L30.5916093,9.02076963 C28.8027051,7.27906069 25.5415766,4.07242603 19.3410527,4.07242603 C11.0349448,4.07242603 4.78220246,10.3928717 4.78220246,19.6077271 C4.78220246,29.5077897 11.926028,38.825595 23.3854585,38.825595 C26.7527085,38.825595 28.4860253,38.1488263 30.0643711,37.5091871 L30.0643711,29.0352331 L22.128846,29.4520956 L26.3315917,27.1871989 L37.4709735,27.1871989 L36.106555,28.5069822 C35.7410256,28.8175194 35.6854382,28.9289078 35.5826857,29.3508334 C35.5270983,29.8233901 35.4731953,31.34401 35.4731953,31.8756363 L35.4731953,38.3007195 L35.4782487,38.3007195 L35.4782487,38.3007195 Z" id="Shape" fill="#0075BE"></path>
                </g>
                <rect id="Rectangle-path-2" fill="#4387FC" sketch:type="MSShapeGroup" x="1026.96326" y="95.9887577" width="80.8605852" height="52.9445026" rx="2"></rect>
                <path d="M1079.21181,133.082031 L1072.91053,126.78704 C1074.03576,125.213292 1074.71089,123.302313 1074.71089,121.278923 C1074.71089,115.995627 1070.43503,111.724026 1065.14645,111.724026 C1059.85788,111.724026 1055.58201,115.995627 1055.58201,121.278923 C1055.58201,126.562219 1059.85788,130.83382 1065.14645,130.83382 C1067.17186,130.83382 1069.08475,130.159356 1070.66007,129.035251 L1076.96135,135.330242 C1077.52397,135.892295 1078.53667,135.892295 1079.21181,135.330242 L1079.21181,135.330242 C1079.88695,134.655779 1079.88695,133.756494 1079.21181,133.082031 L1079.21181,133.082031 Z M1065.14645,128.585609 C1061.09563,128.585609 1057.83246,125.325703 1057.83246,121.278923 C1057.83246,117.232143 1061.09563,113.972237 1065.14645,113.972237 C1069.19727,113.972237 1072.46044,117.232143 1072.46044,121.278923 C1072.46044,125.325703 1069.19727,128.585609 1065.14645,128.585609 L1065.14645,128.585609 Z" id="Shape" fill="#FFFFFF" sketch:type="MSShapeGroup"></path>
                <path d="M154.690376,34.4826746 L154.275539,34.926753 L154.708565,35.3516733 L164.323101,44.7862274 C164.559015,45.0177252 164.930883,45.0066861 165.15369,44.7615707 C165.376498,44.5164554 165.365873,44.1300841 165.129959,43.8985863 L155.515424,34.4640322 L155.533613,35.3330309 L166.109602,24.0115659 C166.335606,23.7696308 166.330054,23.3831449 166.097201,23.1483255 C165.864348,22.9135061 165.49237,22.9192745 165.266366,23.1612097 L154.690376,34.4826746 Z" id="Path-200" fill="#646464" sketch:type="MSShapeGroup"></path>
                <path d="M204.690376,34.4826746 L204.275539,34.926753 L204.708565,35.3516733 L214.323101,44.7862274 C214.559015,45.0177252 214.930883,45.0066861 215.15369,44.7615707 C215.376498,44.5164554 215.365873,44.1300841 215.129959,43.8985863 L205.515424,34.4640322 L205.533613,35.3330309 L216.109602,24.0115659 C216.335606,23.7696308 216.330054,23.3831449 216.097201,23.1483255 C215.864348,22.9135061 215.49237,22.9192745 215.266366,23.1612097 L204.690376,34.4826746 Z" id="Path-202" fill="#E0E0E0" sketch:type="MSShapeGroup" transform="translate(210.275539, 33.964398) scale(-1, 1) translate(-210.275539, -33.964398) "></path>
            </g>
            <g id="Rectangle-133-+-Path-202" sketch:type="MSLayerGroup" transform="translate(615.689082, 23.961538)" fill="#979797">
                <rect id="Rectangle-133" sketch:type="MSShapeGroup" x="0" y="7.61538462" width="15.2300227" height="11.4230769"></rect>
                <path d="M2.85562927,9.51923077 C3.80750569,9.27907716 3.82495807,8.8392555 3.87781668,8.26835455 C3.96591968,7.31679551 4.12422648,6.36690816 4.36770201,5.49035329 C5.01026209,3.17702362 6.07119131,1.90384615 7.61501137,1.90384615 C9.15883143,1.90384615 10.2197607,3.17702362 10.8623207,5.49035329 C11.1057963,6.36690816 11.2641031,7.31679551 11.3522061,8.26835455 C11.4050647,8.8392555 11.4225171,9.27907716 11.4225171,9.51923077 L12.3743935,9.51923077 L12.3743935,8.56730769 L2.85562927,8.56730769 L3.80750569,9.51923077 L2.85562927,9.51923077 Z M1.90375284,9.51923077 L1.90375284,10.4711538 L2.85562927,10.4711538 L12.3743935,10.4711538 L13.3262699,10.4711538 L13.3262699,9.51923077 L12.3743935,9.51923077 C13.3262699,9.22392765 13.3065396,8.72670003 13.2478502,8.09282334 C13.1500398,7.03641963 12.9737026,5.97834424 12.6966207,4.98080055 C11.8518739,1.93956291 10.2356507,0 7.61501137,0 C4.99437209,0 3.37814888,1.93956291 2.53340205,4.98080055 C2.25632016,5.97834424 2.0799829,7.03641963 1.98217254,8.09282334 C1.92348313,8.72670003 1.90375284,9.22392765 1.90375284,9.51923077 L2.85562927,9.51923077 L1.90375284,9.51923077 Z" id="Path-199" sketch:type="MSShapeGroup"></path>
            </g>
            <path d="M257.576172,134.525391 L257.576172,115.584961 L250.500977,115.584961 L250.500977,113.050781 L267.522461,113.050781 L267.522461,115.584961 L260.417969,115.584961 L260.417969,134.525391 L257.576172,134.525391 Z M279.182617,134.525391 L279.182617,132.240234 C277.971674,133.998056 276.326182,134.876953 274.246094,134.876953 C273.32812,134.876953 272.471195,134.701174 271.675293,134.349609 C270.879391,133.998045 270.288576,133.556155 269.902832,133.023926 C269.517088,132.491697 269.246095,131.839848 269.089844,131.068359 C268.982421,130.550779 268.928711,129.730474 268.928711,128.607422 L268.928711,118.96875 L271.56543,118.96875 L271.56543,127.59668 C271.56543,128.97364 271.61914,129.901365 271.726562,130.379883 C271.892579,131.073246 272.244138,131.617674 272.78125,132.013184 C273.318362,132.408693 273.982418,132.606445 274.773438,132.606445 C275.564457,132.606445 276.306637,132.403811 277,131.998535 C277.693363,131.59326 278.184081,131.041507 278.472168,130.343262 C278.760255,129.645016 278.904297,128.631843 278.904297,127.303711 L278.904297,118.96875 L281.541016,118.96875 L281.541016,134.525391 L279.182617,134.525391 Z M294.34375,134.525391 L294.34375,113.050781 L302.444336,113.050781 C303.870124,113.050781 304.958981,113.11914 305.710938,113.255859 C306.76563,113.431642 307.64941,113.766111 308.362305,114.259277 C309.075199,114.752444 309.648924,115.443355 310.083496,116.332031 C310.518069,117.220708 310.735352,118.19726 310.735352,119.261719 C310.735352,121.0879 310.154303,122.633294 308.992188,123.897949 C307.830072,125.162604 305.730484,125.794922 302.693359,125.794922 L297.185547,125.794922 L297.185547,134.525391 L294.34375,134.525391 Z M297.185547,123.260742 L302.737305,123.260742 C304.573251,123.260742 305.876949,122.918949 306.648438,122.235352 C307.419926,121.551754 307.805664,120.58985 307.805664,119.349609 C307.805664,118.451167 307.578616,117.682132 307.124512,117.04248 C306.670408,116.402829 306.072269,115.98047 305.330078,115.775391 C304.85156,115.648437 303.96778,115.584961 302.678711,115.584961 L297.185547,115.584961 L297.185547,123.260742 Z M313.987305,134.525391 L313.987305,118.96875 L316.360352,118.96875 L316.360352,121.327148 C316.965823,120.223627 317.5249,119.496096 318.037598,119.144531 C318.550296,118.792967 319.114255,118.617188 319.729492,118.617188 C320.618169,118.617188 321.52148,118.900388 322.439453,119.466797 L321.53125,121.913086 C320.886716,121.532225 320.242191,121.341797 319.597656,121.341797 C319.021481,121.341797 318.503909,121.515135 318.044922,121.861816 C317.585935,122.208498 317.25879,122.68945 317.063477,123.304688 C316.770506,124.242192 316.624023,125.267573 316.624023,126.380859 L316.624023,134.525391 L313.987305,134.525391 Z M323.025391,126.74707 C323.025391,123.866197 323.826164,121.732429 325.427734,120.345703 C326.765632,119.193354 328.396475,118.617188 330.320312,118.617188 C332.458995,118.617188 334.207024,119.317864 335.564453,120.719238 C336.921882,122.120612 337.600586,124.056628 337.600586,126.527344 C337.600586,128.529307 337.300296,130.103998 336.699707,131.251465 C336.099118,132.398932 335.225103,133.290036 334.077637,133.924805 C332.93017,134.559573 331.677741,134.876953 330.320312,134.876953 C328.142567,134.876953 326.382331,134.178718 325.039551,132.782227 C323.696771,131.385735 323.025391,129.374037 323.025391,126.74707 L323.025391,126.74707 Z M325.735352,126.74707 C325.735352,128.739268 326.169918,130.230952 327.039062,131.222168 C327.908207,132.213384 329.001947,132.708984 330.320312,132.708984 C331.628913,132.708984 332.717769,132.210942 333.586914,131.214844 C334.456059,130.218745 334.890625,128.700206 334.890625,126.65918 C334.890625,124.735342 334.453618,123.277837 333.57959,122.286621 C332.705562,121.295405 331.619147,120.799805 330.320312,120.799805 C329.001947,120.799805 327.908207,121.292964 327.039062,122.279297 C326.169918,123.26563 325.735352,124.754873 325.735352,126.74707 L325.735352,126.74707 Z M350.78418,134.525391 L350.78418,132.5625 C349.797847,134.105476 348.347666,134.876953 346.433594,134.876953 C345.193353,134.876953 344.053228,134.53516 343.013184,133.851562 C341.973139,133.167965 341.167483,132.213385 340.596191,130.987793 C340.024899,129.762201 339.739258,128.353524 339.739258,126.761719 C339.739258,125.208977 339.998044,123.800299 340.515625,122.535645 C341.033206,121.27099 341.809565,120.301761 342.844727,119.62793 C343.879888,118.954098 345.037103,118.617188 346.316406,118.617188 C347.253911,118.617188 348.088864,118.814939 348.821289,119.210449 C349.553715,119.605959 350.149412,120.121091 350.608398,120.755859 L350.608398,113.050781 L353.230469,113.050781 L353.230469,134.525391 L350.78418,134.525391 Z M342.449219,126.761719 C342.449219,128.753916 342.869136,130.243159 343.708984,131.229492 C344.548832,132.215825 345.540033,132.708984 346.682617,132.708984 C347.834967,132.708984 348.813961,132.237798 349.619629,131.29541 C350.425297,130.353023 350.828125,128.915049 350.828125,126.981445 C350.828125,124.852528 350.417973,123.290044 349.597656,122.293945 C348.77734,121.297847 347.766608,120.799805 346.56543,120.799805 C345.393549,120.799805 344.414555,121.278316 343.628418,122.235352 C342.842281,123.192388 342.449219,124.701162 342.449219,126.761719 L342.449219,126.761719 Z M367.571289,134.525391 L367.571289,132.240234 C366.360346,133.998056 364.714854,134.876953 362.634766,134.876953 C361.716792,134.876953 360.859867,134.701174 360.063965,134.349609 C359.268062,133.998045 358.677248,133.556155 358.291504,133.023926 C357.90576,132.491697 357.634766,131.839848 357.478516,131.068359 C357.371093,130.550779 357.317383,129.730474 357.317383,128.607422 L357.317383,118.96875 L359.954102,118.96875 L359.954102,127.59668 C359.954102,128.97364 360.007812,129.901365 360.115234,130.379883 C360.281251,131.073246 360.63281,131.617674 361.169922,132.013184 C361.707034,132.408693 362.37109,132.606445 363.162109,132.606445 C363.953129,132.606445 364.695309,132.403811 365.388672,131.998535 C366.082035,131.59326 366.572752,131.041507 366.86084,130.343262 C367.148927,129.645016 367.292969,128.631843 367.292969,127.303711 L367.292969,118.96875 L369.929688,118.96875 L369.929688,134.525391 L367.571289,134.525391 Z M384.211914,128.827148 L386.804688,129.164062 C386.521483,130.951181 385.796393,132.350093 384.629395,133.36084 C383.462397,134.371587 382.029305,134.876953 380.330078,134.876953 C378.201161,134.876953 376.489753,134.181159 375.195801,132.789551 C373.901849,131.397942 373.254883,129.403333 373.254883,126.805664 C373.254883,125.125968 373.5332,123.656256 374.089844,122.396484 C374.646487,121.136712 375.493647,120.191898 376.631348,119.562012 C377.769049,118.932126 379.006829,118.617188 380.344727,118.617188 C382.034188,118.617188 383.41601,119.044429 384.490234,119.898926 C385.564458,120.753422 386.252928,121.966789 386.555664,123.539062 L383.992188,123.93457 C383.748046,122.889643 383.315921,122.103518 382.695801,121.576172 C382.07568,121.048825 381.326176,120.785156 380.447266,120.785156 C379.119134,120.785156 378.040043,121.261226 377.209961,122.213379 C376.379879,123.165532 375.964844,124.671865 375.964844,126.732422 C375.964844,128.822276 376.36523,130.340816 377.166016,131.288086 C377.966801,132.235356 379.011712,132.708984 380.300781,132.708984 C381.335943,132.708984 382.200192,132.391605 382.893555,131.756836 C383.586918,131.122067 384.026366,130.145514 384.211914,128.827148 L384.211914,128.827148 Z M394.817383,132.166992 L395.198242,134.496094 C394.456051,134.652345 393.791995,134.730469 393.206055,134.730469 C392.249019,134.730469 391.506839,134.579103 390.979492,134.276367 C390.452146,133.973631 390.081056,133.575686 389.866211,133.08252 C389.651366,132.589353 389.543945,131.551766 389.543945,129.969727 L389.543945,121.019531 L387.610352,121.019531 L387.610352,118.96875 L389.543945,118.96875 L389.543945,115.116211 L392.166016,113.53418 L392.166016,118.96875 L394.817383,118.96875 L394.817383,121.019531 L392.166016,121.019531 L392.166016,130.116211 C392.166016,130.868168 392.212402,131.351561 392.305176,131.566406 C392.39795,131.781251 392.549315,131.952148 392.759277,132.079102 C392.969239,132.206055 393.269529,132.269531 393.660156,132.269531 C393.953126,132.269531 394.338865,132.235352 394.817383,132.166992 L394.817383,132.166992 Z M396.414062,126.74707 C396.414062,123.866197 397.214836,121.732429 398.816406,120.345703 C400.154304,119.193354 401.785147,118.617188 403.708984,118.617188 C405.847667,118.617188 407.595696,119.317864 408.953125,120.719238 C410.310554,122.120612 410.989258,124.056628 410.989258,126.527344 C410.989258,128.529307 410.688968,130.103998 410.088379,131.251465 C409.48779,132.398932 408.613775,133.290036 407.466309,133.924805 C406.318842,134.559573 405.066413,134.876953 403.708984,134.876953 C401.531239,134.876953 399.771003,134.178718 398.428223,132.782227 C397.085443,131.385735 396.414062,129.374037 396.414062,126.74707 L396.414062,126.74707 Z M399.124023,126.74707 C399.124023,128.739268 399.558589,130.230952 400.427734,131.222168 C401.296879,132.213384 402.390618,132.708984 403.708984,132.708984 C405.017585,132.708984 406.106441,132.210942 406.975586,131.214844 C407.844731,130.218745 408.279297,128.700206 408.279297,126.65918 C408.279297,124.735342 407.84229,123.277837 406.968262,122.286621 C406.094234,121.295405 405.007819,120.799805 403.708984,120.799805 C402.390618,120.799805 401.296879,121.292964 400.427734,122.279297 C399.558589,123.26563 399.124023,124.754873 399.124023,126.74707 L399.124023,126.74707 Z" id="Tu-Producto" fill="#000000" sketch:type="MSShapeGroup"></path>
            <path d="M641.929688,40.9101562 L643.638672,41.1640625 C643.710287,41.6914089 643.908853,42.0755196 644.234375,42.3164062 C644.670575,42.6419287 645.266272,42.8046875 646.021484,42.8046875 C646.835291,42.8046875 647.463539,42.6419287 647.90625,42.3164062 C648.348961,41.9908838 648.648437,41.5351592 648.804688,40.9492188 C648.895834,40.591144 648.938151,39.8391984 648.931641,38.6933594 C648.163408,39.5983118 647.206386,40.0507812 646.060547,40.0507812 C644.634758,40.0507812 643.531254,39.5364635 642.75,38.5078125 C641.968746,37.4791615 641.578125,36.2454499 641.578125,34.8066406 C641.578125,33.8170523 641.75716,32.9039755 642.115234,32.0673828 C642.473309,31.2307901 642.99251,30.5846377 643.672852,30.1289062 C644.353194,29.6731748 645.152339,29.4453125 646.070312,29.4453125 C647.294277,29.4453125 648.303381,29.9400992 649.097656,30.9296875 L649.097656,29.6796875 L650.71875,29.6796875 L650.71875,38.6445312 C650.71875,40.2591227 650.554364,41.4033169 650.225586,42.0771484 C649.896808,42.7509799 649.37598,43.2832012 648.663086,43.6738281 C647.950192,44.0644551 647.072922,44.2597656 646.03125,44.2597656 C644.794265,44.2597656 643.794926,43.9814481 643.033203,43.4248047 C642.271481,42.8681613 641.903646,42.0299535 641.929688,40.9101562 L641.929688,40.9101562 Z M643.384766,34.6796875 C643.384766,36.0403714 643.654945,37.0332 644.195312,37.6582031 C644.73568,38.2832062 645.412756,38.5957031 646.226562,38.5957031 C647.033858,38.5957031 647.710935,38.2848338 648.257812,37.6630859 C648.80469,37.041338 649.078125,36.0664129 649.078125,34.7382812 C649.078125,33.4687437 648.796552,32.511722 648.233398,31.8671875 C647.670245,31.222653 646.99154,30.9003906 646.197266,30.9003906 C645.416012,30.9003906 644.751956,31.2177703 644.205078,31.8525391 C643.6582,32.4873079 643.384766,33.4296813 643.384766,34.6796875 L643.384766,34.6796875 Z M652.720703,34.8652344 C652.720703,32.9446519 653.254552,31.52214 654.322266,30.5976562 C655.214197,29.8294232 656.301426,29.4453125 657.583984,29.4453125 C659.009773,29.4453125 660.175126,29.9124302 661.080078,30.8466797 C661.985031,31.7809292 662.4375,33.0716063 662.4375,34.71875 C662.4375,36.0533921 662.237307,37.1031863 661.836914,37.8681641 C661.436521,38.6331418 660.853845,39.2272114 660.088867,39.6503906 C659.323889,40.0735698 658.488937,40.2851562 657.583984,40.2851562 C656.132154,40.2851562 654.958663,39.8196661 654.063477,38.8886719 C653.16829,37.9576776 652.720703,36.6165452 652.720703,34.8652344 L652.720703,34.8652344 Z M654.527344,34.8652344 C654.527344,36.193366 654.817054,37.1878222 655.396484,37.8486328 C655.975914,38.5094434 656.705074,38.8398438 657.583984,38.8398438 C658.456385,38.8398438 659.182289,38.5078158 659.761719,37.84375 C660.341149,37.1796842 660.630859,36.1673245 660.630859,34.8066406 C660.630859,33.5240821 660.339521,32.5524122 659.756836,31.8916016 C659.174151,31.230791 658.449874,30.9003906 657.583984,30.9003906 C656.705074,30.9003906 655.975914,31.2291634 655.396484,31.8867188 C654.817054,32.5442741 654.527344,33.5371027 654.527344,34.8652344 L654.527344,34.8652344 Z M663.84375,34.8652344 C663.84375,32.9446519 664.377599,31.52214 665.445312,30.5976562 C666.337244,29.8294232 667.424473,29.4453125 668.707031,29.4453125 C670.13282,29.4453125 671.298173,29.9124302 672.203125,30.8466797 C673.108077,31.7809292 673.560547,33.0716063 673.560547,34.71875 C673.560547,36.0533921 673.360354,37.1031863 672.959961,37.8681641 C672.559568,38.6331418 671.976892,39.2272114 671.211914,39.6503906 C670.446936,40.0735698 669.611984,40.2851562 668.707031,40.2851562 C667.255201,40.2851562 666.08171,39.8196661 665.186523,38.8886719 C664.291337,37.9576776 663.84375,36.6165452 663.84375,34.8652344 L663.84375,34.8652344 Z M665.650391,34.8652344 C665.650391,36.193366 665.940101,37.1878222 666.519531,37.8486328 C667.098961,38.5094434 667.828121,38.8398438 668.707031,38.8398438 C669.579431,38.8398438 670.305336,38.5078158 670.884766,37.84375 C671.464196,37.1796842 671.753906,36.1673245 671.753906,34.8066406 C671.753906,33.5240821 671.462568,32.5524122 670.879883,31.8916016 C670.297198,31.230791 669.572921,30.9003906 668.707031,30.9003906 C667.828121,30.9003906 667.098961,31.2291634 666.519531,31.8867188 C665.940101,32.5442741 665.650391,33.5371027 665.650391,34.8652344 L665.650391,34.8652344 Z M675.298828,40.9101562 L677.007812,41.1640625 C677.079427,41.6914089 677.277993,42.0755196 677.603516,42.3164062 C678.039716,42.6419287 678.635413,42.8046875 679.390625,42.8046875 C680.204431,42.8046875 680.83268,42.6419287 681.275391,42.3164062 C681.718101,41.9908838 682.017577,41.5351592 682.173828,40.9492188 C682.264974,40.591144 682.307292,39.8391984 682.300781,38.6933594 C681.532548,39.5983118 680.575527,40.0507812 679.429688,40.0507812 C678.003899,40.0507812 676.900395,39.5364635 676.119141,38.5078125 C675.337887,37.4791615 674.947266,36.2454499 674.947266,34.8066406 C674.947266,33.8170523 675.1263,32.9039755 675.484375,32.0673828 C675.84245,31.2307901 676.36165,30.5846377 677.041992,30.1289062 C677.722334,29.6731748 678.52148,29.4453125 679.439453,29.4453125 C680.663418,29.4453125 681.672522,29.9400992 682.466797,30.9296875 L682.466797,29.6796875 L684.087891,29.6796875 L684.087891,38.6445312 C684.087891,40.2591227 683.923504,41.4033169 683.594727,42.0771484 C683.265949,42.7509799 682.745121,43.2832012 682.032227,43.6738281 C681.319332,44.0644551 680.442063,44.2597656 679.400391,44.2597656 C678.163405,44.2597656 677.164066,43.9814481 676.402344,43.4248047 C675.640621,42.8681613 675.272786,42.0299535 675.298828,40.9101562 L675.298828,40.9101562 Z M676.753906,34.6796875 C676.753906,36.0403714 677.024086,37.0332 677.564453,37.6582031 C678.10482,38.2832062 678.781897,38.5957031 679.595703,38.5957031 C680.402999,38.5957031 681.080075,38.2848338 681.626953,37.6630859 C682.173831,37.041338 682.447266,36.0664129 682.447266,34.7382812 C682.447266,33.4687437 682.165693,32.511722 681.602539,31.8671875 C681.039385,31.222653 680.360681,30.9003906 679.566406,30.9003906 C678.785152,30.9003906 678.121096,31.2177703 677.574219,31.8525391 C677.027341,32.4873079 676.753906,33.4296813 676.753906,34.6796875 L676.753906,34.6796875 Z M686.705078,40.0507812 L686.705078,25.734375 L688.462891,25.734375 L688.462891,40.0507812 L686.705078,40.0507812 Z M698.287109,36.7109375 L700.103516,36.9355469 C699.817056,37.9967501 699.286462,38.8203096 698.511719,39.40625 C697.736975,39.9921904 696.747402,40.2851562 695.542969,40.2851562 C694.026034,40.2851562 692.823247,39.8180385 691.93457,38.8837891 C691.045894,37.9495396 690.601562,36.6393313 690.601562,34.953125 C690.601562,33.2083246 691.050777,31.8541715 691.949219,30.890625 C692.847661,29.9270785 694.013014,29.4453125 695.445312,29.4453125 C696.832038,29.4453125 697.964839,29.917313 698.84375,30.8613281 C699.722661,31.8053433 700.162109,33.133455 700.162109,34.8457031 C700.162109,34.9498703 700.158854,35.1061188 700.152344,35.3144531 L692.417969,35.3144531 C692.483073,36.4537817 692.805336,37.3261688 693.384766,37.9316406 C693.964196,38.5371124 694.686845,38.8398438 695.552734,38.8398438 C696.197269,38.8398438 696.747394,38.6705746 697.203125,38.3320312 C697.658856,37.9934879 698.020181,37.4531287 698.287109,36.7109375 L698.287109,36.7109375 Z M692.515625,33.8691406 L698.306641,33.8691406 C698.228515,32.9967404 698.007163,32.3424501 697.642578,31.90625 C697.082679,31.2291633 696.356775,30.890625 695.464844,30.890625 C694.657548,30.890625 693.978844,31.1608046 693.428711,31.7011719 C692.878578,32.2415392 692.574219,32.9641882 692.515625,33.8691406 L692.515625,33.8691406 Z M702.808594,40.0507812 L702.808594,38.0488281 L704.810547,38.0488281 L704.810547,40.0507812 L702.808594,40.0507812 Z M714.634766,36.2519531 L716.363281,36.4765625 C716.174478,37.6679747 715.691085,38.6005826 714.913086,39.2744141 C714.135087,39.9482456 713.179693,40.2851562 712.046875,40.2851562 C710.627597,40.2851562 709.486658,39.8212937 708.624023,38.8935547 C707.761389,37.9658157 707.330078,36.6360764 707.330078,34.9042969 C707.330078,33.7844996 707.515623,32.8046917 707.886719,31.9648438 C708.257814,31.1249958 708.822587,30.4951193 709.581055,30.0751953 C710.339522,29.6552713 711.164709,29.4453125 712.056641,29.4453125 C713.182948,29.4453125 714.104163,29.7301404 714.820312,30.2998047 C715.536462,30.869469 715.995442,31.6783802 716.197266,32.7265625 L714.488281,32.9902344 C714.32552,32.2936163 714.037437,31.769533 713.624023,31.4179688 C713.21061,31.0664045 712.71094,30.890625 712.125,30.890625 C711.239579,30.890625 710.520185,31.2080046 709.966797,31.8427734 C709.413409,32.4775422 709.136719,33.481764 709.136719,34.8554688 C709.136719,36.2487049 709.403643,37.2610646 709.9375,37.8925781 C710.471357,38.5240917 711.167964,38.8398438 712.027344,38.8398438 C712.717451,38.8398438 713.293617,38.6282573 713.755859,38.2050781 C714.218101,37.7818989 714.511067,37.1308638 714.634766,36.2519531 L714.634766,36.2519531 Z M717.212891,34.8652344 C717.212891,32.9446519 717.746739,31.52214 718.814453,30.5976562 C719.706385,29.8294232 720.793613,29.4453125 722.076172,29.4453125 C723.50196,29.4453125 724.667313,29.9124302 725.572266,30.8466797 C726.477218,31.7809292 726.929688,33.0716063 726.929688,34.71875 C726.929688,36.0533921 726.729494,37.1031863 726.329102,37.8681641 C725.928709,38.6331418 725.346032,39.2272114 724.581055,39.6503906 C723.816077,40.0735698 722.981124,40.2851562 722.076172,40.2851562 C720.624342,40.2851562 719.450851,39.8196661 718.555664,38.8886719 C717.660477,37.9576776 717.212891,36.6165452 717.212891,34.8652344 L717.212891,34.8652344 Z M719.019531,34.8652344 C719.019531,36.193366 719.309242,37.1878222 719.888672,37.8486328 C720.468102,38.5094434 721.197261,38.8398438 722.076172,38.8398438 C722.948572,38.8398438 723.674476,38.5078158 724.253906,37.84375 C724.833336,37.1796842 725.123047,36.1673245 725.123047,34.8066406 C725.123047,33.5240821 724.831709,32.5524122 724.249023,31.8916016 C723.666338,31.230791 722.942062,30.9003906 722.076172,30.9003906 C721.197261,30.9003906 720.468102,31.2291634 719.888672,31.8867188 C719.309242,32.5442741 719.019531,33.5371027 719.019531,34.8652344 L719.019531,34.8652344 Z M728.990234,40.0507812 L728.990234,29.6796875 L730.5625,29.6796875 L730.5625,31.1347656 C730.888022,30.6269506 731.320961,30.218426 731.861328,29.9091797 C732.401695,29.5999333 733.016924,29.4453125 733.707031,29.4453125 C734.475264,29.4453125 735.105141,29.6048161 735.59668,29.9238281 C736.088219,30.2428401 736.434895,30.6887992 736.636719,31.2617188 C737.457035,30.0507752 738.524733,29.4453125 739.839844,29.4453125 C740.868495,29.4453125 741.659502,29.7301404 742.212891,30.2998047 C742.766279,30.869469 743.042969,31.7467389 743.042969,32.9316406 L743.042969,40.0507812 L741.294922,40.0507812 L741.294922,33.5175781 C741.294922,32.8144496 741.237956,32.3082698 741.124023,31.9990234 C741.010091,31.6897771 740.803387,31.4407562 740.503906,31.2519531 C740.204426,31.0631501 739.852867,30.96875 739.449219,30.96875 C738.720048,30.96875 738.114586,31.2112606 737.632812,31.6962891 C737.151039,32.1813175 736.910156,32.957677 736.910156,34.0253906 L736.910156,40.0507812 L735.152344,40.0507812 L735.152344,33.3125 C735.152344,32.5312461 735.009116,31.9453145 734.722656,31.5546875 C734.436196,31.1640605 733.967451,30.96875 733.316406,30.96875 C732.821612,30.96875 732.36426,31.098957 731.944336,31.359375 C731.524412,31.619793 731.220053,32.0006485 731.03125,32.5019531 C730.842447,33.0032577 730.748047,33.7259067 730.748047,34.6699219 L730.748047,40.0507812 L728.990234,40.0507812 Z M746.148438,40.0507812 L746.148438,38.0488281 L748.150391,38.0488281 L748.150391,40.0507812 L746.148438,40.0507812 Z M751.207031,40.0507812 L751.207031,29.6796875 L752.779297,29.6796875 L752.779297,31.1347656 C753.104819,30.6269506 753.537758,30.218426 754.078125,29.9091797 C754.618492,29.5999333 755.233721,29.4453125 755.923828,29.4453125 C756.692061,29.4453125 757.321938,29.6048161 757.813477,29.9238281 C758.305015,30.2428401 758.651692,30.6887992 758.853516,31.2617188 C759.673832,30.0507752 760.74153,29.4453125 762.056641,29.4453125 C763.085292,29.4453125 763.876299,29.7301404 764.429688,30.2998047 C764.983076,30.869469 765.259766,31.7467389 765.259766,32.9316406 L765.259766,40.0507812 L763.511719,40.0507812 L763.511719,33.5175781 C763.511719,32.8144496 763.454753,32.3082698 763.34082,31.9990234 C763.226887,31.6897771 763.020184,31.4407562 762.720703,31.2519531 C762.421222,31.0631501 762.069663,30.96875 761.666016,30.96875 C760.936845,30.96875 760.331383,31.2112606 759.849609,31.6962891 C759.367836,32.1813175 759.126953,32.957677 759.126953,34.0253906 L759.126953,40.0507812 L757.369141,40.0507812 L757.369141,33.3125 C757.369141,32.5312461 757.225913,31.9453145 756.939453,31.5546875 C756.652993,31.1640605 756.184248,30.96875 755.533203,30.96875 C755.038409,30.96875 754.581057,31.098957 754.161133,31.359375 C753.741209,31.619793 753.43685,32.0006485 753.248047,32.5019531 C753.059244,33.0032577 752.964844,33.7259067 752.964844,34.6699219 L752.964844,40.0507812 L751.207031,40.0507812 Z M766.695312,40.0507812 L770.484375,34.6601562 L766.978516,29.6796875 L769.175781,29.6796875 L770.767578,32.1113281 C771.067059,32.57357 771.307942,32.9609359 771.490234,33.2734375 C771.776694,32.8437479 772.040363,32.4628923 772.28125,32.1308594 L774.029297,29.6796875 L776.128906,29.6796875 L772.544922,34.5625 L776.402344,40.0507812 L774.244141,40.0507812 L772.115234,36.828125 L771.548828,35.9589844 L768.824219,40.0507812 L766.695312,40.0507812 Z" id="google.com.mx" fill="#000000" sketch:type="MSShapeGroup"></path>
        </g>
    </g>
</svg>