<?xml version="1.0" encoding="UTF-8" standalone="no"?>
<svg width="1074px" height="364px" viewBox="0 0 1074 364" version="1.1" xmlns="http://www.w3.org/2000/svg" xmlns:xlink="http://www.w3.org/1999/xlink" xmlns:sketch="http://www.bohemiancoding.com/sketch/ns">
    <!-- Generator: Sketch 3.2.2 (9983) - http://www.bohemiancoding.com/sketch -->
    <title>line_chart</title>
    <desc>Created with Sketch.</desc>
    <defs></defs>
    <g id="Page-1" stroke="none" stroke-width="1" fill="none" fill-rule="evenodd" sketch:type="MSPage">
        <g id="line_chart" sketch:type="MSArtboardGroup">
            <rect id="Rectangle-224" sketch:type="MSShapeGroup" x="0" y="0" width="1074" height="364"></rect>
            <path d="M723,55.2681544 C707.663096,59.290673 693.38667,63.4950261 680.269237,67.8841292 C628.994803,85.040594 581.428206,107.545338 506.058233,147.907912 C501.047974,150.591035 466.820533,169.012895 456.949062,174.277151 C438.338673,184.201697 423.3007,192.027583 409.001295,199.16689 C402.476955,202.424318 396.151318,205.513442 390,208.44153 L390,208.44153 L390,199.573269 C395.018735,197.160926 400.156998,194.640937 405.42775,192.009393 C419.653505,184.906857 434.632177,177.111832 453.18465,167.218171 C463.039649,161.962699 497.258495,143.545465 502.281494,140.855519 C578.023396,100.293768 625.915794,77.6348804 677.730763,60.2975524 C691.600282,55.6568007 706.726378,51.2260553 723,47 L723,55.2681544 L723,55.2681544 Z" id="Path-216" fill="#A2E494" sketch:type="MSShapeGroup"></path>
            <path d="M723,55.1774909 C748.278907,48.5474127 776.438814,42.4113238 807.0386,36.7561691 C855.863854,27.7327608 908.198183,20.4036868 960.535539,14.6361775 C978.855862,12.6173015 995.866775,10.9379838 1011.13091,9.58129008 C1016.47139,9.10662258 1021.21135,8.70623558 1025.29613,8.37800609 C1026.72455,8.26322664 1027.9687,8.16568894 1029.02175,8.08512739 C1032.49409,7.82898816 1034.15002,5.91267035 1033.98942,3.70937707 C1033.82881,1.50608378 1031.91249,-0.149842643 1029.7092,0.0107618794 C1027.34837,0.189769942 1026.09404,0.288105126 1024.65537,0.403708811 C1020.54844,0.733716862 1015.78602,1.13600198 1010.42266,1.6127035 C995.104404,2.97420698 978.037798,4.65902256 959.659254,6.68431451 C907.142704,12.4715708 854.623129,19.8265874 805.584738,28.8893855 C775.619317,34.427303 747.959917,40.4275595 723,46.9093365 L723,55.1774909 L723,55.1774909 Z" id="Path-217" fill="#64D24C" sketch:type="MSShapeGroup"></path>
            <path d="M389.500034,208.868261 C362.387419,221.774131 338.661296,231.55153 316.233628,238.822601 C294.182898,245.971467 269.587295,252.202741 242.88517,257.581998 C202.017541,265.814957 158.262086,271.689148 114.51115,275.602581 C99.2015459,276.971994 84.9842409,277.998714 72.2219961,278.731856 C67.7522284,278.988627 63.7825415,279.190387 60.3583108,279.343263 C59.1579337,279.396855 58.110959,279.440521 56.1337388,279.515336 C53.9258343,279.589179 52.0761125,277.859181 52.0022696,275.651276 C51.9284266,273.443372 53.6584253,271.59365 56.9123785,271.481064 C57.7850233,271.447149 58.8166264,271.404123 60.0015026,271.351224 C63.3922813,271.199841 67.3280053,270.999808 71.7631831,270.745024 C84.4436399,270.01658 98.5767738,268.995938 113.798412,267.634394 C157.279596,263.74509 200.75626,257.908327 241.305276,249.739554 C267.725032,244.417181 292.029672,238.259623 313.76644,231.212543 C336.763357,223.756921 361.236247,213.585486 389.500034,200 L389.500034,208.868261 L389.500034,208.868261 Z" id="Path-218" fill="#E0F6DB" sketch:type="MSShapeGroup"></path>
        </g>
    </g>
</svg>