<?xml version="1.0" encoding="UTF-8"?>
<svg width="164px" height="196px" viewBox="0 0 164 196" version="1.1" xmlns="http://www.w3.org/2000/svg" xmlns:xlink="http://www.w3.org/1999/xlink">
    <!-- Generator: Sketch 51.2 (57519) - http://www.bohemiancoding.com/sketch -->
    <title>stevie_gold_2018</title>
    <desc>Created with Sketch.</desc>
    <defs>
        <polygon id="path-1" points="0.0311578947 0.506037162 62.5650526 0.506037162 62.5650526 112.152101 0.0311578947 112.152101"></polygon>
    </defs>
    <g id="Page-1" stroke="none" stroke-width="1" fill="none" fill-rule="evenodd">
        <g id="stevie_gold_2018" transform="translate(1.000000, 1.000000)">
            <rect id="Rectangle" stroke="#FFFFFF" fill-opacity="0.82" fill="#FFFFFF" x="-0.5" y="-0.5" width="163" height="195" rx="3"></rect>
            <g id="Group" transform="translate(7.000000, 21.000000)">
                <g id="Group-4" transform="translate(0.000000, 7.236486)">
                    <mask id="mask-2" fill="white">
                        <use xlink:href="#path-1"></use>
                    </mask>
                    <g id="Clip-2"></g>
                    <polyline id="Fill-1" fill="#1A1919" mask="url(#mask-2)" points="61.9637053 100.174166 62.5650526 101.012564 61.9637053 100.174166"></polyline>
                    <path d="M61.9543579,100.052696 C62.0888561,98.4523986 62.4347088,96.4220473 61.232014,95.620348 C61.0279298,96.4933784 60.2780632,97.8972568 59.3064561,97.8972568 C58.1936,97.8972568 57.4333474,97.7458074 56.4207158,97.6543176 C54.6810667,97.4971824 55.1515509,97.3793311 54.1306105,96.6985845 C54.6680842,95.9025709 55.2138667,95.8462297 55.2138667,94.3033074 L55.2138667,94.0634696 C55.2138667,91.5580946 51.2381193,86.2801115 49.6646456,85.9177703 L49.5561123,87.9543243 L49.5561123,89.8709595 C49.5561123,93.1909561 50.3381754,96.8205709 53.5110877,96.834527 L53.7686596,97.1792939 C52.0949614,97.1792939 50.0400982,96.4773547 48.4250807,96.0286926 C47.4207579,95.7500878 46.8360281,95.4973277 45.9018105,95.1861588 C44.4810105,94.711652 44.7333895,95.0471149 44.0198737,93.7031959 C45.0309474,93.4695608 45.5845193,92.1819831 45.5845193,90.9497128 L45.5845193,90.23175 C45.5845193,88.2727297 43.0425544,82.7595608 41.8533614,82.4452905 C41.6144842,83.4651182 41.1102456,84.4053446 40.8604632,85.6489865 C40.6942877,86.4863514 40.5291509,88.0359932 40.5291509,89.270848 L40.5291509,89.7515574 C40.5291509,91.4479966 41.4493474,93.8251824 43.3868491,93.8386216 L43.6786947,94.3245 L43.5384842,94.4232264 C43.4917474,94.4692297 41.4072842,93.4261419 41.1310175,93.3449899 C40.3624561,93.1216926 39.4630316,92.512277 38.7235509,92.1483851 C37.4964491,91.5425878 34.8838596,90.494848 34.7504,88.9126419 C36.2428632,88.5673581 37.0384281,86.8740203 37.0384281,85.0793716 L37.0384281,84.6002128 C37.0384281,82.2199257 35.9048,79.0570642 35.1128702,77.413348 C34.2004632,77.6547365 31.9830596,83.1591182 31.9830596,84.8405676 L31.9830596,85.9177703 C31.9830596,87.1639966 32.9520702,88.6624662 34.0119579,88.9162601 L34.1693053,89.2925574 L34.0290947,89.3933514 C34.0270175,89.3938682 33.0860491,88.7234595 32.9785544,88.6417905 C32.5927158,88.3435439 32.2993123,88.1972635 31.9093193,87.9072872 C31.1142737,87.3206149 30.6100351,86.7773615 29.9053474,86.1881047 C28.8101474,85.2742399 26.6062456,83.9747736 26.5657404,82.2049358 C29.0069614,82.2049358 29.9365053,79.1976588 29.9365053,76.6943514 L30.0320561,75.8425135 L29.3346386,71.0643649 C28.4087298,71.3109223 26.0111298,74.9276149 25.4399018,75.9324527 C24.4407719,77.6883345 23.8726596,80.9830034 25.9482947,82.0870845 L26.1046035,82.5838176 L25.964393,82.6830608 C25.9415439,82.7063209 25.2830737,81.8916993 25.1942737,81.7728142 C24.9102175,81.3918649 24.6017544,81.2026824 24.3099088,80.8563649 C23.7251789,80.1611453 23.2863719,79.6669966 22.6824281,79.0022736 C22.0743298,78.3318649 19.9457263,75.6305878 19.9457263,74.6583142 L19.9457263,74.0582027 L20.7885474,74.0582027 C22.0655018,74.0582027 23.6280702,72.086777 23.9671719,70.8731149 C24.4532351,69.1234358 25.001614,67.6776892 25.001614,65.4333446 L25.001614,63.6361115 C24.0398737,63.8609595 21.7341895,66.1109899 20.9988632,66.8423919 C19.9774035,67.8586014 18.5015579,69.7194122 18.5015579,71.6629257 C18.5015579,73.0083953 18.9850246,73.1066047 19.4643368,73.8193986 L19.4643368,74.2975236 C18.8339088,73.8395574 14.8976281,66.4268108 14.9838316,65.6690473 L15.130793,64.5954628 C15.5623298,64.6957399 15.6968281,64.8353007 16.2140491,64.8353007 C18.2491789,64.8353007 19.7198316,62.7718682 20.4276351,61.3602365 C21.5784,59.0673041 21.7025123,58.2687061 22.353193,55.4909291 C19.9898667,56.0388345 14.2884912,59.5779932 14.2884912,62.07975 C14.2884912,62.3537027 14.3289965,62.2187939 14.4089684,62.5594257 L14.1472421,62.562527 L14.2884912,63.5167095 C13.9042105,63.0758007 12.9642807,59.9289628 12.9642807,58.9665101 C12.5062596,58.8135101 12.9144281,59.0114797 12.7788912,58.3188446 C12.7067088,57.9492669 12.6423158,57.838652 12.5540351,57.4582196 C12.4273263,56.916 12.2424561,56.165473 12.2424561,55.610848 C12.2424561,55.2624628 12.6194667,54.9207973 12.7233263,54.5336453 C13.2083509,54.644777 13.3246737,54.8918514 13.8071018,54.8918514 L14.5294456,54.8918514 C16.7551579,54.8918514 17.9651228,52.9586757 19.0722667,51.7470811 C19.4430456,51.3402872 22.1475509,47.1849932 21.5939789,46.9115574 C21.0424842,46.6396723 16.4202105,48.4524122 15.7809544,48.7098243 C14.4666105,49.2401554 12.1224982,51.197625 12.1224982,52.8563311 C12.1224982,53.2269426 12.2445333,53.6890439 12.3686456,53.9381858 L12.0009825,54.5336453 C11.9713825,53.1788716 11.5180351,51.4938041 11.5169965,49.9824122 C11.5164772,48.3257736 11.5201123,46.7900878 11.5097263,45.1810034 L12.1224982,44.2309561 C12.7788912,44.2841959 12.9533754,44.8300338 13.9275789,44.8300338 L14.6499228,44.8300338 C16.6232561,44.8300338 18.2252912,43.3667128 19.2535018,42.3432669 C19.9249544,41.6759595 22.2747789,39.1819561 22.353193,38.2401791 L21.8718035,38.2401791 C19.2270175,38.2401791 17.3300211,38.7188209 15.3260491,39.3918142 C13.9800281,39.8451284 11.1778947,41.6744088 12.101207,43.609652 L11.5408842,44.1332635 L11.4224842,44.0950135 L12.8697684,34.7919932 L14.0475368,33.6879122 C14.8015579,34.190848 15.2253053,34.7661486 16.5749614,34.7661486 L16.6959579,34.7661486 C19.2737544,34.7661486 24.6090246,30.9571723 25.0052491,29.4509493 L22.2327158,29.2560811 L19.3438596,29.2560811 C16.8003368,29.2560811 14.9344982,30.2381757 13.9504281,32.1284493 L14.0143018,33.0412804 L13.3049404,33.5891858 L13.2052351,33.449625 C13.1533053,33.3974189 14.7859789,28.644598 14.9370947,28.1059966 C15.5109193,26.0585878 16.2166456,24.9069527 17.779214,23.8648986 C18.0154947,24.8718041 19.3085474,25.4222939 20.547593,25.4222939 L21.5108912,25.4222939 C23.3102596,25.4222939 28.9316632,22.7628851 29.2146807,21.7084257 C26.502386,21.080402 25.6128281,20.3913851 22.1127579,20.3913851 L21.9922807,20.3913851 C20.2406877,20.3913851 17.6587368,21.2881926 17.6421193,23.2389426 L16.8164351,23.6255777 C17.4956772,22.3493716 18.341614,20.5087196 19.1761263,19.3849966 C19.6975018,18.6820236 19.8190175,18.0240203 20.5948491,17.5629527 C21.366007,17.1039527 22.0369404,16.8191453 22.8345825,16.4376791 C25.0623719,20.6286385 33.9480842,15.4809122 34.2742035,14.2656993 L30.9439439,13.2929088 L30.8847439,13.4614155 L30.5383719,13.2040034 C30.34,13.2960101 26.9448281,12.8509662 25.5276632,13.2546588 C24.1577544,13.6443953 22.8735298,14.2217635 22.816407,15.9001115 L21.2502035,16.4588716 L21.115186,16.289848 L25.6034807,10.9286453 C25.8953263,10.9963581 26.3855439,11.1669324 26.6872561,11.1669324 C30.3607719,11.1669324 33.186793,4.09275 33.186793,0.506037162 C30.3057263,2.02363176 24.5202246,4.71508784 24.5202246,8.77165541 C24.5202246,9.53975676 24.7372912,9.95171959 25.001614,10.4489696 C24.5820211,11.0728581 23.9541895,11.4227939 23.4847439,12.053402 C23.0594386,12.6250845 22.4913263,13.2887736 22.0213614,13.832027 C21.3203088,14.6435473 19.8543298,16.9364797 19.2244211,17.3965135 C19.1610667,17.1282466 19.1029053,17.1210101 19.1029053,16.7979527 L19.1029053,16.3193108 C19.1029053,16.079473 21.1489404,15.1123682 21.1489404,12.2456858 C21.1489404,11.0134155 20.3310456,8.26665203 19.9057404,7.37449662 C19.4778386,6.47665541 17.9209825,3.90925338 17.779214,3.38150676 C16.8460351,4.06173649 15.6573614,8.70239189 15.6090667,10.2060304 C15.520786,12.9781216 15.7342175,15.969375 18.5015579,16.1993919 L18.5015579,17.8761892 C18.5015579,19.2707635 16.7894316,21.3543547 16.2602667,22.5938615 C15.8520982,23.5506284 14.1082947,26.6095946 13.9447158,27.3699426 L13.4461895,25.7820507 C14.552814,25.5251554 15.0113544,24.154875 15.0113544,22.7882128 L15.0113544,22.6672601 C15.0113544,19.7380338 11.8586947,14.711777 9.86199298,13.4298851 L8.98593684,19.0547027 L9.11264561,19.0748615 L9.11264561,20.1515473 C9.11264561,22.8331824 10.4389333,25.9655473 13.0001123,26.0162027 L13.3257123,28.8973581 C13.3698526,29.2136959 10.7972491,36.0315 10.7972491,38.0003412 L10.5661614,37.9977568 L10.1959018,36.8037365 C10.7068912,36.6181723 11.0392421,35.8123378 11.0392421,35.1264223 L11.0392421,34.2880236 C11.0392421,32.3217669 9.17444211,30.2159493 8.11974737,29.165625 C7.76039298,28.8084527 3.69584561,24.9989595 3.69584561,26.1418074 L3.69584561,26.8608041 C3.69584561,29.8081216 4.30809825,31.1277466 4.85180351,33.377777 C5.21219649,34.8669426 6.97313684,37.2818615 8.63073684,37.2818615 L8.75173333,37.2818615 C9.16665263,37.2818615 9.21754386,37.1945068 9.59403509,37.1619426 C10.6565193,39.1607635 10.3418246,40.1981655 10.0847719,42.5624291 C9.8578386,44.6470541 9.83447018,46.7228919 9.83447018,49.0225439 C9.68958596,48.9155473 9.11264561,48.1257365 9.11264561,47.9448243 C9.11264561,47.7246284 9.59403509,47.2046351 9.59403509,46.3858784 C9.59403509,42.8110541 3.36661053,39.0646216 0.325080702,38.360098 C0.486063158,40.27725 1.78898246,43.1775304 2.53365614,44.6687635 C3.32454737,46.2514865 4.98837895,48.6633041 7.18656842,48.6633041 C7.87671579,48.6633041 8.04756491,48.4725709 8.63073684,48.4239831 C8.76315789,48.9155473 9.55041404,50.0511588 9.87445614,50.7784257 C10.1034667,51.2942838 10.2343298,53.2098851 10.320014,53.9299155 C10.5853754,56.1732264 10.8860491,57.7264865 11.3705544,59.9511892 L10.556814,59.0848784 C11.2277474,56.2223311 9.16561404,54.8024291 7.18604912,53.8146486 C5.69566316,53.0708412 2.22778947,51.8969797 0.0851649123,51.8969797 C-0.708842105,51.8969797 4.21566316,60.1631149 7.5485193,60.1631149 C7.82322807,60.1631149 7.68821053,60.1222804 8.02938947,60.0426791 L8.02938947,60.2830338 C9.2056,60.2830338 9.51406316,60.0183851 10.1959018,59.5645541 C10.6445754,60.2313446 11.5232281,60.9860068 11.8841404,61.7174088 C12.0570667,62.0668277 12.6698386,64.1302601 12.8287439,64.6109696 C13.1439579,65.5625676 13.6850667,66.4645439 13.9296561,67.3479122 C14.2220211,68.405473 14.942807,69.3012466 15.1287158,70.1101824 L14.168014,69.6253378 C14.168014,67.0620709 12.3598175,65.8530608 10.3625965,65.2684561 C7.88138947,64.542223 6.02334035,64.7153818 3.09397895,64.7153818 L2.25167719,64.7153818 C2.6333614,66.3451419 8.23295439,71.1842838 10.556814,71.1842838 L11.6400702,71.1842838 C12.8464,71.1842838 13.4072421,70.8788007 13.9275789,70.1050135 C15.9959439,71.4840811 16.4254035,72.5302703 17.660814,74.6562466 C18.214386,75.6109459 20.4198456,78.9164696 21.1697123,79.4695439 L21.0487158,79.4907365 L19.9457263,79.2095473 C19.600393,78.9588547 19.635186,77.7115946 18.1671298,76.7879088 C17.3523509,76.2767027 16.0681263,75.8564696 14.7698807,75.8564696 L13.8071018,75.8564696 C11.9859228,75.8564696 8.28072982,76.7145101 7.06609123,77.2929122 C7.37818947,78.4564358 13.6544281,81.6053412 15.7331789,81.6053412 L17.0573895,81.6053412 C17.2240842,81.1029223 17.0070175,81.6053412 17.7065123,81.4228784 C17.9677193,81.3546486 18.2818947,81.1298007 18.4979228,81.0026453 C19.2249404,80.578277 19.1922246,80.5467466 19.584814,79.8081081 C22.5198877,80.4883378 22.6746386,81.6311858 24.4288281,83.3725946 C25.9296,84.8617601 27.2704281,86.1064358 28.8490947,87.5051453 L27.4085614,87.3557635 C27.2880842,85.9146689 25.0000561,84.9604865 23.3159719,84.9604865 C21.5129684,84.9604865 19.9317053,85.5771385 18.5851649,86.1209088 C17.7605193,86.4537872 17.1996772,86.6264291 16.4550035,86.9965236 C15.9092211,87.2668581 14.9604632,87.9600101 14.5294456,88.0742432 L14.5294456,88.3140811 C15.3987509,88.5146351 16.9353544,89.2858378 18.0933895,89.6776419 C19.2270175,90.0632432 20.9381053,90.5899561 22.353193,90.5899561 L23.3159719,90.5899561 C25.0888561,90.5899561 27.1551439,89.5510034 27.2880842,87.9543243 C30.0922947,87.9543243 31.1776281,89.4171284 32.8736561,90.5413682 C34.2425263,91.451098 36.9818246,92.8224122 38.0006877,93.6835541 L36.5565193,93.8251824 C36.3462035,92.9247568 34.9877193,92.1483851 33.9086175,92.1483851 L32.9458386,92.1483851 C30.7497263,92.1483851 24.5113965,95.9832061 24.1473684,97.389152 L30.0569825,98.0166588 L30.5383719,98.0166588 C33.3062316,98.0166588 36.6775158,97.112098 36.6775158,94.3033074 L38.2421614,94.3033074 C39.6333614,94.3033074 42.0937965,95.4947432 43.0119158,95.897402 C43.8500632,96.2628446 47.1626667,97.6388108 48.0158737,97.7323682 L47.0286877,98.0166588 C44.9951158,96.6618851 45.934007,97.2775034 43.3551719,97.212375 C42.5133895,97.1901486 40.694807,98.3557399 40.1344842,98.823527 C39.1727439,99.6262601 35.5734877,102.929199 35.4732632,104.126321 L36.5565193,104.126321 C40.8734456,104.126321 47.1491649,103.09047 47.1491649,99.0959291 L47.1502035,98.5015034 L49.797586,98.2570135 C50.1543439,98.2172128 53.4653895,98.9951351 53.6268912,99.1176385 C54.7402667,99.9679257 54.0018246,101.646791 53.4913544,102.530676 C53.0000982,103.379929 51.9843509,104.328943 51.3424982,105.184916 C50.285207,106.596547 50.3771228,106.657024 49.6267368,108.20253 L49.5561123,109.51802 L49.5561123,109.636905 C49.5561123,110.349699 49.5779228,111.965503 50.2789754,112.152101 C50.2478175,111.777872 50.1584982,111.726182 50.1584982,111.31422 L50.1584982,111.074382 C50.1584982,106.160291 56.7785123,103.965568 56.7785123,101.491206 L56.7785123,101.012564 C56.7785123,100.58923 56.2560982,99.8697162 56.0488982,99.6205743 L58.3436772,99.9338108 C59.6798316,99.9338108 60.216786,99.7601351 60.7516632,100.651257 C61.0492211,101.143338 61.5456702,102.478986 61.8266105,102.80773 L61.9543579,100.052696" id="Fill-3" fill="#C69C33" mask="url(#mask-2)"></path>
                </g>
                <path d="M125.683158,21.137777 C125.27447,20.6224358 122.991635,18.0477973 122.532056,17.924777 C122.918414,16.481098 123.507818,16.1823345 122.691481,14.2920608 C122.198147,13.1512804 121.579663,12.3469966 120.695298,11.6073243 C118.86633,10.0783581 117.222232,9.19343919 115.00327,8.04593919 C114.089305,7.57298311 114.149025,7.70168919 114.414905,8.87193243 C114.564982,9.53665541 114.721291,10.0349392 114.900968,10.6660642 C115.294596,12.0601216 115.668491,12.9186791 116.134302,14.1080473 C116.84626,15.9254392 118.629011,18.4034189 121.085291,18.4034189 C121.205249,18.4034189 121.868912,18.2059662 122.050147,18.1651318 L126.537404,23.6462534 C126.400309,23.6658953 124.828912,23.1340135 124.795677,23.098348 C124.685586,22.9799797 124.68247,22.0676655 124.112281,21.5037365 C123.175986,20.5733311 122.370554,20.4957973 120.735804,20.31075 C119.786526,20.2032365 117.623649,20.3655405 116.827046,20.5040676 C115.649277,20.7113412 114.087228,21.4510135 113.263621,21.5192432 C113.460435,22.2542635 117.574316,24.3445743 118.541249,24.7710101 C119.425614,25.1591959 121.054133,25.4062703 122.171144,25.2325946 C124.436842,24.8811081 123.746695,24.4546723 124.818007,23.6746824 C126.831326,25.0165338 127.121614,24.0892297 128.428168,26.6711047 C128.763635,27.334277 129.242947,28.0315642 129.633979,28.7035236 C130.065516,29.4431959 130.319453,30.1151554 130.716196,30.8620642 L129.889474,30.4738784 C129.837544,28.9325068 127.728674,27.4076757 126.261656,27.7483074 C126.046667,27.6025439 126.05134,27.5084696 125.781825,27.5084696 L125.541389,27.5084696 C122.217881,27.5084696 120.863551,28.3830507 118.439467,28.9449122 C118.737544,30.0572635 124.404646,32.6587804 126.02226,32.6587804 L127.225993,32.6587804 C128.926175,32.6587804 129.21906,31.5805439 129.874414,31.1013851 C131.970821,32.5000946 131.636912,33.043348 132.625137,35.3125034 C133.066021,36.323027 134.106695,39.4946757 134.206919,40.6861115 L133.619074,40.3061959 C133.604533,37.4999899 130.567158,36.3726486 127.707902,36.3726486 L126.142737,36.3726486 L122.527902,36.7013919 C122.73614,37.4999899 125.301993,39.5184527 126.071593,40.0368953 C127.310119,40.8706419 128.976547,42.0026351 130.95767,42.0026351 C131.809319,42.0026351 133.193768,41.5653446 133.365137,40.9243986 C135.050779,42.0491554 134.66546,42.4575 135.196182,44.6129392 C135.548267,46.0395608 135.771046,47.8817635 135.771046,49.3104527 L135.771046,49.5508074 C135.771046,49.8185574 135.868674,49.8128716 136.012519,50.0289324 L135.868674,51.1061351 L135.545151,50.8502736 C135.594484,50.5990642 135.652646,50.5918277 135.652646,50.2687703 C135.652646,46.7213412 129.618919,45.4761486 125.781825,45.4761486 L125.541389,45.4761486 C125.309263,45.4761486 125.325881,45.5149155 125.179439,45.5965845 C125.306147,46.0705743 127.816435,49.1677905 128.274975,49.5844054 C129.272028,50.4863818 131.011158,52.0660034 132.762751,52.0660034 L133.726568,52.0660034 C134.622877,52.0660034 134.818653,51.6240608 135.411172,51.4674426 C135.530611,51.9176554 136.012519,52.1916081 136.012519,52.5446453 L136.012519,56.1380777 L135.581502,61.5344291 L135.150484,61.0650912 C135.261095,60.8614358 135.289137,60.8779764 135.289137,60.5704257 L135.289137,59.9723818 C135.289137,56.7945304 129.009263,54.3599696 125.901263,54.1030743 C125.922554,55.0443345 127.968589,58.2769764 128.499832,59.0631689 C128.903846,59.6632804 129.725375,60.5559527 130.305432,60.9798041 C131.340912,61.7391182 132.158288,61.807348 132.643312,62.1283378 C133.386428,61.659 133.481979,62.5356486 134.808786,61.6491791 C135.481277,62.9134966 135.510358,62.514973 135.180084,64.1752297 C135.014428,65.0001892 134.793207,66.0081284 134.552253,66.7860507 C134.291565,67.6327196 134.117081,68.5951723 133.92494,69.2650642 C133.726568,69.9664865 133.164688,71.2106453 133.124182,71.7125473 C132.615789,71.340902 133.24466,71.3471047 133.24466,70.3949899 L133.24466,69.5560743 C133.24466,67.8286216 131.500337,66.1192601 130.212996,65.2669054 C129.225291,64.6156216 126.460547,62.8344122 125.179439,62.7274155 L125.179439,63.0866554 L125.419874,63.0866554 C125.07506,63.8030676 126.78407,68.0296926 127.183411,68.759027 C127.955088,70.1577365 129.487018,72.0717872 131.560056,72.0717872 C131.910063,72.0717872 132.183733,71.9110338 132.522316,71.8324662 C132.183733,72.5313041 132.721207,72.4992568 132.388856,73.3784899 C132.193081,73.8896959 132.241375,73.9367331 131.994189,74.5394291 C131.624968,75.4326182 131.221993,76.0973412 130.797207,76.9429764 C130.161067,78.2041926 128.990049,80.6170439 128.187733,81.5340101 L128.187733,80.9354493 C128.546568,80.6971622 129.031593,80.0608682 129.031593,79.4995236 L129.031593,78.3008514 C129.031593,76.0720135 124.106049,71.0044054 122.532056,70.872598 C122.532056,73.0419932 122.881544,75.9153953 123.301137,77.4154155 C123.72073,78.9200878 125.199691,81.2946892 126.985558,81.2946892 L127.707902,81.2946892 C127.707902,83.2170101 125.91113,84.8038682 124.986779,86.0144291 C124.404646,86.7799459 122.176856,89.5137872 121.568758,89.9200642 C121.656,88.8826622 123.012926,88.9689831 123.012926,86.8052736 L123.012926,86.3266318 C123.012926,84.1158851 119.557516,78.4119831 118.197993,78.3008514 L117.64494,82.2452534 L117.716604,84.2895608 L118.05207,86.7902838 C118.636281,87.3020068 118.831018,89.4414223 121.085291,89.4414223 C120.931579,91.3022331 118.856982,92.4853986 117.688561,93.4850676 C116.75746,94.2805642 114.503186,96.1026081 113.505095,96.6298378 C113.718007,95.7071858 115.550091,95.73975 115.550091,92.9144189 L115.550091,92.4373277 C115.550091,90.8685608 115.061951,89.3737095 114.571214,88.2582568 C114.302218,87.6488412 113.987004,86.9898041 113.728912,86.3416216 C113.540926,85.8629797 112.878302,85.0126926 112.781193,84.6498345 C111.824126,84.9036284 110.614681,89.9412568 110.614681,91.3585743 L110.614681,92.4373277 C110.614681,94.2330101 111.485025,96.1579155 113.022667,96.0307601 C112.282147,97.4196486 112.693951,97.1736081 111.288211,98.0182095 C110.435004,98.5294155 109.773937,98.8943412 108.928,99.3802196 C108.198386,99.7963176 104.622498,101.486554 103.874709,101.659713 L104.238737,101.06477 C106.201684,101.061669 107.123439,98.4301723 107.123439,96.3889662 C107.123439,93.8267331 106.268674,91.6800811 105.799747,89.681777 L105.438835,89.681777 C105.230077,90.4576318 103.721516,92.0615473 103.288421,93.1713142 C102.698498,94.6811554 102.069628,95.4492568 102.069628,97.2278818 L102.069628,97.8264426 C102.069628,99.005473 101.805825,98.5924764 102.3272,99.7260203 C102.536996,100.182953 102.962302,100.794436 103.512758,100.939682 C103.419284,102.06599 102.468968,102.205034 101.848407,102.389564 C101.003509,102.63974 100.212618,102.961247 99.3157895,103.232615 C98.2263018,103.562909 95.0466386,104.41578 93.762414,104.41578 L94.0220632,104.071014 C97.1170807,104.057057 98.0954386,100.484301 98.0954386,97.3478007 L98.0954386,95.7909223 L97.8825263,93.1527061 C97.1586246,93.3403378 95.0414456,95.8617365 94.5081263,96.5305946 C93.530807,97.7597635 92.4392421,99.0375203 92.4392421,101.180037 L92.4392421,101.659713 C92.4392421,102.493976 92.7492632,103.522591 93.4025404,103.695233 C93.288814,105.058794 90.7167298,104.816372 89.3577263,105.061895 C87.6050947,105.378233 86.5358596,104.220912 86.4210947,102.856834 C84.9094175,103.259493 85.6987509,107.051929 85.6987509,108.727693 L85.6987509,109.806446 C85.6987509,110.128986 85.6411088,110.135706 85.5782737,110.405524 C86.6345263,109.699966 86.4164211,108.0945 87.6243088,107.289182 L91.3710456,106.947 L91.3554667,106.812091 C91.2147368,107.413236 90.8745965,107.598284 90.8745965,108.367419 L90.8745965,108.60674 C90.8745965,110.124851 93.6845193,112.226534 94.695593,113.070618 C95.6666807,113.881622 97.7942456,116.565841 97.4940912,118.431821 L97.344014,119.383936 L97.6150877,119.388588 C97.6789614,118.630307 97.9765193,118.176476 97.9765193,117.231598 L97.9765193,116.034993 C97.9765193,113.015828 93.4025404,110.2365 93.4025404,107.889294 C93.4025404,107.204412 93.708407,106.974912 93.762414,106.332416 C94.4426947,106.17373 97.4182737,105.428372 97.9765193,105.4935 L100.385025,105.730236 L100.385025,106.572253 C100.385025,110.2365 106.955705,111.362807 111.096589,111.362807 L112.059888,111.362807 C111.629389,109.526807 106.173123,104.295345 103.633235,104.295345 L102.429502,104.295345 C101.712351,104.295345 101.073614,104.954382 100.624421,105.253662 L99.6642386,105.006071 C99.9711439,104.800348 103.718919,103.518973 104.425684,103.285855 C105.934765,102.789122 107.46306,101.539794 109.171551,101.539794 L110.614681,101.539794 C111.01506,101.539794 111.105418,102.701767 111.52553,103.268797 C111.772716,103.602709 112.58334,104.258645 112.94633,104.489696 C113.55287,104.875297 115.821684,105.253662 117.114737,105.253662 L117.716604,105.253662 L123.388898,104.663889 L123.374877,104.534149 C123.15054,103.702986 120.362428,101.789453 119.526877,101.297372 C118.351186,100.606804 116.254779,99.3848716 114.466835,99.3848716 L113.865488,99.3848716 C112.378218,99.3848716 111.498007,100.078541 110.975593,101.061669 L109.409909,101.044611 C109.429123,101.035824 114.361418,97.9499797 114.604449,97.8424662 C114.974709,97.6827466 116.576225,96.4018885 117.024898,96.0607399 C117.577432,95.6405068 119.279172,95.1908108 120.242989,95.1908108 C120.275186,96.5910709 122.568407,97.8264426 124.097221,97.8264426 L125.059481,97.8264426 C126.477684,97.8264426 128.312884,97.3705439 129.377446,96.9740878 C130.202091,96.6655034 132.367046,95.7201081 133.003186,95.5505676 C132.713937,94.472848 126.46626,92.196973 124.458133,92.196973 L124.21666,92.196973 C122.484281,92.196973 120.373853,93.0539797 120.242989,94.59225 L118.802456,94.7411149 C120.304786,93.411152 121.834119,92.0615473 123.227396,90.6116655 C124.47527,89.309098 125.686274,87.0993851 128.067775,87.0445946 C128.339888,88.0577027 129.763804,88.8418277 131.078147,88.8418277 L132.040926,88.8418277 C133.587396,88.8418277 135.546189,87.7206892 136.773291,87.2027635 C137.943789,86.7117162 139.880772,84.9568682 140.588056,84.7692365 L140.588056,84.5293986 C138.330667,84.0073378 136.607116,83.0929561 133.604533,83.0929561 L132.883747,83.0929561 C130.714639,83.0929561 127.948337,84.2585473 127.948337,86.3266318 L126.625165,86.6925912 C126.640744,86.6233277 129.740954,82.146527 129.947116,81.8477635 C131.378302,79.7869155 131.26094,78.6409662 133.726568,77.3420169 C134.109811,78.0625642 134.929263,78.4207703 136.012519,78.4207703 L136.373432,78.4207703 C138.623032,78.4207703 140.251032,77.1657568 141.639635,75.9934459 C142.344323,75.3974696 145.205656,72.6786182 145.400393,71.9523851 L144.557572,71.9523851 C141.91746,71.9523851 139.522975,71.7626858 137.382947,72.4749628 C135.605909,73.0678378 133.365137,74.2933885 133.365137,76.5036182 C133.365137,76.5361824 133.447705,76.7227804 133.486133,76.8618243 L132.528547,77.3533885 C132.888421,75.7789358 134.22146,73.5366588 134.793207,71.8174764 C135.117768,70.8457196 135.303677,69.7623142 135.7752,68.9580304 C136.289305,68.0772466 136.971144,67.5231385 137.455649,66.8010405 C137.969235,67.1411554 138.392982,67.5195203 139.262288,67.5195203 C140.533011,67.5195203 141.498386,66.8687534 142.294989,66.3451419 C142.863621,65.9719459 142.904646,65.8199797 143.54494,65.4317939 C143.616604,65.3894088 144.224182,64.5566959 144.467214,64.3132399 C145.381179,63.4097128 147.370091,60.4944426 147.688421,59.1334662 C143.809263,59.1334662 136.85534,61.4796385 136.85534,65.4829662 C136.85534,66.0024426 137.095775,65.9657432 137.095775,66.3213649 C137.095775,66.4919392 136.406147,67.0594865 136.253993,67.1597635 C136.344351,66.0727399 136.823144,65.3216959 136.85534,64.1648919 C136.883902,63.165223 137.212618,62.0626926 137.333095,61.0480338 C137.671677,58.2133986 137.702316,57.5006047 139.021853,55.5400338 C139.352646,55.7602297 139.66786,55.8997905 140.225586,55.8997905 C142.541137,55.8997905 144.233011,53.645625 145.043635,52.0675541 C145.618498,50.9448649 147.207032,47.1183142 147.207032,45.5965845 C146.166358,45.6829054 142.411312,47.9422399 141.500463,48.543902 C140.068758,49.4918818 138.059074,51.3728514 138.059074,53.6228818 C138.059074,54.3925338 138.27614,54.8029459 138.539944,55.3001959 L137.746975,56.2967635 C137.736589,55.8000304 137.8472,55.9127128 137.818119,55.5400338 L137.258835,47.0309595 C137.176786,46.5321588 137.883032,45.0657365 137.938596,44.3984291 C141.05854,44.4687264 141.452168,43.1392804 142.654863,40.9471419 C143.343453,39.6921284 143.957263,35.8841858 143.957263,33.8569358 L143.957263,33.3782939 C143.957263,32.1181115 139.740042,36.1974223 139.413404,36.5220304 C138.210189,37.719152 136.495467,39.7009155 136.495467,42.0026351 C136.495467,43.0488243 137.038133,43.6556554 137.455649,44.2795439 L136.903116,45.4978581 L136.432632,43.5486588 C136.741614,42.7707365 134.327396,37.1655608 134.327396,36.2527297 L134.327396,35.7735709 L134.641053,33.2516554 C137.234947,33.0469662 138.781418,29.8070878 138.539944,26.9093919 L138.291719,23.3175101 L138.059074,23.3159595 C138.30574,22.8037196 137.813965,21.1238209 137.578723,20.6803277 C136.156365,21.6277905 132.522316,27.0308615 132.522316,29.5450236 L132.522316,30.2635034 C132.522316,31.2471486 132.983972,32.1460236 133.511579,32.6329358 C134.552253,33.5959054 133.863144,33.1839426 133.726568,34.8152534 C133.681909,34.7661486 131.352856,29.9792128 131.15033,29.4726588 C130.13614,26.9295507 129.031593,27.4655676 129.031593,23.4358784 C130.148084,23.3428378 130.553656,23.1464189 131.200702,22.2403074 C131.544996,21.7606318 132.040926,20.3164358 132.040926,19.4821723 L132.040926,18.0452128 C132.040926,15.9011453 130.758779,12.0549527 129.993853,10.6174764 C128.740267,11.5308243 126.50313,17.0584662 126.50313,19.2423345 L126.50313,19.6020912 C126.50313,21.7296182 127.126807,22.5659493 128.550204,23.3159595 L128.395453,24.8697365 C128.218891,24.7188041 126.111579,21.6794797 125.683158,21.137777" id="Fill-5" fill="#C69C33"></path>
                <path d="M43.980407,36.7665203 C43.7062175,36.6471182 43.654807,36.5618311 43.654807,36.1865676 C43.654807,35.2484088 43.7233544,34.2249628 43.7404912,33.951527 C43.7576281,33.6961824 43.8090386,33.5080338 43.9461333,33.5080338 C44.1003649,33.5080338 44.1175018,33.6615507 44.1175018,33.7980101 C44.1175018,34.0202736 44.1860491,34.3779628 44.2717333,34.6684561 C44.6487439,35.9301892 45.6598175,36.3912568 46.7223018,36.3912568 C48.2646175,36.3912568 49.0186386,35.3502365 49.0186386,34.4461926 C49.0186386,33.6108953 48.761586,32.8262534 47.3392281,31.7170034 L46.5509333,31.1029358 C44.6658807,29.6365135 44.0146807,28.4424932 44.0146807,27.0603243 C44.0146807,25.1840068 45.5912702,23.8364696 47.9732912,23.8364696 C49.087186,23.8364696 49.8069333,24.0070439 50.2524912,24.1269628 C50.4067228,24.1605608 50.492407,24.2117331 50.492407,24.331652 C50.492407,24.5533986 50.4238596,25.0480642 50.4238596,26.378027 C50.4238596,26.7532905 50.3724491,26.8902669 50.2353544,26.8902669 C50.1153965,26.8902669 50.063986,26.7874054 50.063986,26.5827162 C50.063986,26.4297162 49.9783018,25.9009358 49.6184281,25.4574426 C49.3613754,25.1328345 48.864407,24.6211115 47.7505123,24.6211115 C46.482386,24.6211115 45.7112281,25.3545811 45.7112281,26.378027 C45.7112281,27.1631858 46.1053754,27.7596791 47.5277333,28.8342973 L48.0075649,29.1925034 C50.0811228,30.7452466 50.818007,31.9222095 50.818007,33.5421486 C50.818007,34.5314797 50.4409965,35.7089595 49.2071439,36.5101419 C48.3503018,37.0564966 47.3906386,37.2100135 46.482386,37.2100135 C45.4884491,37.2100135 44.7172912,37.0906115 43.980407,36.7665203" id="Fill-6" fill="#060403"></path>
                <path d="M56.3360702,25.0310068 L53.7826807,25.0987196 C52.7887439,25.1328345 52.3774596,25.2181216 52.120407,25.5933851 C51.9490386,25.8492466 51.8633544,26.0544527 51.8290807,26.1909122 C51.794807,26.3268547 51.7433965,26.3956014 51.6400561,26.3956014 C51.5206175,26.3956014 51.4863439,26.3103142 51.4863439,26.1221655 C51.4863439,25.8492466 51.8114246,24.2975372 51.8456982,24.1605608 C51.8976281,23.9393311 51.9490386,23.8364696 52.0518596,23.8364696 C52.1889544,23.8364696 52.3603228,24.0070439 52.7887439,24.0411588 C53.2857123,24.092848 53.9369123,24.1269628 54.5024281,24.1269628 L61.2886175,24.1269628 C61.8369965,24.1269628 62.214007,24.0752736 62.4710596,24.0411588 C62.7281123,23.9899865 62.865207,23.9558716 62.9337544,23.9558716 C63.0537123,23.9558716 63.0708491,24.0587331 63.0708491,24.3140777 C63.0708491,24.6728007 63.0194386,25.8492466 63.0194386,26.2927399 C63.0023018,26.4638311 62.9680281,26.5656588 62.865207,26.5656588 C62.7281123,26.5656588 62.6938386,26.4808885 62.6767018,26.225027 L62.6595649,26.0368784 C62.6252912,25.5933851 62.1625965,25.1162939 60.6374175,25.0821791 L58.4781754,25.0310068 L58.4781754,32.0240372 C58.4781754,33.5933209 58.4781754,34.9408581 58.5638596,35.6743277 C58.6152702,36.1524527 58.7180912,36.5277162 59.2321965,36.5954291 C59.4721123,36.6295439 59.8491228,36.6636588 60.1061754,36.6636588 C60.2946807,36.6636588 60.3803649,36.715348 60.3803649,36.8006351 C60.3803649,36.9195203 60.2432702,36.9712095 60.0547649,36.9712095 C58.9237333,36.9712095 57.8441123,36.9195203 57.3642807,36.9195203 C56.9701333,36.9195203 55.8905123,36.9712095 55.2050386,36.9712095 C54.9822596,36.9712095 54.8623018,36.9195203 54.8623018,36.8006351 C54.8623018,36.715348 54.9308491,36.6636588 55.1364912,36.6636588 C55.3935439,36.6636588 55.599186,36.6295439 55.7534175,36.5954291 C56.0961544,36.5277162 56.1989754,36.1524527 56.250386,35.6577872 C56.3360702,34.9408581 56.3360702,33.5933209 56.3360702,32.0240372 L56.3360702,25.0310068" id="Fill-7" fill="#060403"></path>
                <path d="M65.3843228,29.0224459 C65.3843228,26.4297162 65.3843228,25.9515912 65.3500491,25.4062703 C65.3157754,24.8263176 65.1786807,24.5533986 64.6131649,24.4334797 C64.4760702,24.3993649 64.1847439,24.3828243 63.9448281,24.3828243 C63.7563228,24.3828243 63.6535018,24.3487095 63.6535018,24.2293074 C63.6535018,24.1093885 63.7734596,24.0752736 64.0305123,24.0752736 C64.493207,24.0752736 64.9901754,24.092848 65.4185965,24.092848 C65.8641544,24.1093885 66.2583018,24.1269628 66.4982175,24.1269628 C67.0465965,24.1269628 70.4568281,24.1269628 70.7824281,24.1093885 C71.1080281,24.0752736 71.3822175,24.0411588 71.5193123,24.0070439 C71.6049965,23.9899865 71.7078175,23.9393311 71.7935018,23.9393311 C71.879186,23.9393311 71.8963228,24.0070439 71.8963228,24.092848 C71.8963228,24.2117331 71.8106386,24.4169392 71.7592281,25.2015811 C71.7420912,25.3721554 71.7078175,26.1221655 71.6735439,26.3268547 C71.656407,26.4121419 71.6221333,26.5150034 71.5021754,26.5150034 C71.3822175,26.5150034 71.3479439,26.4297162 71.3479439,26.2761993 C71.3479439,26.1562804 71.330807,25.8668209 71.2451228,25.6621318 C71.1251649,25.3545811 70.9537965,25.1498919 70.0969544,25.0480642 C69.8056281,25.0134324 68.0062596,24.9793176 67.6635228,24.9793176 C67.5778386,24.9793176 67.5435649,25.0310068 67.5435649,25.1498919 L67.5435649,29.4659392 C67.5435649,29.5848243 67.5607018,29.6530541 67.6635228,29.6530541 C68.0405333,29.6530541 70.0112702,29.6530541 70.4054175,29.6189392 C70.8167018,29.5848243 71.0737544,29.533652 71.227986,29.3630777 C71.3479439,29.2271351 71.4164912,29.141848 71.5021754,29.141848 C71.5707228,29.141848 71.6221333,29.1759628 71.6221333,29.2777905 C71.6221333,29.3801351 71.553586,29.6530541 71.4850386,30.5229831 C71.4679018,30.8646486 71.4164912,31.5464291 71.4164912,31.6658311 C71.4164912,31.8028074 71.4164912,31.9899223 71.2622596,31.9899223 C71.1423018,31.9899223 71.1080281,31.9222095 71.1080281,31.8364054 C71.0908912,31.6658311 71.0908912,31.4446014 71.0394807,31.2228547 C70.9537965,30.8811892 70.7138807,30.6258446 70.0798175,30.557098 C69.7542175,30.5229831 68.0576702,30.5059257 67.646386,30.5059257 C67.5607018,30.5059257 67.5435649,30.5746723 67.5435649,30.6765 L67.5435649,32.0240372 C67.5435649,32.6039899 67.5264281,34.1732736 67.5435649,34.6684561 C67.5778386,35.844902 67.8520281,36.1007635 69.599986,36.1007635 C70.0455439,36.1007635 70.7652912,36.1007635 71.2108491,35.8965912 C71.656407,35.691902 71.8620491,35.3336959 71.982007,34.6343412 C72.0162807,34.4461926 72.0505544,34.3779628 72.1705123,34.3779628 C72.307607,34.3779628 72.307607,34.5149392 72.307607,34.6849966 C72.307607,35.0778345 72.1705123,36.2377399 72.0848281,36.5783716 C71.9648702,37.0223818 71.8106386,37.0223818 71.1594386,37.0223818 C69.8741754,37.0223818 68.9316491,36.98775 68.1947649,36.9712095 C67.4578807,36.9370946 66.9266386,36.9195203 66.4125333,36.9195203 C66.2240281,36.9195203 65.8470175,36.9195203 65.4357333,36.9370946 C65.041586,36.9370946 64.5960281,36.9712095 64.2532912,36.9712095 C64.0305123,36.9712095 63.9105544,36.9195203 63.9105544,36.8006351 C63.9105544,36.715348 63.9791018,36.6636588 64.1847439,36.6636588 C64.4417965,36.6636588 64.6474386,36.6295439 64.8016702,36.5954291 C65.144407,36.5277162 65.2300912,36.1524527 65.2986386,35.6577872 C65.3843228,34.9408581 65.3843228,33.5933209 65.3843228,32.0240372 L65.3843228,29.0224459" id="Fill-8" fill="#060403"></path>
                <path d="M73.8836772,25.746902 C73.4900491,24.8087432 73.1987228,24.6211115 72.5817965,24.4505372 C72.3242246,24.3828243 72.0505544,24.3828243 71.9129404,24.3828243 C71.7592281,24.3828243 71.7072982,24.331652 71.7072982,24.2293074 C71.7072982,24.092848 71.8958035,24.0752736 72.1528561,24.0752736 C73.0611088,24.0752736 74.0379088,24.1269628 74.6382175,24.1269628 C75.0666386,24.1269628 75.889207,24.0752736 76.7455298,24.0752736 C76.9516912,24.0752736 77.1396772,24.1093885 77.1396772,24.2293074 C77.1396772,24.3487095 77.0373754,24.3828243 76.8831439,24.3828243 C76.6084351,24.3828243 76.3513825,24.3993649 76.214807,24.5017095 C76.0943298,24.5875135 76.0434386,24.7063986 76.0434386,24.8599155 C76.0434386,25.0821791 76.1971509,25.5592703 76.4370667,26.1733378 L79.3846035,33.9174122 L79.4531509,33.9174122 C80.1900351,32.0410946 82.4178246,26.5491182 82.8291088,25.4228108 C82.914793,25.2015811 82.9838596,24.9452027 82.9838596,24.7922027 C82.9838596,24.6552264 82.914793,24.5187669 82.7605614,24.4681115 C82.5554386,24.3993649 82.298386,24.3828243 82.075607,24.3828243 C81.9208561,24.3828243 81.7837614,24.36525 81.7837614,24.245848 C81.7837614,24.1093885 81.937993,24.0752736 82.263593,24.0752736 C83.1204351,24.0752736 83.8401825,24.1269628 84.0629614,24.1269628 C84.3542877,24.1269628 85.1597193,24.0752736 85.6738246,24.0752736 C85.8966035,24.0752736 86.0342175,24.1093885 86.0342175,24.2293074 C86.0342175,24.3487095 85.9313965,24.3828243 85.7600281,24.3828243 C85.5881404,24.3828243 85.2282667,24.3828243 84.9198035,24.5875135 C84.6975439,24.7405135 84.4399719,25.0310068 83.9777965,26.1221655 C83.3094596,27.7255642 82.8462456,28.6471824 81.9208561,30.7452466 C80.8246175,33.2351149 80.019186,35.094375 79.6416561,35.9477635 C79.1966175,36.9370946 79.0937965,37.2100135 78.8538807,37.2100135 C78.6305825,37.2100135 78.5282807,36.9712095 78.2026807,36.1689932 L73.8836772,25.746902" id="Fill-9" fill="#060403"></path>
                <path d="M87.0281544,29.0224459 C87.0281544,26.4297162 87.0281544,25.9515912 86.9938807,25.4062703 C86.959607,24.8263176 86.7882386,24.5358243 86.4107088,24.4505372 C86.2227228,24.3993649 85.9994246,24.3828243 85.7943018,24.3828243 C85.6229333,24.3828243 85.5201123,24.3487095 85.5201123,24.2117331 C85.5201123,24.1093885 85.657207,24.0752736 85.9313965,24.0752736 C86.5825965,24.0752736 87.6622175,24.1269628 88.159186,24.1269628 C88.587607,24.1269628 89.5986807,24.0752736 90.2498807,24.0752736 C90.4726596,24.0752736 90.6092351,24.1093885 90.6092351,24.2117331 C90.6092351,24.3487095 90.5069333,24.3828243 90.3355649,24.3828243 C90.1641965,24.3828243 90.0265825,24.3993649 89.8214596,24.4334797 C89.3587649,24.5187669 89.2216702,24.8087432 89.1873965,25.4062703 C89.1531228,25.9515912 89.1531228,26.4297162 89.1531228,29.0224459 L89.1531228,32.0240372 C89.1531228,33.6786081 89.1531228,35.0261453 89.2216702,35.7596149 C89.2730807,36.2201655 89.3930386,36.5277162 89.9071439,36.5954291 C90.1470596,36.6295439 90.5235509,36.6636588 90.7806035,36.6636588 C90.9696281,36.6636588 91.0553123,36.715348 91.0553123,36.8006351 C91.0553123,36.9195203 90.9182175,36.9712095 90.7297123,36.9712095 C89.5986807,36.9712095 88.5190596,36.9195203 88.0558456,36.9195203 C87.6622175,36.9195203 86.5825965,36.9712095 85.8971228,36.9712095 C85.6738246,36.9712095 85.554386,36.9195203 85.554386,36.8006351 C85.554386,36.715348 85.6229333,36.6636588 85.8280561,36.6636588 C86.0851088,36.6636588 86.2912702,36.6295439 86.4455018,36.5954291 C86.7882386,36.5277162 86.8910596,36.2377399 86.9424702,35.7430743 C87.0281544,35.0261453 87.0281544,33.6786081 87.0281544,32.0240372 L87.0281544,29.0224459" id="Fill-10" fill="#060403"></path>
                <path d="M93.9343018,29.0224459 C93.9343018,26.4297162 93.9343018,25.9515912 93.8995088,25.4062703 C93.8657544,24.8263176 93.7281404,24.5533986 93.1626246,24.4334797 C93.0260491,24.3993649 92.7342035,24.3828243 92.4942877,24.3828243 C92.3063018,24.3828243 92.2034807,24.3487095 92.2034807,24.2293074 C92.2034807,24.1093885 92.3229193,24.0752736 92.5799719,24.0752736 C93.043186,24.0752736 93.5401544,24.092848 93.9680561,24.092848 C94.4141333,24.1093885 94.8077614,24.1269628 95.0476772,24.1269628 C95.5965754,24.1269628 99.0062877,24.1269628 99.3318877,24.1093885 C99.6574877,24.0752736 99.9321965,24.0411588 100.068772,24.0070439 C100.154456,23.9899865 100.257277,23.9393311 100.343481,23.9393311 C100.429165,23.9393311 100.446302,24.0070439 100.446302,24.092848 C100.446302,24.2117331 100.360618,24.4169392 100.309207,25.2015811 C100.29207,25.3721554 100.257277,26.1221655 100.223523,26.3268547 C100.206386,26.4121419 100.171593,26.5150034 100.052154,26.5150034 C99.9321965,26.5150034 99.8974035,26.4297162 99.8974035,26.2761993 C99.8974035,26.1562804 99.880786,25.8668209 99.7951018,25.6621318 C99.6746246,25.3545811 99.5032561,25.1498919 98.6469333,25.0480642 C98.3550877,25.0134324 96.5562386,24.9793176 96.2129825,24.9793176 C96.1272982,24.9793176 96.0935439,25.0310068 96.0935439,25.1498919 L96.0935439,29.4659392 C96.0935439,29.5848243 96.1101614,29.6530541 96.2129825,29.6530541 C96.5905123,29.6530541 98.5612491,29.6530541 98.9553965,29.6189392 C99.3666807,29.5848243 99.6237333,29.533652 99.7779649,29.3630777 C99.8974035,29.2271351 99.9664702,29.141848 100.052154,29.141848 C100.120702,29.141848 100.171593,29.1759628 100.171593,29.2777905 C100.171593,29.3801351 100.103565,29.6530541 100.035018,30.5229831 C100.017881,30.8646486 99.9664702,31.5464291 99.9664702,31.6658311 C99.9664702,31.8028074 99.9664702,31.9899223 99.8122386,31.9899223 C99.6922807,31.9899223 99.6574877,31.9222095 99.6574877,31.8364054 C99.6408702,31.6658311 99.6408702,31.4446014 99.5889404,31.2228547 C99.5032561,30.8811892 99.2633404,30.6258446 98.6297965,30.557098 C98.3041965,30.5229831 96.6071298,30.5059257 96.1958456,30.5059257 C96.1101614,30.5059257 96.0935439,30.5746723 96.0935439,30.6765 L96.0935439,32.0240372 C96.0935439,32.6039899 96.076407,34.1732736 96.0935439,34.6684561 C96.1272982,35.844902 96.402007,36.1007635 98.1499649,36.1007635 C98.5950035,36.1007635 99.3152702,36.1007635 99.7603088,35.8965912 C100.206386,35.691902 100.411509,35.3336959 100.531986,34.6343412 C100.56574,34.4461926 100.600533,34.3779628 100.720491,34.3779628 C100.857586,34.3779628 100.857586,34.5149392 100.857586,34.6849966 C100.857586,35.0778345 100.720491,36.2377399 100.634807,36.5783716 C100.514849,37.0223818 100.360618,37.0223818 99.7094175,37.0223818 C98.4236351,37.0223818 97.4816281,36.98775 96.7447439,36.9712095 C96.0078596,36.9370946 95.4760982,36.9195203 94.961993,36.9195203 C94.774007,36.9195203 94.3964772,36.9195203 93.985193,36.9370946 C93.5915649,36.9370946 93.1454877,36.9712095 92.8032702,36.9712095 C92.5799719,36.9712095 92.4605333,36.9195203 92.4605333,36.8006351 C92.4605333,36.715348 92.5290807,36.6636588 92.7342035,36.6636588 C92.9912561,36.6636588 93.1974175,36.6295439 93.3516491,36.5954291 C93.694386,36.5277162 93.7800702,36.1524527 93.8486175,35.6577872 C93.9343018,34.9408581 93.9343018,33.5933209 93.9343018,32.0240372 L93.9343018,29.0224459" id="Fill-11" fill="#060403"></path>
                <path d="M102.605025,25.2692939 C102.656435,25.3034088 102.776393,25.3204662 102.84494,25.3204662 C102.896351,25.3204662 102.947761,25.3204662 102.999172,25.2868682 C103.084856,25.2356959 103.153404,25.1328345 103.153404,24.9968919 C103.153404,24.7922027 102.999172,24.6211115 102.759256,24.6211115 C102.742119,24.6211115 102.638779,24.6211115 102.605025,24.6552264 L102.605025,25.2692939 Z M102.227495,25.0987196 L102.227495,24.6728007 C102.227495,24.5699392 102.159467,24.5533986 102.022372,24.5533986 C102.005235,24.5533986 101.988098,24.5358243 101.988098,24.5017095 C101.988098,24.4505372 102.022372,24.4334797 102.073782,24.4334797 L102.14233,24.4339966 C102.176604,24.4339966 102.313179,24.4505372 102.433656,24.4505372 C102.587888,24.4505372 102.656435,24.4339966 102.827804,24.4334797 C103.11913,24.4334797 103.581825,24.484652 103.581825,24.8940304 C103.581825,25.0646047 103.513277,25.2015811 103.221951,25.4062703 L103.530414,25.7639595 C103.753193,26.0203378 103.787467,26.0203378 103.82174,26.0203378 C103.856014,26.0203378 103.873151,26.0368784 103.873151,26.0715101 C103.873151,26.1221655 103.856014,26.139223 103.718919,26.139223 C103.49614,26.139223 103.307635,26.1562804 103.050063,25.8156486 L102.810667,25.4915574 L102.605025,25.4915574 L102.605025,25.6445574 C102.605025,25.9515912 102.622161,25.986223 102.638779,26.0027635 C102.673572,26.0203378 102.759256,26.0203378 102.810667,26.0203378 C102.84494,26.0203378 102.862077,26.0203378 102.862077,26.0715101 C102.862077,26.1221655 102.827804,26.139223 102.79353,26.139223 L102.724463,26.139223 C102.690709,26.139223 102.536477,26.1221655 102.450793,26.1221655 C102.399382,26.1221655 102.227495,26.139223 102.19374,26.139223 L102.108056,26.139223 C102.073782,26.139223 101.988098,26.1221655 101.988098,26.0715101 C101.988098,26.0368784 102.005235,26.0203378 102.039509,26.0203378 C102.19374,26.0203378 102.210877,26.0203378 102.227495,25.9174764 C102.245151,25.8321892 102.227495,25.7127872 102.227495,25.4739831 L102.227495,25.0987196 Z M104.130204,25.3375236 C104.130204,24.6040541 103.616098,24.1440203 102.879214,24.1440203 C102.14233,24.1440203 101.628225,24.6040541 101.628225,25.3375236 C101.628225,26.0544527 102.14233,26.5491182 102.896351,26.5491182 C103.616098,26.5491182 104.130204,26.0544527 104.130204,25.3375236 Z M101.302625,25.3545811 C101.302625,24.484652 101.970961,23.8540439 102.879214,23.8540439 C103.787467,23.8540439 104.455284,24.484652 104.455284,25.3545811 C104.455284,26.1909122 103.787467,26.8385777 102.879214,26.8385777 C101.970961,26.8385777 101.302625,26.1909122 101.302625,25.3545811 Z" id="Fill-12" fill="#060403"></path>
                <path d="M35.4639158,70.7108108 C35.2582737,70.0796858 35.0692491,69.6703074 34.8293333,69.4997331 C34.6413474,69.3803311 34.2980912,69.3462162 34.1438596,69.3462162 C33.9724912,69.3462162 33.8696702,69.3291588 33.8696702,69.1926993 C33.8696702,69.0732973 34.0067649,69.0391824 34.2466807,69.0391824 C35.1383158,69.0391824 36.0803228,69.0903547 36.2345544,69.0903547 C36.388786,69.0903547 37.142807,69.0391824 38.1367439,69.0391824 C38.3766596,69.0391824 38.4966175,69.0903547 38.4966175,69.1926993 C38.4966175,69.3291588 38.3595228,69.3462162 38.1886737,69.3462162 C38.0510596,69.3462162 37.8796912,69.3462162 37.7597333,69.4144459 C37.6060211,69.4826757 37.5717474,69.6020777 37.5717474,69.7897095 C37.5717474,70.0114561 37.7425965,70.5914088 37.9482386,71.3589932 C38.2395649,72.4847838 39.8338105,77.6537027 40.1417544,78.608402 L40.1931649,78.608402 L43.5177123,69.7214797 C43.6890807,69.2438716 43.8090386,69.1074122 43.9461333,69.1074122 C44.1346386,69.1074122 44.2203228,69.3632736 44.4431018,69.9091115 L48.0075649,78.489 L48.0589754,78.489 C48.3679579,77.346152 49.738386,72.8429899 50.3386947,70.8472703 C50.4586526,70.4549493 50.5100632,70.0967432 50.5100632,69.8579392 C50.5100632,69.5850203 50.3553123,69.3462162 49.6869754,69.3462162 C49.5161263,69.3462162 49.3961684,69.2950439 49.3961684,69.1926993 C49.3961684,69.0732973 49.5327439,69.0391824 49.7897965,69.0391824 C50.6980491,69.0391824 51.4177965,69.0903547 51.5725474,69.0903547 C51.691986,69.0903547 52.4293895,69.0391824 52.9949053,69.0391824 C53.1834105,69.0391824 53.3033684,69.0732973 53.3033684,69.1756419 C53.3033684,69.2950439 53.2176842,69.3462162 53.0634526,69.3462162 C52.8920842,69.3462162 52.6521684,69.3632736 52.4636632,69.4315034 C52.0523789,69.5850203 51.8638737,70.2673176 51.5034807,71.2395912 C50.7157053,73.3888277 48.9158175,78.8130912 48.0766316,81.3717061 C47.887607,81.9687162 47.8019228,82.1734054 47.5796632,82.1734054 C47.4077754,82.1734054 47.3049544,81.9687162 47.0484211,81.3381081 L43.4834386,72.7918176 L43.4491649,72.7918176 C43.1235649,73.6617466 40.8443649,79.7005946 40.1074807,81.2693615 C39.7818807,81.9687162 39.6961965,82.1734054 39.4905544,82.1734054 C39.319186,82.1734054 39.2506386,81.9857736 39.0969263,81.5422804 L35.4639158,70.7108108" id="Fill-13" fill="#060403"></path>
                <path d="M54.7428632,73.9858378 C54.7428632,71.3931081 54.7428632,70.9155 54.7085895,70.3696622 C54.6737965,69.7897095 54.5029474,69.4997331 54.1259368,69.4144459 C53.9369123,69.3632736 53.7146526,69.3462162 53.5090105,69.3462162 C53.3371228,69.3462162 53.2343018,69.3121014 53.2343018,69.1756419 C53.2343018,69.0732973 53.3713965,69.0391824 53.645586,69.0391824 C54.2973053,69.0391824 55.376407,69.0903547 55.8733754,69.0903547 C56.3017965,69.0903547 57.3128702,69.0391824 57.9645895,69.0391824 C58.1868491,69.0391824 58.3239439,69.0732973 58.3239439,69.1756419 C58.3239439,69.3121014 58.2211228,69.3462162 58.0497544,69.3462162 C57.8789053,69.3462162 57.7412912,69.3632736 57.5356491,69.3973885 C57.0729544,69.4826757 56.9363789,69.772652 56.901586,70.3696622 C56.8673123,70.9155 56.8673123,71.3931081 56.8673123,73.9858378 L56.8673123,76.9879459 C56.8673123,78.6430338 56.8673123,79.9900541 56.9363789,80.7235236 C56.9872702,81.1845912 57.1072281,81.4911081 57.6213333,81.5593378 C57.8612491,81.5939696 58.2382596,81.6275676 58.4958316,81.6275676 C58.6838175,81.6275676 58.7695018,81.6787399 58.7695018,81.764027 C58.7695018,81.8834291 58.632407,81.9346014 58.4439018,81.9346014 C57.3128702,81.9346014 56.2337684,81.8834291 55.7705544,81.8834291 C55.376407,81.8834291 54.2973053,81.9346014 53.6113123,81.9346014 C53.3890526,81.9346014 53.2690947,81.8834291 53.2690947,81.764027 C53.2690947,81.6787399 53.3371228,81.6275676 53.5427649,81.6275676 C53.8003368,81.6275676 54.0059789,81.5939696 54.1596912,81.5593378 C54.5029474,81.4911081 54.6052491,81.2011318 54.6566596,80.7064662 C54.7428632,79.9900541 54.7428632,78.6430338 54.7428632,76.9879459 L54.7428632,73.9858378" id="Fill-14" fill="#060403"></path>
                <path d="M62.6081544,79.6153074 C62.6429474,80.9452703 62.8657263,81.3887635 63.2084632,81.5086824 C63.4997895,81.6105101 63.8253895,81.6275676 64.0995789,81.6275676 C64.2880842,81.6275676 64.3909053,81.6616824 64.3909053,81.764027 C64.3909053,81.9004865 64.2366737,81.9346014 63.9967579,81.9346014 C62.8828632,81.9346014 62.1973895,81.8834291 61.8717895,81.8834291 C61.7175579,81.8834291 60.9121263,81.9346014 60.0210105,81.9346014 C59.7982316,81.9346014 59.6434807,81.9180608 59.6434807,81.764027 C59.6434807,81.6616824 59.7468211,81.6275676 59.9181895,81.6275676 C60.1409684,81.6275676 60.4494316,81.6105101 60.6893474,81.5422804 C61.1349053,81.4058209 61.2034526,80.9111554 61.2205895,79.4271588 L61.3748211,69.3291588 C61.3748211,68.9880101 61.4262316,68.7492061 61.5976,68.7492061 C61.7861053,68.7492061 61.9403368,68.9709527 62.2316632,69.2779865 C62.4373053,69.4997331 65.0421053,72.2800946 67.5440842,74.7534223 C68.7093895,75.9133277 71.0228632,78.369598 71.3141895,78.6430338 L71.3998737,78.6430338 L71.2285053,70.9837297 C71.2113684,69.9432264 71.0571368,69.6191351 70.6458526,69.4485608 C70.3888,69.3462162 69.9775158,69.3462162 69.7376,69.3462162 C69.5319579,69.3462162 69.4634105,69.2950439 69.4634105,69.1926993 C69.4634105,69.0562399 69.6513965,69.0391824 69.9089684,69.0391824 C70.8000842,69.0391824 71.6226526,69.0903547 71.9825263,69.0903547 C72.1710316,69.0903547 72.8217123,69.0391824 73.6619368,69.0391824 C73.8847158,69.0391824 74.0560842,69.0562399 74.0560842,69.1926993 C74.0560842,69.2950439 73.9532632,69.3462162 73.7476211,69.3462162 C73.5762526,69.3462162 73.4391579,69.3462162 73.2335158,69.3973885 C72.7536842,69.533848 72.6165895,69.8920541 72.5994526,70.8472703 L72.4104281,81.6105101 C72.4104281,81.9857736 72.3424,82.1392905 72.1881684,82.1392905 C71.9991439,82.1392905 71.7935018,81.9516588 71.6055158,81.764027 C70.5258947,80.7405811 68.3323789,78.5060574 66.5501474,76.7496588 C64.6822316,74.9069392 62.7800421,72.7747601 62.4715789,72.4506689 L62.4201684,72.4506689 L62.6081544,79.6153074" id="Fill-15" fill="#060403"></path>
                <path d="M77.9970386,79.6153074 C78.0313123,80.9452703 78.2540912,81.3887635 78.5968281,81.5086824 C78.8881544,81.6105101 79.2137544,81.6275676 79.4879439,81.6275676 C79.6764491,81.6275676 79.7792702,81.6616824 79.7792702,81.764027 C79.7792702,81.9004865 79.6250386,81.9346014 79.3851228,81.9346014 C78.2712281,81.9346014 77.5857544,81.8834291 77.2601544,81.8834291 C77.1059228,81.8834291 76.3004912,81.9346014 75.4093754,81.9346014 C75.1865965,81.9346014 75.0323649,81.9180608 75.0323649,81.764027 C75.0323649,81.6616824 75.135186,81.6275676 75.3065544,81.6275676 C75.5293333,81.6275676 75.8377965,81.6105101 76.0777123,81.5422804 C76.5232702,81.4058209 76.5918175,80.9111554 76.6089544,79.4271588 L76.763186,69.3291588 C76.763186,68.9880101 76.8145965,68.7492061 76.9859649,68.7492061 C77.1744702,68.7492061 77.3287018,68.9709527 77.6200281,69.2779865 C77.8256702,69.4997331 80.4304702,72.2800946 82.9324491,74.7534223 C84.0977544,75.9133277 86.4112281,78.369598 86.7025544,78.6430338 L86.7882386,78.6430338 L86.6168702,70.9837297 C86.5997333,69.9432264 86.4455018,69.6191351 86.0342175,69.4485608 C85.7771649,69.3462162 85.3658807,69.3462162 85.1259649,69.3462162 C84.9203228,69.3462162 84.8517754,69.2950439 84.8517754,69.1926993 C84.8517754,69.0562399 85.0402807,69.0391824 85.2973333,69.0391824 C86.1884491,69.0391824 87.0110175,69.0903547 87.3708912,69.0903547 C87.5593965,69.0903547 88.2105965,69.0391824 89.0503018,69.0391824 C89.2730807,69.0391824 89.4444491,69.0562399 89.4444491,69.1926993 C89.4444491,69.2950439 89.3416281,69.3462162 89.135986,69.3462162 C88.9646175,69.3462162 88.8275228,69.3462162 88.6218807,69.3973885 C88.1420491,69.533848 88.0049544,69.8920541 87.9878175,70.8472703 L87.7993123,81.6105101 C87.7993123,81.9857736 87.7307649,82.1392905 87.5765333,82.1392905 C87.3880281,82.1392905 87.182386,81.9516588 86.9938807,81.764027 C85.9142596,80.7405811 83.7207439,78.5060574 81.9385123,76.7496588 C80.0705965,74.9069392 78.168407,72.7747601 77.8599439,72.4506689 L77.8085333,72.4506689 L77.9970386,79.6153074" id="Fill-16" fill="#060403"></path>
                <path d="M92.4262596,73.9858378 C92.4262596,71.3931081 92.4262596,70.9155 92.391986,70.3696622 C92.3582316,69.7897095 92.2206175,69.5167905 91.6551018,69.3973885 C91.518007,69.3632736 91.2266807,69.3462162 90.9867649,69.3462162 C90.7987789,69.3462162 90.6954386,69.3121014 90.6954386,69.1926993 C90.6954386,69.0732973 90.8153965,69.0391824 91.0724491,69.0391824 C91.5356632,69.0391824 92.0326316,69.0562399 92.4605333,69.0562399 C92.9060912,69.0732973 93.3002386,69.0903547 93.5401544,69.0903547 C94.0890526,69.0903547 97.4987649,69.0903547 97.8243649,69.0732973 C98.1499649,69.0391824 98.4241544,69.0050676 98.5612491,68.9709527 C98.6469333,68.9538953 98.7497544,68.902723 98.8354386,68.902723 C98.9211228,68.902723 98.9382596,68.9709527 98.9382596,69.0562399 C98.9382596,69.1756419 98.8525754,69.3803311 98.8011649,70.164973 C98.7845474,70.3355473 98.7497544,71.0860743 98.716,71.2907635 C98.6988632,71.3760507 98.6640702,71.4783953 98.5446316,71.4783953 C98.4241544,71.4783953 98.3904,71.3931081 98.3904,71.2395912 C98.3904,71.1201892 98.3732632,70.8302128 98.2875789,70.6255236 C98.1671018,70.3184899 97.9957333,70.1138007 97.1394105,70.0114561 C96.8475649,69.9773412 95.0481965,69.9432264 94.7054596,69.9432264 C94.6197754,69.9432264 94.5860211,69.9943986 94.5860211,70.1138007 L94.5860211,74.4293311 C94.5860211,74.5487331 94.6026386,74.6169628 94.7054596,74.6169628 C95.0829895,74.6169628 97.0537263,74.6169628 97.4473544,74.582848 C97.8586386,74.5487331 98.1156912,74.4975608 98.2699228,74.3269865 C98.3904,74.190527 98.4589474,74.1052399 98.5446316,74.1052399 C98.6126596,74.1052399 98.6640702,74.1393547 98.6640702,74.2416993 C98.6640702,74.3440439 98.5955228,74.6169628 98.5269754,75.4868919 C98.5098386,75.8280405 98.4589474,76.5108547 98.4589474,76.6297399 C98.4589474,76.7661993 98.4589474,76.9538311 98.3047158,76.9538311 C98.1842386,76.9538311 98.1499649,76.8856014 98.1499649,76.8003142 C98.1333474,76.6297399 98.1333474,76.4079932 98.0814175,76.1862466 C97.9957333,75.8456149 97.7558175,75.5892365 97.1217544,75.5210068 C96.7961544,75.4868919 95.099607,75.4698345 94.6883228,75.4698345 C94.6026386,75.4698345 94.5860211,75.5380642 94.5860211,75.6404088 L94.5860211,76.9879459 C94.5860211,77.5684155 94.5683649,79.1371824 94.5860211,79.631848 C94.6197754,80.8088108 94.8939649,81.0646723 96.6424421,81.0646723 C97.0874807,81.0646723 97.8077474,81.0646723 98.252786,80.8599831 C98.6988632,80.6552939 98.903986,80.2970878 99.0239439,79.5977331 C99.0582175,79.4101014 99.0924912,79.3418716 99.2129684,79.3418716 C99.3495439,79.3418716 99.3495439,79.4783311 99.3495439,79.6489054 C99.3495439,80.0412264 99.2129684,81.2011318 99.1272842,81.5422804 C99.006807,81.9857736 98.8525754,81.9857736 98.2013754,81.9857736 C96.9161123,81.9857736 95.973586,81.9516588 95.2372211,81.9346014 C94.5003368,81.9004865 93.9685754,81.8834291 93.4544702,81.8834291 C93.2664842,81.8834291 92.8889544,81.8834291 92.4776702,81.9004865 C92.0835228,81.9004865 91.6379649,81.9346014 91.2957474,81.9346014 C91.0724491,81.9346014 90.9530105,81.8834291 90.9530105,81.764027 C90.9530105,81.6787399 91.0210386,81.6275676 91.2266807,81.6275676 C91.4837333,81.6275676 91.6893754,81.5939696 91.843607,81.5593378 C92.1868632,81.4911081 92.2725474,81.1158446 92.3405754,80.6211791 C92.4262596,79.9047669 92.4262596,78.5577466 92.4262596,76.9879459 L92.4262596,73.9858378" id="Fill-17" fill="#060403"></path>
                <path d="M104.438667,75.333375 C104.438667,75.5210068 104.47346,75.5892365 104.592898,75.6404088 C104.952772,75.7598108 105.467396,75.8109831 105.895818,75.8109831 C106.580772,75.8109831 106.80407,75.7427534 107.112533,75.5210068 C107.626639,75.1457432 108.123607,74.3611014 108.123607,72.9623919 C108.123607,70.5402365 106.512225,69.8408818 105.501151,69.8408818 C105.073249,69.8408818 104.764267,69.8579392 104.592898,69.9091115 C104.47346,69.9432264 104.438667,70.0114561 104.438667,70.1479155 L104.438667,75.333375 Z M102.417039,73.9858378 C102.417039,71.3931081 102.417039,70.9155 102.382246,70.3696622 C102.348491,69.7897095 102.210877,69.5167905 101.645361,69.3973885 C101.508786,69.3632736 101.21694,69.3462162 100.977025,69.3462162 C100.789039,69.3462162 100.686218,69.3121014 100.686218,69.1926993 C100.686218,69.0732973 100.805656,69.0391824 101.062709,69.0391824 C101.970961,69.0391824 103.050582,69.0903547 103.410975,69.0903547 C103.993628,69.0903547 105.296028,69.0391824 105.826751,69.0391824 C106.906372,69.0391824 108.05454,69.141527 108.97993,69.772652 C109.459761,70.0967432 110.145235,70.9666723 110.145235,72.1095203 C110.145235,73.3717703 109.614512,74.5316757 107.883691,75.930902 C109.40887,77.8408176 110.591312,79.3589291 111.601867,80.4164899 C112.562049,81.4058209 113.26414,81.525223 113.521193,81.5763953 C113.710218,81.6105101 113.864449,81.6275676 114.001025,81.6275676 C114.138639,81.6275676 114.207186,81.6787399 114.207186,81.764027 C114.207186,81.9004865 114.086709,81.9346014 113.881586,81.9346014 L112.253067,81.9346014 C111.293404,81.9346014 110.864982,81.8493142 110.419944,81.6105101 C109.68306,81.2181892 109.03186,80.4164899 108.071677,79.1030676 C107.386723,78.1649088 106.597909,77.0050034 106.375649,76.7496588 C106.289965,76.6467973 106.186625,76.6297399 106.067186,76.6297399 L104.576281,76.595625 C104.490596,76.595625 104.438667,76.6297399 104.438667,76.7320845 L104.438667,76.9708885 C104.438667,78.5577466 104.438667,79.9047669 104.524351,80.6211791 C104.576281,81.1158446 104.678582,81.4911081 105.192688,81.5593378 C105.45026,81.5939696 105.826751,81.6275676 106.032912,81.6275676 C106.169488,81.6275676 106.238554,81.6787399 106.238554,81.764027 C106.238554,81.8834291 106.118596,81.9346014 105.895818,81.9346014 C104.901881,81.9346014 103.633235,81.8834291 103.376182,81.8834291 C103.050582,81.8834291 101.970961,81.9346014 101.286007,81.9346014 C101.062709,81.9346014 100.94327,81.8834291 100.94327,81.764027 C100.94327,81.6787399 101.011818,81.6275676 101.21694,81.6275676 C101.473993,81.6275676 101.680154,81.5939696 101.834386,81.5593378 C102.177123,81.4911081 102.262807,81.1158446 102.331354,80.6211791 C102.417039,79.9047669 102.417039,78.5577466 102.417039,76.9879459 L102.417039,73.9858378 Z" id="Fill-18" fill="#060403"></path>
                <polyline id="Fill-19" fill="#060403" points="73.8442105 84.7785405 85.5637333 100.545294 73.8442105 116.267595 62.125207 100.545294 73.8442105 84.7785405"></polyline>
                <path d="M73.773586,103.095639 C73.773586,103.095639 73.8011088,103.100291 73.8452491,103.109595 L73.8452491,103.099257 L73.773586,103.095639" id="Fill-20" fill="#FBD031"></path>
                <path d="M74.8838456,106.45802 C74.8542456,106.266253 74.8365895,105.987649 74.8365895,105.987649 C74.8365895,105.987649 74.9316211,105.47024 75.025614,105.14098 C75.1201263,104.812236 75.1434947,104.153199 74.8365895,103.636307 C74.6371789,103.299294 74.2695158,103.165936 73.8452491,103.109595 L73.8447298,103.109595 C73.4666807,103.165936 73.0528,103.299294 72.8523509,103.636307 C72.5454456,104.153199 72.5693333,104.812236 72.6643649,105.14098 C72.7583579,105.47024 72.8523509,105.987649 72.8523509,105.987649 C72.8523509,105.987649 72.835214,106.266253 72.805614,106.45802 C72.7583579,106.763503 72.5693333,106.927358 72.5693333,106.927358 C72.5693333,106.927358 72.0728842,106.363946 71.2461614,103.776902 C71.1693053,103.535514 71.1282807,102.765861 70.7263439,101.566672 C70.5378386,101.002226 69.8762526,98.6043649 69.8762526,98.6043649 C69.8762526,98.6043649 70.0180211,98.3929561 70.0657965,98.2048074 C70.1125333,98.0171757 69.9349333,97.7034223 69.7578526,97.5468041 C69.5454596,97.3591723 69.2624421,97.1007264 69.2624421,97.1007264 L78.4275368,97.1007264 C78.4275368,97.1007264 78.144,97.3591723 77.9310877,97.5468041 C77.7545263,97.7034223 77.5774456,98.0171757 77.6247018,98.2048074 C77.6714386,98.3929561 77.813207,98.6043649 77.813207,98.6043649 C77.813207,98.6043649 77.1516211,101.002226 76.9620772,101.566672 C76.5611789,102.765861 76.5201544,103.535514 76.4422596,103.776902 C75.6160561,106.363946 75.1201263,106.927358 75.1201263,106.927358 C75.1201263,106.927358 74.9316211,106.763503 74.8838456,106.45802 M75.7822316,112.335598 C75.8050807,111.113149 77.7186947,106.269872 77.9072,105.564831 C78.0349474,105.089291 77.9783439,105.14098 78.0728561,104.812236 C78.1668491,104.482976 78.1902175,103.636307 78.237993,103.307564 C78.2857684,102.978304 78.8289544,99.4515507 79.1363789,98.3696959 C79.2293333,98.0404358 79.6084211,97.4759899 79.8447018,97.1234696 C79.8815719,97.0681622 79.9859509,96.9115439 79.9859509,96.7709493 C79.9859509,96.6298378 80.0591719,96.4933784 79.9386947,96.2540574 C79.8914386,96.1594662 79.6556772,96.0669426 79.5139088,96.2059865 C79.3721404,96.3476149 79.1831158,96.5119865 79.1831158,96.5119865 L73.8452491,88.7260439 L68.5063439,96.5119865 C68.5063439,96.5119865 68.3173193,96.3476149 68.1750316,96.2059865 C68.0337825,96.0669426 67.7975018,96.1594662 67.7502456,96.2540574 C67.6297684,96.4933784 67.7029895,96.6298378 67.7029895,96.7709493 C67.7029895,96.9115439 67.8078877,97.0681622 67.8447579,97.1234696 C68.0805193,97.4759899 68.459607,98.0404358 68.5536,98.3696959 C68.8610246,99.4515507 69.4042105,102.978304 69.4509474,103.307564 C69.4982035,103.636307 69.5226105,104.482976 69.6160842,104.812236 C69.7111158,105.14098 69.6550316,105.089291 69.7817404,105.564831 C69.9702456,106.269872 71.8838596,111.113149 71.9077474,112.335598 C71.9108632,112.513926 71.908786,112.022361 71.903593,112.37023 L73.8442105,114.974331 L75.7853474,112.37023 C75.7806737,112.021845 75.7785965,112.513409 75.7822316,112.335598" id="Fill-21" fill="#E6D09D"></path>
                <path d="M73.8452491,103.099257 L73.8452491,103.109595 C73.8888702,103.100291 73.9158737,103.095639 73.9158737,103.095639 L73.8452491,103.099257" id="Fill-22" fill="#FBD031"></path>
                <polyline id="Fill-23" fill="#204577" points="121.749474 153 25.9389474 153 22.4336842 149.51098 22.4336842 123.924831 25.9389474 120.435811 121.749474 120.435811 125.254737 123.924831 125.254737 149.510463 121.749474 153"></polyline>
                <path d="M26.0687719,52.9679797 C26.0687719,57.0550439 26.7059509,61.00875 27.8946246,64.7531149 L119.794316,64.7531149 C120.982989,61.00875 121.619649,57.0550439 121.619649,52.9679797 C121.619649,48.6534831 120.907691,44.4899189 119.588674,40.5620574 L28.0997474,40.5620574 C26.7807298,44.4899189 26.0687719,48.6534831 26.0687719,52.9679797" id="Fill-24" fill="#C69C33"></path>
                <path d="M45.5975018,52.7012635 L45.5975018,52.6578446 C45.5975018,48.228598 48.7382175,44.7550845 52.9980211,44.7550845 C55.4122386,44.7550845 57.1202105,45.5800439 58.5726877,46.9694493 L56.3345123,49.9436453 C55.3535579,49.031848 54.3720842,48.5108209 53.0172351,48.5108209 C51.0345544,48.5108209 49.5036632,50.356125 49.5036632,52.6795541 L49.5036632,52.722973 C49.5036632,55.175625 51.0542877,56.9346081 53.2332632,56.9346081 C54.1560561,56.9346081 54.8623018,56.7169966 55.4319719,56.3045169 L55.4319719,54.4597297 L52.722793,54.4597297 L52.722793,51.3764696 L59.0436912,51.3764696 L59.0436912,58.2154662 C57.591214,59.5392264 55.5690667,60.5595709 53.0764351,60.5595709 C48.7968982,60.5595709 45.5975018,57.303152 45.5975018,52.7012635" id="Fill-25" fill="#FFFFFE"></path>
                <path d="M71.429993,52.7012635 L71.429993,52.6578446 C71.429993,50.4646723 69.9972491,48.5542399 67.8966877,48.5542399 C65.8158596,48.5542399 64.4220632,50.4212534 64.4220632,52.6139088 L64.4220632,52.6578446 C64.4220632,54.8499831 65.854807,56.7604155 67.9356351,56.7604155 C70.0361965,56.7604155 71.429993,54.893402 71.429993,52.7012635 Z M60.5159018,52.7012635 L60.5159018,52.6578446 C60.5159018,48.2937264 63.6960842,44.7550845 67.9356351,44.7550845 C72.1757053,44.7550845 75.3164211,48.2503074 75.3164211,52.6139088 L75.3164211,52.6578446 C75.3164211,57.0214459 72.1367579,60.5595709 67.8966877,60.5595709 C63.6566175,60.5595709 60.5159018,57.0648649 60.5159018,52.7012635 Z" id="Fill-26" fill="#FFFFFE"></path>
                <polyline id="Fill-27" fill="#FFFFFE" points="77.1225404 45.0590169 80.9305544 45.0590169 80.9305544 56.5650304 87.5843228 56.5650304 87.5843228 60.2556385 77.1225404 60.2556385 77.1225404 45.0590169"></polyline>
                <path d="M94.3959579,56.5216115 C96.6730807,56.5216115 98.1842386,55.1322061 98.1842386,52.6795541 L98.1842386,52.6356182 C98.1842386,50.2041588 96.6730807,48.7930439 94.3959579,48.7930439 L92.8453333,48.7930439 L92.8453333,56.5216115 L94.3959579,56.5216115 Z M89.0373193,45.0590169 L94.3372772,45.0590169 C99.2441263,45.0590169 102.090919,48.1851791 102.090919,52.5704899 L102.090919,52.6139088 C102.090919,56.9997365 99.2051789,60.2556385 94.2588632,60.2556385 L89.0373193,60.2556385 L89.0373193,45.0590169 Z" id="Fill-28" fill="#FFFFFE"></path>
                <polygon id="Fill-29" fill="#FFFFFE" points="35.5916632 135.504243 37.3271579 135.504243 37.3271579 124.287172 35.5916632 124.287172"></polygon>
                <polyline id="Fill-30" fill="#FFFFFE" points="38.8850526 124.287172 40.5499228 124.287172 43.2414456 131.081716 43.2414456 124.287172 44.9411088 124.287172 44.9411088 135.504243 43.3655579 135.504243 40.5852351 128.453838 40.5852351 135.504243 38.8850526 135.504243 38.8850526 124.287172"></polyline>
                <polyline id="Fill-31" fill="#FFFFFE" points="47.6149754 125.777372 45.9329684 125.777372 45.9329684 124.287172 51.0153404 124.287172 51.0153404 125.777372 49.3504702 125.777372 49.3504702 135.504243 47.6149754 135.504243 47.6149754 125.777372"></polyline>
                <polyline id="Fill-32" fill="#FFFFFE" points="52.0248561 124.287172 56.6112982 124.287172 56.6112982 125.777372 53.778007 125.777372 53.778007 129.110291 56.3101053 129.110291 56.3101053 130.60049 53.778007 130.60049 53.778007 134.014044 56.6642667 134.014044 56.6642667 135.504243 52.0248561 135.504243 52.0248561 124.287172"></polyline>
                <path d="M59.8870316,129.991591 C61.0554526,129.991591 61.8525754,129.350645 61.8525754,127.908517 L61.8525754,127.812892 C61.8525754,126.274105 61.0024842,125.761865 59.8340632,125.761865 L59.5858386,125.761865 L59.5858386,129.991591 L59.8870316,129.991591 Z M57.8326877,124.287172 L59.8512,124.287172 C62.0473123,124.287172 63.6057263,125.392804 63.6057263,127.780328 L63.6057263,127.89301 C63.6057263,129.383209 62.9150596,130.360135 61.9408561,130.889432 L63.8181193,135.504243 L61.9408561,135.504243 L60.2765053,131.402189 C60.2058807,131.402189 60.1170807,131.417696 60.0464561,131.417696 L59.5858386,131.417696 L59.5858386,135.504243 L57.8326877,135.504243 L57.8326877,124.287172 Z" id="Fill-33" fill="#FFFFFE"></path>
                <polyline id="Fill-34" fill="#FFFFFE" points="64.7918035 124.287172 66.4566737 124.287172 69.1481965 131.081716 69.1481965 124.287172 70.8478596 124.287172 70.8478596 135.504243 69.2723088 135.504243 66.491986 128.453838 66.491986 135.504243 64.7918035 135.504243 64.7918035 124.287172"></polyline>
                <path d="M76.0190316,131.578449 L75.1149333,127.075804 L74.212393,131.578449 L76.0190316,131.578449 Z M74.212393,124.255642 L76.0714807,124.255642 L78.5334737,135.504243 L76.7803228,135.504243 L76.2838737,133.004554 L73.9465123,133.004554 L73.4511018,135.504243 L71.7509193,135.504243 L74.212393,124.255642 Z" id="Fill-35" fill="#FFFFFE"></path>
                <polyline id="Fill-36" fill="#FFFFFE" points="80.0207439 125.777372 78.3382175 125.777372 78.3382175 124.287172 83.4211088 124.287172 83.4211088 125.777372 81.7562386 125.777372 81.7562386 135.504243 80.0207439 135.504243 80.0207439 125.777372"></polyline>
                <polygon id="Fill-37" fill="#FFFFFE" points="84.5007298 135.504243 86.2362246 135.504243 86.2362246 124.287172 84.5007298 124.287172"></polygon>
                <path d="M92.1505123,130.136321 L92.1505123,129.655095 C92.1505123,126.755331 91.5657825,125.585088 90.7338667,125.585088 C89.9014316,125.585088 89.3167018,126.755331 89.3167018,129.655095 L89.3167018,130.136321 C89.3167018,133.036084 89.9014316,134.206328 90.7338667,134.206328 C91.5657825,134.206328 92.1505123,133.036084 92.1505123,130.136321 Z M87.5458947,130.136321 L87.5458947,129.655095 C87.5458947,125.87403 88.8560842,124.142959 90.7338667,124.142959 C92.6106105,124.142959 93.9208,125.87403 93.9208,129.655095 L93.9208,130.136321 C93.9208,133.917385 92.6106105,135.648456 90.7338667,135.648456 C88.8560842,135.648456 87.5458947,133.917385 87.5458947,130.136321 Z" id="Fill-38" fill="#FFFFFE"></path>
                <polyline id="Fill-39" fill="#FFFFFE" points="95.1603649 124.287172 96.8252351 124.287172 99.5167579 131.081716 99.5167579 124.287172 101.216421 124.287172 101.216421 135.504243 99.6408702 135.504243 96.8605474 128.453838 96.8605474 135.504243 95.1603649 135.504243 95.1603649 124.287172"></polyline>
                <path d="M106.387593,131.578449 L105.484014,127.075804 L104.581474,131.578449 L106.387593,131.578449 Z M104.581474,124.255642 L106.440561,124.255642 L108.902035,135.504243 L107.148884,135.504243 L106.652954,133.004554 L104.315593,133.004554 L103.819663,135.504243 L102.119481,135.504243 L104.581474,124.255642 Z" id="Fill-40" fill="#FFFFFE"></path>
                <polyline id="Fill-41" fill="#FFFFFE" points="109.822232 124.287172 111.575382 124.287172 111.575382 134.014044 114.107481 134.014044 114.107481 135.504243 109.822232 135.504243 109.822232 124.287172"></polyline>
                <path d="M29.5974035,148.001655 C30.8551439,148.001655 31.6870596,147.392757 31.6870596,146.303149 L31.6870596,146.239054 C31.6870596,145.117399 30.8899368,144.492476 29.6327158,144.492476 L29.4203228,144.492476 L29.4203228,148.001655 L29.5974035,148.001655 Z M29.5974035,143.114443 C30.8193123,143.114443 31.5629474,142.48952 31.5629474,141.367865 L31.5629474,141.336334 C31.5629474,140.246209 30.8016561,139.701922 29.6685474,139.701922 L29.4203228,139.701922 L29.4203228,143.114443 L29.5974035,143.114443 Z M27.6671719,138.243253 L29.4561544,138.243253 C31.5099789,138.243253 33.280786,139.124554 33.280786,141.079956 L33.280786,141.144051 C33.280786,142.650274 32.3247579,143.370821 31.3505544,143.739365 C32.5194947,144.107909 33.4402105,144.845514 33.4402105,146.303149 L33.4402105,146.415831 C33.4402105,148.354693 31.7935158,149.460324 29.4203228,149.460324 L27.6671719,149.460324 L27.6671719,138.243253 Z" id="Fill-42" fill="#FFFFFE"></path>
                <path d="M34.5021754,146.303149 L34.5021754,138.243253 L36.2376702,138.243253 L36.2376702,146.447361 C36.2376702,147.617088 36.7336,148.146385 37.4595789,148.146385 C38.203214,148.146385 38.6991439,147.617088 38.6991439,146.447361 L38.6991439,138.243253 L40.4169825,138.243253 L40.4169825,146.303149 C40.4169825,148.514412 39.1950737,149.604537 37.4595789,149.604537 C35.7240842,149.604537 34.5021754,148.514412 34.5021754,146.303149" id="Fill-43" fill="#FFFFFE"></path>
                <path d="M41.5677474,149.059216 L41.5677474,147.392757 C42.3466947,147.825395 42.984393,148.050243 43.5862596,148.050243 C44.3298947,148.050243 44.8969684,147.665676 44.8969684,146.896541 L44.8969684,146.863976 C44.8969684,146.223547 44.6664,145.758345 43.5332912,144.525041 C42.0101895,142.874088 41.4612912,142.169047 41.4612912,140.903696 L41.4612912,140.871132 C41.4612912,139.220696 42.7008561,138.131605 44.2945825,138.131605 C45.1270175,138.131605 45.6582596,138.275818 46.2071579,138.531679 L46.2071579,140.198655 C45.5341474,139.830111 45.056393,139.653851 44.4893193,139.653851 C43.7809965,139.653851 43.2144421,140.08649 43.2144421,140.791014 L43.2144421,140.823578 C43.2144421,141.4485 43.4450105,141.784997 44.5781193,143.002277 C46.224814,144.764878 46.6501193,145.518507 46.6501193,146.784375 L46.6501193,146.815905 C46.6501193,148.466858 45.3570667,149.571973 43.7456842,149.571973 C42.9309053,149.571973 42.2231018,149.364182 41.5677474,149.059216" id="Fill-44" fill="#FFFFFE"></path>
                <polygon id="Fill-45" fill="#FFFFFE" points="47.7297404 149.460324 49.4652351 149.460324 49.4652351 138.243253 47.7297404 138.243253"></polygon>
                <polyline id="Fill-46" fill="#FFFFFE" points="51.0231298 138.243253 52.688 138.243253 55.3800421 145.037797 55.3800421 138.243253 57.0797053 138.243253 57.0797053 149.460324 55.5036351 149.460324 52.7233123 142.409919 52.7233123 149.460324 51.0231298 149.460324 51.0231298 138.243253"></polyline>
                <polyline id="Fill-47" fill="#FFFFFE" points="58.5674947 138.243253 63.1539368 138.243253 63.1539368 139.733453 60.3206456 139.733453 60.3206456 143.066372 62.8527439 143.066372 62.8527439 144.556571 60.3206456 144.556571 60.3206456 147.970125 63.2069053 147.970125 63.2069053 149.460324 58.5674947 149.460324 58.5674947 138.243253"></polyline>
                <path d="M64.0741333,149.059216 L64.0741333,147.392757 C64.8536,147.825395 65.4907789,148.050243 66.0926456,148.050243 C66.8368,148.050243 67.4033544,147.665676 67.4033544,146.896541 L67.4033544,146.863976 C67.4033544,146.223547 67.1733053,145.758345 66.0396772,144.525041 C64.5170947,142.874088 63.9681965,142.169047 63.9681965,140.903696 L63.9681965,140.871132 C63.9681965,139.220696 65.2072421,138.131605 66.8014877,138.131605 C67.6334035,138.131605 68.1646456,138.275818 68.7135439,138.531679 L68.7135439,140.198655 C68.0405333,139.830111 67.5627789,139.653851 66.9962246,139.653851 C66.2873825,139.653851 65.7213474,140.08649 65.7213474,140.791014 L65.7213474,140.823578 C65.7213474,141.4485 65.9513965,141.784997 67.0845053,143.002277 C68.7312,144.764878 69.1565053,145.518507 69.1565053,146.784375 L69.1565053,146.815905 C69.1565053,148.466858 67.8639719,149.571973 66.2525895,149.571973 C65.4378105,149.571973 64.7294877,149.364182 64.0741333,149.059216" id="Fill-48" fill="#FFFFFE"></path>
                <path d="M69.7765474,149.059216 L69.7765474,147.392757 C70.5554947,147.825395 71.193193,148.050243 71.7950596,148.050243 C72.5386947,148.050243 73.1052491,147.665676 73.1052491,146.896541 L73.1052491,146.863976 C73.1052491,146.223547 72.8752,145.758345 71.7420912,144.525041 C70.2189895,142.874088 69.6700912,142.169047 69.6700912,140.903696 L69.6700912,140.871132 C69.6700912,139.220696 70.9096561,138.131605 72.5033825,138.131605 C73.3358175,138.131605 73.8670596,138.275818 74.4159579,138.531679 L74.4159579,140.198655 C73.7429474,139.830111 73.2646737,139.653851 72.6981193,139.653851 C71.9897965,139.653851 71.4232421,140.08649 71.4232421,140.791014 L71.4232421,140.823578 C71.4232421,141.4485 71.6532912,141.784997 72.7869193,143.002277 C74.433614,144.764878 74.8584,145.518507 74.8584,146.784375 L74.8584,146.815905 C74.8584,148.466858 73.5658667,149.571973 71.9544842,149.571973 C71.1397053,149.571973 70.4313825,149.364182 69.7765474,149.059216" id="Fill-49" fill="#FFFFFE"></path>
                <path d="M82.4022456,145.53453 L81.4986667,141.031885 L80.5961263,145.53453 L82.4022456,145.53453 Z M80.5961263,138.211723 L82.455214,138.211723 L84.9166877,149.460324 L83.1635368,149.460324 L82.667607,146.960635 L80.3302456,146.960635 L79.8343158,149.460324 L78.1346526,149.460324 L80.5961263,138.211723 Z" id="Fill-50" fill="#FFFFFE"></path>
                <polyline id="Fill-51" fill="#FFFFFE" points="85.0049684 138.243253 86.811607 138.243253 87.9447158 145.998699 89.308393 138.243253 90.9192561 138.243253 92.2652772 145.998699 93.4165614 138.243253 95.1697123 138.243253 93.2218246 149.507878 91.415186 149.507878 90.0878596 141.912669 88.7589754 149.507878 86.9710316 149.507878 85.0049684 138.243253"></polyline>
                <path d="M99.4902737,145.53453 L98.587214,141.031885 L97.6841544,145.53453 L99.4902737,145.53453 Z M97.6841544,138.211723 L99.5432421,138.211723 L102.005235,149.460324 L100.251565,149.460324 L99.7561544,146.960635 L97.418793,146.960635 L96.9228632,149.460324 L95.2226807,149.460324 L97.6841544,138.211723 Z" id="Fill-52" fill="#FFFFFE"></path>
                <path d="M104.979775,143.947672 C106.148196,143.947672 106.945319,143.306726 106.945319,141.864598 L106.945319,141.768973 C106.945319,140.230186 106.095747,139.717946 104.926807,139.717946 L104.678582,139.717946 L104.678582,143.947672 L104.979775,143.947672 Z M102.925432,138.243253 L104.944463,138.243253 C107.140056,138.243253 108.697951,139.348885 108.697951,141.736409 L108.697951,141.849091 C108.697951,143.339291 108.007284,144.316216 107.0336,144.845514 L108.911382,149.460324 L107.0336,149.460324 L105.369249,145.35827 C105.298625,145.35827 105.210344,145.373777 105.1392,145.373777 L104.678582,145.373777 L104.678582,149.460324 L102.925432,149.460324 L102.925432,138.243253 Z" id="Fill-53" fill="#FFFFFE"></path>
                <path d="M111.90306,148.017679 C113.177937,148.017679 114.187453,146.944095 114.187453,144.028307 L114.187453,143.67527 C114.187453,140.758966 113.1608,139.685382 111.885923,139.685382 L111.637698,139.685382 L111.637698,148.017679 L111.90306,148.017679 Z M109.885067,138.243253 L111.744154,138.243253 C114.365053,138.243253 115.95826,140.070466 115.95826,143.67527 L115.95826,144.028307 C115.95826,147.633111 114.365053,149.460324 111.744154,149.460324 L109.885067,149.460324 L109.885067,138.243253 Z" id="Fill-54" fill="#FFFFFE"></path>
                <path d="M116.80887,149.059216 L116.80887,147.392757 C117.588337,147.825395 118.224996,148.050243 118.827382,148.050243 C119.571018,148.050243 120.138091,147.665676 120.138091,146.896541 L120.138091,146.863976 C120.138091,146.223547 119.907523,145.758345 118.774414,144.525041 C117.251312,142.874088 116.702414,142.169047 116.702414,140.903696 L116.702414,140.871132 C116.702414,139.220696 117.941979,138.131605 119.535705,138.131605 C120.36814,138.131605 120.899382,138.275818 121.448281,138.531679 L121.448281,140.198655 C120.774751,139.830111 120.296996,139.653851 119.730442,139.653851 C119.022119,139.653851 118.455046,140.08649 118.455046,140.791014 L118.455046,140.823578 C118.455046,141.4485 118.685614,141.784997 119.818723,143.002277 C121.465418,144.764878 121.890723,145.518507 121.890723,146.784375 L121.890723,146.815905 C121.890723,148.466858 120.598189,149.571973 118.986807,149.571973 C118.172547,149.571973 117.463705,149.364182 116.80887,149.059216" id="Fill-55" fill="#FFFFFE"></path>
                <path d="M46.7093193,19.3457128 C46.5348351,19.3457128 46.3603509,19.1963311 46.3603509,18.9983615 C46.3603509,18.7993581 46.609614,18.5765777 46.8588772,18.3532804 C50.3490807,15.3010338 55.3094175,11.4305473 55.3094175,6.19546622 C55.3094175,2.27535811 53.1408281,1.48141216 51.893993,1.48141216 C50.8221614,1.48141216 49.999593,1.67989865 49.2518035,2.37460135 C48.6535719,2.94525 48.2048982,4.11135811 48.2048982,4.75643919 C48.2048982,5.0045473 48.1306386,5.22784459 47.8808561,5.22784459 C47.7562246,5.22784459 47.6814456,5.05416892 47.6565193,4.75643919 C47.631593,4.53314189 47.5069614,2.47384459 47.5069614,1.75433108 C47.5069614,1.53103378 47.5318877,1.43179054 47.8065965,1.25811486 C48.7782035,0.761898649 50.1242246,0.315304054 52.3182596,0.315304054 C56.7052912,0.315304054 58.5747649,2.69714189 58.5747649,5.60000676 C58.5747649,10.4133041 53.215607,14.606848 49.999593,17.1618446 C49.8749614,17.2610878 49.924814,17.3355203 50.0494456,17.3355203 L51.7449544,17.3355203 C52.1687018,17.3355203 55.110007,17.3107095 56.0322807,17.1866554 C57.7521965,16.9881689 58.5747649,16.1451182 58.8738807,14.9784932 C58.9486596,14.6807635 59.0234386,14.5820372 59.1729965,14.5820372 C59.3474807,14.5820372 59.372407,14.8048176 59.372407,15.0529257 C59.372407,15.4498986 58.898807,17.7573041 58.6495439,18.6013885 C58.4501333,19.2707635 58.0513123,19.3457128 56.4809544,19.3457128 L46.7093193,19.3457128" id="Fill-56" fill="#060403"></path>
                <path d="M66.9993404,1.43179054 C65.1298667,1.43179054 63.7838456,3.98730405 63.7838456,9.64416892 C63.7838456,13.9369561 64.8556772,18.6504932 67.5975719,18.6504932 C69.6166035,18.6504932 70.8629193,15.2519291 70.8629193,10.4381149 C70.8629193,6.14584459 69.7163088,1.43179054 66.9993404,1.43179054 Z M67.1239719,19.7669797 C62.2134877,19.7669797 60.8674667,14.1106318 60.8674667,10.5869797 C60.8674667,4.80606081 62.9114246,0.315304054 67.522793,0.315304054 C72.4582035,0.315304054 73.7792982,5.52557432 73.7792982,9.47101014 C73.7792982,15.6235743 71.4112982,19.7669797 67.1239719,19.7669797 Z" id="Fill-57" fill="#060403"></path>
                <path d="M79.7117614,7.93222297 C79.7117614,6.59243919 79.7117614,5.52557432 79.7117614,4.68200676 C79.7117614,4.0865473 79.7117614,3.78881757 79.3378667,3.78881757 C78.8642667,3.78881757 76.9953123,4.75643919 76.446414,4.97973649 C76.3217825,5.02935811 76.1971509,5.07897973 76.0974456,5.07897973 C76.023186,5.07897973 75.8980351,4.95492568 75.8980351,4.80606081 C75.8980351,4.65719595 76.023186,4.53314189 76.1472982,4.45870946 C76.2470035,4.40908784 81.0328561,1.28292568 81.9057965,0.637844595 C82.129614,0.48897973 82.3539509,0.315304054 82.5538807,0.315304054 C82.7776982,0.315304054 82.8524772,0.588222973 82.8524772,0.836331081 C82.8524772,1.03481757 82.7029193,3.49108784 82.7029193,7.28714189 L82.7029193,11.8771419 C82.7029193,14.2594966 82.7029193,16.3678986 82.8026246,17.4600912 C82.8779228,18.2540372 83.0020351,18.6256824 83.7996772,18.7993581 C84.1735719,18.8737905 85.2454035,18.948223 85.444814,18.948223 C85.5445193,18.948223 85.6696702,19.0226554 85.6696702,19.1963311 C85.6696702,19.3700068 85.5445193,19.4196284 85.2703298,19.4196284 C83.3764491,19.4196284 81.7806456,19.3457128 81.1081544,19.3457128 C80.5343298,19.3457128 78.4405193,19.4196284 76.8457544,19.4196284 C76.5710456,19.4196284 76.4214877,19.3700068 76.4214877,19.1963311 C76.4214877,19.0226554 76.521193,18.948223 76.6208982,18.948223 C76.8950877,18.948223 78.1663298,18.8737905 78.6150035,18.7750642 C79.4126456,18.6013885 79.5372772,18.2540372 79.6125754,17.4600912 C79.7117614,16.3678986 79.761614,14.2594966 79.7366877,11.8771419 L79.7117614,7.93222297" id="Fill-58" fill="#060403"></path>
                <path d="M93.4207158,1.38216892 C91.2526456,1.38216892 90.3797053,2.92043919 90.3797053,4.30984459 C90.3797053,5.84811486 91.4515368,6.86535811 93.7203509,8.13070946 C94.4426947,7.80816892 96.1631298,6.8405473 96.1631298,4.33465541 C96.1631298,2.47384459 94.9162947,1.38216892 93.4207158,1.38216892 Z M93.2711579,18.6256824 C95.2154105,18.6256824 96.7857684,17.1618446 96.7857684,14.87925 C96.7857684,12.3986858 94.7916632,11.2320608 92.5737404,9.94189865 C91.2272,10.7110338 89.6324351,12.2250101 89.6324351,14.7557128 C89.6324351,16.963875 91.2526456,18.6256824 93.2711579,18.6256824 Z M86.8152421,14.9040608 C86.8152421,12.1505777 88.9838316,10.3140608 91.4016842,9.34643919 C89.3328,8.27957432 87.7873684,6.91497973 87.7873684,4.80606081 C87.7873684,2.87081757 89.4579509,0.315304054 93.6949053,0.315304054 C96.7359158,0.315304054 98.8053193,1.70470946 98.8053193,4.11135811 C98.8053193,6.71649324 96.5120982,8.18033108 95.1406316,8.70135811 C96.9104,9.64416892 99.6772211,11.1824392 99.6772211,14.2594966 C99.6772211,17.1866554 97.2593684,19.7669797 93.0722667,19.7669797 C89.3826526,19.7669797 86.8152421,17.9557905 86.8152421,14.9040608 Z" id="Fill-59" fill="#060403"></path>
            </g>
        </g>
    </g>
</svg>