<?xml version="1.0" encoding="UTF-8"?>
<svg width="30px" height="30px" viewBox="0 0 30 30" version="1.1" xmlns="http://www.w3.org/2000/svg" xmlns:xlink="http://www.w3.org/1999/xlink">
    <!-- Generator: Sketch 49 (51002) - http://www.bohemiancoding.com/sketch -->
    <title>try/SVG</title>
    <desc>Created with Sketch.</desc>
    <defs>
        <path d="M16.1176471,23.6470588 C19.8823529,22.9803922 22.5882353,20.4313725 23.4509804,16.627451 L18.9411765,16.627451 C18.3137255,17.6862745 17.2941176,18.5882353 16.1176471,19.1372549 L16.1176471,23.6470588 Z M25.0588235,15.2941176 C24.5098039,20.9803922 20.4313725,24.9019608 14.7058824,25.2156863 L14.7058824,18.1568627 C16.1960784,17.8823529 17.6078431,16.7058824 18.0392157,15.2941176 L25.0588235,15.2941176 Z M11.9215686,23.6470588 L11.9215686,19.1372549 C10.7058824,18.627451 9.68627451,17.7254902 9.05882353,16.627451 L4.50980392,16.627451 C5.37254902,20.3921569 8.07843137,22.9803922 11.9215686,23.6470588 Z M19.1372549,12.627451 L23.6470588,12.627451 C23.0980392,7.45098039 19.3333333,4.15686275 14,4.15686275 C8.62745098,4.15686275 4.82352941,7.45098039 4.2745098,12.627451 L8.8627451,12.627451 C9.45098039,11.0588235 10.9411765,10.4313725 14,10.4313725 C17.0588235,10.4313725 18.5490196,11.0588235 19.1372549,12.627451 Z M13.3333333,25.2156863 C7.52941176,24.9411765 3.41176471,21.0588235 2.8627451,15.2941176 L9.96078431,15.2941176 C10.3921569,16.7058824 11.8039216,17.8823529 13.3333333,18.1568627 L13.3333333,25.2156863 Z M14,11.7647059 C10.9803922,11.7647059 10.1176471,12.2352941 9.88235294,13.9607843 L2.78431373,13.9607843 C2.78431373,7.37254902 7.37254902,2.78431373 14,2.78431373 C20.5490196,2.78431373 25.1372549,7.37254902 25.1372549,13.9607843 L18.1176471,13.9607843 C17.8823529,12.2352941 17.0196078,11.7647059 14,11.7647059 Z M14,26.5882353 C21.5686275,26.5882353 26.5490196,21.5686275 26.5490196,13.9607843 C26.5490196,6.39215686 21.5686275,1.41176471 14,1.41176471 C6.43137255,1.41176471 1.45098039,6.39215686 1.45098039,13.9607843 C1.45098039,21.6078431 6.43137255,26.5882353 14,26.5882353 Z M0,13.9607843 C0,5.56862745 5.60784314,0 14,0 C22.4705882,0 28,5.52941176 28,13.9607843 C28,22.4313725 22.4313725,28 14,28 C5.56862745,28 0,22.3921569 0,13.9607843 Z" id="path-1"></path>
    </defs>
    <g id="try/SVG" stroke="none" stroke-width="1" fill="none" fill-rule="evenodd">
        <g id="icons/warranty/essai_smart" transform="translate(1.000000, 1.000000)">
            <g id="Icon/Carparts/Cockpit/ICON_COCKPIT_01"></g>
            <mask id="mask-2" fill="white">
                <use xlink:href="#path-1"></use>
            </mask>
            <use id="ICON_COCKPIT_01" fill="#FFCE00" xlink:href="#path-1"></use>
        </g>
    </g>
</svg>