<?xml version="1.0" encoding="UTF-8"?>
<svg width="30px" height="30px" viewBox="0 0 30 30" version="1.1" xmlns="http://www.w3.org/2000/svg" xmlns:xlink="http://www.w3.org/1999/xlink">
    <!-- Generator: Sketch 49 (51002) - http://www.bohemiancoding.com/sketch -->
    <title>reassurance/v2/SVG</title>
    <desc>Created with Sketch.</desc>
    <defs>
        <path d="M22.6233537,13.050441 C22.7803718,13.5340849 22.9423484,14.0346691 22.8266509,14.3497576 C22.7109533,14.6648461 22.2671705,14.9316549 21.8382631,15.1882996 C21.4110085,15.4457912 20.9688785,15.711753 20.6589743,16.1098487 C20.3358475,16.5240376 20.1746973,17.0356329 20.0185056,17.531135 C19.8689252,18.0054618 19.7152127,18.4950348 19.4623309,18.6652842 C19.2408527,18.8143583 18.7243457,18.791489 18.2144499,18.7415153 C17.6574488,18.6864595 17.1095382,18.6635902 16.6979854,18.7804778 C16.2104028,18.9176938 15.7930651,19.2327823 15.3897765,19.5368596 C15.0013632,19.8290788 14.6005538,20.1306151 14.2889967,20.1306151 L14.2889967,20.7658742 L14.2658572,20.1306151 C14.128673,20.124686 13.9724813,20.0425258 13.8096783,19.9273322 L13.7898444,19.8782055 L13.7576143,19.8909107 C13.5898529,19.7672469 13.4154801,19.6113967 13.2435866,19.4555465 C12.8576526,19.1074245 12.4584959,18.7474444 11.964302,18.5560196 C11.5130815,18.3823821 11.033763,18.3671359 10.5403955,18.3671359 L10.3106532,18.3679829 C9.85530066,18.3679829 9.42887248,18.3544307 9.22144327,18.1841813 C8.97351991,17.9808984 8.86443363,17.4718441 8.758653,16.9780361 C8.65121954,16.4766049 8.53965403,15.9582335 8.26280628,15.5245634 C7.98100006,15.0858111 7.55705111,14.7724166 7.14715116,14.4700333 C6.75047378,14.1769671 6.33974742,13.8737368 6.25793271,13.5688124 C6.17777082,13.2706642 6.37693592,12.7980314 6.57031614,12.3406449 C6.77113406,11.8637771 6.9802161,11.369122 7.00418202,10.8397395 C7.02649512,10.3306852 6.86534494,9.83264209 6.70915322,9.35069221 C6.55296151,8.86704831 6.3901585,8.36646416 6.50668248,8.05137566 C6.62238005,7.73628717 7.06616286,7.46947836 7.49589669,7.21113967 C7.92232487,6.95534202 8.36445486,6.68938022 8.67518547,6.29213155 C8.99748584,5.87794264 9.15863602,5.36550032 9.31482774,4.86999825 C9.46358175,4.39651849 9.61812065,3.9069455 9.87017606,3.73669607 C10.0924807,3.58762194 10.6081613,3.60964425 11.1188834,3.66046498 C11.6767109,3.71467375 12.225448,3.73669607 12.6353479,3.62150242 C13.1229305,3.48343945 13.5402682,3.16835096 13.9443833,2.86427361 C14.3311437,2.57290145 14.7319532,2.27051814 15.0658233,2.27051814 L15.0666497,2.27051814 C15.3575464,2.28491734 15.7294315,2.62118114 16.0897468,2.94558677 C16.4756808,3.29370874 16.8748374,3.6545359 17.3690313,3.84596063 C17.8202518,4.01959811 18.3185778,4.03399731 18.791285,4.03399731 L19.0251593,4.0331503 C19.4788591,4.0331503 19.9044609,4.04754951 20.1118901,4.21779894 C20.358987,4.42023483 20.4688997,4.93013611 20.5746803,5.42394416 C20.6821138,5.92537531 20.7936793,6.44374671 21.0713535,6.87656989 C21.3515069,7.31532216 21.7762822,7.62871663 22.1861822,7.93109995 C22.5828595,8.22501314 22.9927595,8.52739646 23.0745742,8.83316783 C23.1555625,9.13046907 22.955571,9.60310182 22.7630172,10.0596413 C22.5613729,10.5373562 22.3531172,11.0320112 22.3291513,11.5622408 C22.3060118,12.0712951 22.4679884,12.5693382 22.6233537,13.050441 Z M20.2432894,26.6051755 L18.6260027,26.1571061 C18.3640304,26.0834161 18.088009,26.1935277 17.9425607,26.426456 L16.9649162,27.9858052 L14.3815548,21.3875811 C15.0567328,21.3503125 15.6236508,20.9369706 16.1236296,20.5600502 C16.4368395,20.3245809 16.7607926,20.0806414 17.0277235,20.0044103 C17.1822624,19.9603657 17.4128311,19.9586717 17.6607544,19.9722238 L20.2432894,26.6051755 Z M12.7452606,25.4845785 L11.8246386,24.0497401 C11.6750581,23.8185058 11.3990368,23.7109352 11.1378908,23.7880133 L9.39829527,24.2911385 L11.0131028,19.6520533 C11.2048302,19.6656055 11.3841614,19.6901688 11.5279569,19.7452246 C11.8097631,19.8536422 12.1221466,20.1356972 12.4246131,20.4092821 C12.5411371,20.5151586 12.6626195,20.6235761 12.7874076,20.7286056 L13.6452224,22.9181319 L12.7452606,25.4845785 Z M23.5671153,11.6206846 C23.5811643,11.3233834 23.7431409,10.9371459 23.9009854,10.5636135 C24.1662634,9.93597757 24.4662507,9.22448741 24.2703912,8.49521 C24.0720525,7.75830948 23.4547234,7.30261698 22.9109448,6.90028623 C22.5919501,6.66481687 22.262212,6.4217244 22.1068467,6.17863193 C21.954787,5.94231556 21.8680139,5.53998481 21.7845463,5.15035925 C21.6399244,4.4744436 21.4754685,3.70789766 20.8854109,3.22510077 C20.3217985,2.76263216 19.5722435,2.76263216 19.0251593,2.76263216 L18.791285,2.76347918 C18.4177471,2.76347918 18.0615639,2.75500905 17.8053764,2.65675565 C17.5243966,2.5483381 17.2111868,2.26543607 16.9087203,1.99269817 C16.4128735,1.54462878 15.8500875,1.03642152 15.0435102,1 C14.3253588,1 13.732822,1.44637537 13.2097037,1.84108301 C12.8964939,2.07655237 12.5725407,2.32133886 12.3064363,2.39587593 C12.062645,2.46533092 11.6362168,2.43483848 11.2370602,2.39502892 C10.9701294,2.36961855 10.704025,2.34420819 10.4494903,2.34420819 C10.1197522,2.34420819 9.6296904,2.37808867 9.18921323,2.67454291 C8.57271048,3.09042584 8.33966252,3.82902039 8.13471254,4.48037269 C8.0132301,4.8666102 7.88761559,5.26639991 7.70663154,5.49848122 C7.53969648,5.71277528 7.21409047,5.90843507 6.869477,6.11510602 C6.28189863,6.46831006 5.61663762,6.86725276 5.34640116,7.60330627 C5.07616469,8.33935978 5.31912959,9.08896548 5.53317009,9.75048192 C5.65878459,10.1392605 5.7777878,10.5077107 5.76621804,10.7812956 C5.75216905,11.0785969 5.58936605,11.4639874 5.43234792,11.8366727 C5.16706992,12.4651557 4.86708266,13.1766458 5.06294211,13.9067703 C5.2612808,14.6428238 5.87778356,15.0985163 6.42238854,15.500847 C6.74138326,15.7363164 7.07112133,15.9802559 7.22648663,16.2225013 C7.3785463,16.4588177 7.46449306,16.8619954 7.54796059,17.250774 C7.69340896,17.9275367 7.85786479,18.6932356 8.44709598,19.1760325 C8.82393948,19.4851919 9.28177129,19.5809043 9.70902588,19.6147847 L7.82646117,25.024651 C7.74877851,25.2482622 7.7991896,25.4981307 7.95786055,25.6709212 C8.1165315,25.8445587 8.35619074,25.9148607 8.57932177,25.8487937 L11.0387215,25.1373036 L12.392383,27.2438227 C12.5072542,27.4242362 12.7031137,27.5301127 12.9097165,27.5301127 C12.9336824,27.5301127 12.9584747,27.5284187 12.9832671,27.5258777 C13.216315,27.4970793 13.4138273,27.3353 13.4931628,27.1099947 L14.3402342,24.6934692 L16.2624667,29.6010573 C16.3484135,29.8221275 16.5475786,29.9737426 16.7789737,29.997459 C16.7979812,29.999153 16.817815,30 16.8376489,30 C17.0467309,30 17.2442432,29.8907354 17.3582879,29.7077808 L18.7400475,27.5038554 L21.1168061,28.1628308 C21.3432427,28.2255097 21.5845548,28.1518196 21.7415729,27.9722531 C21.8977647,27.7926865 21.940738,27.5377358 21.8539649,27.3141247 L19.0276386,20.051843 C19.3474597,20.0408318 19.7614917,19.984082 20.1441201,19.7265903 C20.7606229,19.3107074 20.9928444,18.5729599 21.1977944,17.9216076 C21.3201032,17.5353701 21.4457177,17.1347333 21.6275282,16.902652 C21.7944633,16.688358 22.1200693,16.4918512 22.4655092,16.2843332 C23.0522611,15.9328232 23.7166957,15.5338805 23.9861058,14.797827 C24.2571686,14.0609265 24.0142037,13.3121678 23.8001632,12.6498043 C23.6737223,12.2610258 23.5547191,11.8942695 23.5671153,11.6206846 Z M19.2889723,12.7315467 C18.6494638,14.4315627 17.0004048,15.5725003 15.1853013,15.5725003 C14.6587031,15.5725003 14.1396954,15.4785295 13.6415619,15.2896389 C12.5456683,14.8776864 11.676544,14.0623241 11.1935917,12.9954241 C10.7096906,11.9275748 10.6707888,10.7363297 11.0835279,9.64095362 C11.7239853,7.9409376 13.3730443,6.8 15.187199,6.8 C15.7128484,6.8 16.2328049,6.89491993 16.7309383,7.0828614 C17.826832,7.49481392 18.6959563,8.31017615 19.1789086,9.3770762 C19.6628097,10.4449255 19.7017115,11.6361706 19.2889723,12.7315467 M17.0229671,6.17640012 C16.4194844,5.94884696 15.7899521,5.83333333 15.1508683,5.83333333 C12.9514128,5.83333333 10.9525393,7.21775981 10.1771292,9.27702905 C9.67697662,10.60587 9.72386592,12.0493561 10.3091139,13.3425876 C10.8952301,14.6366876 11.9493711,15.6241989 13.2779013,16.1253369 C13.8805156,16.351153 14.5100479,16.4666667 15.1491317,16.4666667 C17.3494555,16.4666667 19.3483291,15.0831087 20.1228708,13.0238395 C20.6230234,11.6949985 20.5761341,10.2515124 19.9908861,8.95828092 C19.4047699,7.66418089 18.3506289,6.67666966 17.0229671,6.17640012" id="path-1"></path>
    </defs>
    <g id="reassurance/v2/SVG" stroke="none" stroke-width="1" fill="none" fill-rule="evenodd">
        <mask id="mask-2" fill="white">
            <use xlink:href="#path-1"></use>
        </mask>
        <use id="Fill-1" fill="#FFCE00" xlink:href="#path-1"></use>
    </g>
</svg>