<?xml version="1.0" encoding="UTF-8"?>
<svg width="30px" height="30px" viewBox="0 0 30 30" version="1.1" xmlns="http://www.w3.org/2000/svg" xmlns:xlink="http://www.w3.org/1999/xlink">
    <!-- Generator: Sketch 50.2 (55047) - http://www.bohemiancoding.com/sketch -->
    <title>export-30x30</title>
    <desc>Created with Sketch.</desc>
    <defs>
        <path d="M23.3173684,11.6376842 L23.3173684,18.3223158 L23.8744211,18.3223158 C25.6848421,18.3223158 26.6132632,17.1617895 26.6132632,15.0264211 C26.6132632,12.7517895 25.6848421,11.6376842 23.8744211,11.6376842 L23.3173684,11.6376842 Z M6.74505263,18.3223158 L6.74505263,11.6376842 L6.14323684,11.6376842 C4.33281579,11.6376842 3.40273684,12.7517895 3.40273684,15.0264211 C3.40273684,17.1617895 4.33281579,18.3223158 6.14323684,18.3223158 L6.74505263,18.3223158 Z M12.5029211,28.21 C11.0622105,28.21 10.0409474,27.2351579 10.0409474,26.0282105 C7.07,25.0997895 5.30765789,22.9644211 5.02913158,19.9006316 C2.93852632,19.4364211 1.73157895,17.6724211 1.73157895,15.0264211 C1.73157895,11.8697895 3.35797368,10.0129474 6.14323684,10.0129474 L6.74505263,10.0129474 C6.74505263,4.99947368 9.99618421,1.75 15.0544211,1.75 C20.1143158,1.75 23.3637895,4.99947368 23.3637895,10.0129474 L23.8744211,10.0129474 C26.6596842,10.0129474 28.2844211,11.8697895 28.2844211,15.0264211 C28.2844211,18.0902105 26.6132632,19.9934737 23.8744211,19.9934737 L21.6462105,19.9934737 L21.6462105,11.0342105 C21.6462105,5.97431579 19.4644211,3.46757895 15.0544211,3.46757895 C10.6444211,3.46757895 8.41621053,6.02073684 8.41621053,11.0342105 L8.41621053,19.9934737 L6.70028947,19.9934737 C6.97881579,22.3145263 8.13768421,23.7535789 10.3658947,24.4498947 C10.7372632,23.7071579 11.48,23.2893684 12.5029211,23.2893684 C14.0331579,23.2893684 15.008,24.2642105 15.008,25.7961053 C15.008,27.2351579 14.0331579,28.21 12.5029211,28.21 Z" id="path-1"></path>
    </defs>
    <g id="Icons" stroke="none" stroke-width="1" fill="none" fill-rule="evenodd">
        <g id="Global-icons" transform="translate(-603.000000, -6558.000000)">
            <g id="person/user_4/default" transform="translate(603.000000, 6558.000000)">
                <mask id="mask-2" fill="white">
                    <use xlink:href="#path-1"></use>
                </mask>
                <use id="Page-1" fill="#000000" fill-rule="evenodd" xlink:href="#path-1"></use>
                <g id="colors/dacia/Blue-light" mask="url(#mask-2)" fill="#0089CD" fill-rule="evenodd">
                    <g transform="translate(15.000000, 15.000000) scale(1, -1) translate(-15.000000, -15.000000) translate(-5.000000, -5.000000)" id="Rectangle-Copy-2">
                        <rect x="0" y="0" width="40" height="40"></rect>
                    </g>
                </g>
            </g>
        </g>
    </g>
</svg>