<?xml version="1.0" encoding="UTF-8"?>
<svg width="30px" height="30px" viewBox="0 0 30 30" version="1.1" xmlns="http://www.w3.org/2000/svg" xmlns:xlink="http://www.w3.org/1999/xlink">
    <!-- Generator: Sketch 50.2 (55047) - http://www.bohemiancoding.com/sketch -->
    <title>dacia-location</title>
    <desc>Created with Sketch.</desc>
    <defs>
        <path d="M17.3971963,12.0526316 C17.3971963,10.5789474 16.4719626,9.65263158 15,9.65263158 C13.5280374,9.65263158 12.6028037,10.5789474 12.6028037,12.0526316 C12.6028037,13.5263158 13.5280374,14.4526316 15,14.4526316 C16.4719626,14.4526316 17.3971963,13.5263158 17.3971963,12.0526316 M18.8271028,12.0526316 C18.8271028,14.2 17.1869159,15.8421053 15,15.8421053 C12.8130841,15.8421053 11.1728972,14.2 11.1728972,12.0526316 C11.1728972,9.86315789 12.8130841,8.26315789 15,8.26315789 C17.1869159,8.26315789 18.8271028,9.86315789 18.8271028,12.0526316 M22.4859813,11.6315789 C22.4859813,7.37894737 19.4579439,4.43157895 15,4.43157895 C10.5420561,4.43157895 7.51401869,7.37894737 7.51401869,11.6315789 C7.51401869,15.4631579 10.3317757,20.7684211 15,25.6105263 C19.6682243,20.7684211 22.4859813,15.4631579 22.4859813,11.6315789 M6,11.6315789 C6,6.45263158 9.61682243,3 15,3 C20.3831776,3 24,6.45263158 24,11.6315789 C24,15.8842105 20.8037383,21.8210526 15.7570093,27 L14.2429907,27 C9.19626168,21.8210526 6,15.8842105 6,11.6315789" id="path-1"></path>
    </defs>
    <g id="Icons" stroke="none" stroke-width="1" fill="none" fill-rule="evenodd">
        <g id="Global-icons" transform="translate(-603.000000, -4763.000000)">
            <g id="pin-geoloc" transform="translate(333.000000, 4763.000000)">
                <g id="location/pin_location/default" transform="translate(270.000000, 0.000000)">
                    <mask id="mask-2" fill="white">
                        <use xlink:href="#path-1"></use>
                    </mask>
                    <use id="Mask" fill="#000000" fill-rule="evenodd" xlink:href="#path-1"></use>
                    <g id="colors/dacia/Blue-light" mask="url(#mask-2)" fill="#0089CD" fill-rule="evenodd">
                        <rect id="Rectangle-Copy-2" x="0" y="0" width="31" height="31"></rect>
                    </g>
                </g>
            </g>
        </g>
    </g>
</svg>