<?xml version="1.0" encoding="utf-8"?>
<!-- Generator: Adobe Illustrator 17.1.0, SVG Export Plug-In . SVG Version: 6.00 Build 0)  -->
<!DOCTYPE svg PUBLIC "-//W3C//DTD SVG 1.1//EN" "http://www.w3.org/Graphics/SVG/1.1/DTD/svg11.dtd">
<svg version="1.1" id="Calque_1" xmlns="http://www.w3.org/2000/svg" xmlns:xlink="http://www.w3.org/1999/xlink" x="0px" y="0px"
	 viewBox="0 0 30 30" enable-background="new 0 0 30 30" xml:space="preserve">
<title>facebook</title>
<desc>Created with Sketch.</desc>
<g id="Icons">
	<g id="Global-illustrations-Copy" transform="translate(-335.000000, -243.000000)">
		<g id="facebook" transform="translate(335.000000, 243.000000)">
			<path id="Rectangle-Copy" fill="#4267B2" d="M14.9,0h0.3C23.4,0,30,6.6,30,14.9v0.3C30,23.4,23.4,30,15.1,30h-0.3
				C6.6,30,0,23.4,0,15.1v-0.3C0,6.6,6.6,0,14.9,0z"/>
			<g id="f-ogo_RGB_HEX-58" transform="translate(6.000000, 6.000000)">
				<path id="Shape" fill="#FFFFFF" d="M16,1.2H2C1.5,1.2,1.2,1.5,1.2,2V16c0,0.4,0.3,0.9,0.9,0.9h7.5v-6.1h-2V8.4h2V6.7
					c0-2,1.2-3.1,3-3.1c0.6,0,1.2,0,1.8,0.1v2.1h-1.2c-1,0-1.2,0.4-1.2,1.1v1.5h2.3L14,10.7H12v6.1h4c0.4,0,0.9-0.3,0.9-0.9V2
					C16.8,1.5,16.5,1.2,16,1.2z"/>
			</g>
		</g>
	</g>
</g>
</svg>
