<?xml version="1.0" encoding="utf-8"?>
<!-- Generator: Adobe Illustrator 17.1.0, SVG Export Plug-In . SVG Version: 6.00 Build 0)  -->
<!DOCTYPE svg PUBLIC "-//W3C//DTD SVG 1.1//EN" "http://www.w3.org/Graphics/SVG/1.1/DTD/svg11.dtd">
<svg version="1.1" id="Calque_1" xmlns="http://www.w3.org/2000/svg" xmlns:xlink="http://www.w3.org/1999/xlink" x="0px" y="0px"
	 viewBox="0 0 30 30" enable-background="new 0 0 30 30" xml:space="preserve">
<title>Twitter</title>
<desc>Created with Sketch.</desc>
<g id="Icons">
	<g id="Global-illustrations-Copy" transform="translate(-335.000000, -344.000000)">
		<g id="Twitter" transform="translate(335.000000, 344.000000)">
			<g id="Dark_Blue">
				<path id="Rectangle-path" fill="#1DA1F2" d="M14.9,0h0.3C23.4,0,30,6.6,30,14.9v0.3C30,23.4,23.4,30,15.1,30h-0.3
					C6.6,30,0,23.4,0,15.1v-0.3C0,6.6,6.6,0,14.9,0z"/>
			</g>
			<g id="Logo__x2014__FIXED" transform="translate(6.172414, 7.241379)">
				<path id="Shape" fill="#FFFFFF" d="M6.2,14.7c6.2,0,9.7-5.3,9.7-9.9c0-0.2,0-0.3,0-0.4c0.6-0.4,1.2-1.1,1.7-1.8
					c-0.6,0.3-1.2,0.4-2,0.5c0.7-0.4,1.2-1.1,1.5-2c-0.6,0.4-1.4,0.7-2.1,0.8c-0.6-0.6-1.5-1.1-2.5-1.1c-1.9,0-3.4,1.5-3.4,3.5
					c0,0.3,0,0.5,0.1,0.8C6.4,4.9,3.9,3.6,2.2,1.5C1.9,2,1.7,2.6,1.7,3.2c0,1.2,0.6,2.2,1.5,2.9c-0.5,0-1.1-0.2-1.5-0.4
					c0,0,0,0,0,0.1c0,1.7,1.2,3.1,2.8,3.4C4.2,9.2,3.9,9.2,3.6,9.2c-0.2,0-0.4,0-0.6-0.1c0.4,1.4,1.7,2.4,3.2,2.4
					C5,12.4,3.5,13.1,2,13.1c-0.3,0-0.5,0-0.8-0.1C2.5,14,4.3,14.7,6.2,14.7"/>
			</g>
		</g>
	</g>
</g>
<g>
	<circle fill="#FFFFFF" cx="19.7" cy="10.3" r="1.1"/>
</g>
</svg>
