<?xml version="1.0" encoding="utf-8"?>
<!-- Generator: Adobe Illustrator 17.1.0, SVG Export Plug-In . SVG Version: 6.00 Build 0)  -->
<!DOCTYPE svg PUBLIC "-//W3C//DTD SVG 1.1//EN" "http://www.w3.org/Graphics/SVG/1.1/DTD/svg11.dtd">
<svg version="1.1" xmlns="http://www.w3.org/2000/svg" xmlns:xlink="http://www.w3.org/1999/xlink" x="0px" y="0px"
	 viewBox="0 0 30 30" enable-background="new 0 0 30 30" xml:space="preserve">
<g id="Calque_1">
	<g id="Icons">
		<g id="Global-illustrations-Copy" transform="translate(-335.000000, -395.000000)">
			<g id="youtube" transform="translate(335.000000, 395.000000)">
				<g id="Twitter_Social_Icon_Square_Color-Copy">
					<g id="Dark_Blue">
						<path id="Rectangle-path" fill="#FF0002" d="M14.9,0h0.3C23.4,0,30,6.6,30,14.9v0.3C30,23.4,23.4,30,15.1,30h-0.3
							C6.6,30,0,23.4,0,15.1v-0.3C0,6.6,6.6,0,14.9,0z"/>
					</g>
				</g>
			</g>
		</g>
	</g>
</g>
<g id="Calque_2">
	<g id="Group" transform="translate(3.000000, 6.000000)">
		<g id="Group-20">
			<g id="Clip-19">
			</g>
			<defs>
				<filter id="Adobe_OpacityMaskFilter" filterUnits="userSpaceOnUse" x="2.4" y="2.3" width="19.2" height="13.5">
					<feColorMatrix  type="matrix" values="1 0 0 0 0  0 1 0 0 0  0 0 1 0 0  0 0 0 1 0"/>
				</filter>
			</defs>
			<mask maskUnits="userSpaceOnUse" x="2.4" y="2.3" width="19.2" height="13.5" id="mask-2">
				<g filter="url(#Adobe_OpacityMaskFilter)">
					<path id="path-1" fill="#FFFFFF" d="M10,11.5l0-5.4l5.2,2.7L10,11.5z M21.4,5.2c0,0-0.2-1.3-0.8-1.9c-0.7-0.8-1.5-0.8-1.9-0.8
						C16,2.3,12,2.3,12,2.3h0c0,0-4,0-6.7,0.2c-0.4,0-1.2,0-1.9,0.8C2.8,3.9,2.6,5.2,2.6,5.2S2.4,6.7,2.4,8.3v1.5
						c0,1.6,0.2,3.1,0.2,3.1s0.2,1.3,0.8,1.9c0.7,0.8,1.7,0.7,2.1,0.8C7,15.7,12,15.8,12,15.8s4,0,6.7-0.2c0.4,0,1.2,0,1.9-0.8
						c0.6-0.6,0.8-1.9,0.8-1.9s0.2-1.6,0.2-3.1V8.3C21.6,6.7,21.4,5.2,21.4,5.2z"/>
				</g>
			</mask>
			<path id="Fill-18" mask="url(#mask-2)" fill="#FFFFFF" d="M10,11.5l0-5.4l5.2,2.7L10,11.5z M21.4,5.2c0,0-0.2-1.3-0.8-1.9
				c-0.7-0.8-1.5-0.8-1.9-0.8C16,2.3,12,2.3,12,2.3h0c0,0-4,0-6.7,0.2c-0.4,0-1.2,0-1.9,0.8C2.8,3.9,2.6,5.2,2.6,5.2
				S2.4,6.7,2.4,8.3v1.5c0,1.6,0.2,3.1,0.2,3.1s0.2,1.3,0.8,1.9c0.7,0.8,1.7,0.7,2.1,0.8C7,15.7,12,15.8,12,15.8s4,0,6.7-0.2
				c0.4,0,1.2,0,1.9-0.8c0.6-0.6,0.8-1.9,0.8-1.9s0.2-1.6,0.2-3.1V8.3C21.6,6.7,21.4,5.2,21.4,5.2z"/>
		</g>
	</g>
</g>
</svg>
