<?xml version="1.0" encoding="UTF-8"?>
<svg width="30px" height="30px" viewBox="0 0 30 30" version="1.1" xmlns="http://www.w3.org/2000/svg" xmlns:xlink="http://www.w3.org/1999/xlink">
    <!-- Generator: Sketch 50.2 (55047) - http://www.bohemiancoding.com/sketch -->
    <title>dacia-finance</title>
    <desc>Created with Sketch.</desc>
    <defs>
        <path d="M18.5233209,22.0270095 L20.9720149,22.0270095 L20.9720149,23.2874506 L18.5233209,23.2874506 L18.5233209,22.0270095 Z M18.5233209,18.2806982 L20.9720149,18.2806982 L20.9720149,19.5411394 L18.5233209,19.5411394 L18.5233209,18.2806982 Z M18.5233209,14.5356375 L20.9720149,14.5356375 L20.9720149,15.7960786 L18.5233209,15.7960786 L18.5233209,14.5356375 Z M13.9757463,22.0270095 L16.8442164,22.0270095 L16.8442164,23.2874506 L13.9757463,23.2874506 L13.9757463,22.0270095 Z M13.9757463,18.2806982 L16.8442164,18.2806982 L16.8442164,19.5411394 L13.9757463,19.5411394 L13.9757463,18.2806982 Z M13.9757463,14.5356375 L16.8442164,14.5356375 L16.8442164,15.7960786 L13.9757463,15.7960786 L13.9757463,14.5356375 Z M19.7476679,6.97174011 L11.0023321,6.97174011 L11.0023321,10.7880758 L19.7476679,10.7880758 L19.7476679,6.97174011 Z M9.74300373,22.0270095 L12.2966418,22.0270095 L12.2966418,23.2874506 L9.74300373,23.2874506 L9.74300373,22.0270095 Z M9.74300373,18.2806982 L12.2966418,18.2806982 L12.2966418,19.5411394 L9.74300373,19.5411394 L9.74300373,18.2806982 Z M9.74300373,14.5356375 L12.2966418,14.5356375 L12.2966418,15.7960786 L9.74300373,15.7960786 L9.74300373,14.5356375 Z M9.74300373,5.74631121 L20.9720149,5.74631121 L20.9720149,11.9784925 L9.74300373,11.9784925 L9.74300373,5.74631121 Z M8.48367537,25.8083329 L22.2663246,25.8083329 C23.1758396,25.8083329 23.525653,25.4231981 23.525653,24.5128795 L23.525653,4.48712049 C23.525653,3.57680188 23.1758396,3.19041665 22.2663246,3.19041665 L8.48367537,3.19041665 C7.57416045,3.19041665 7.22434701,3.57680188 7.22434701,4.48712049 L7.22434701,24.5128795 C7.22434701,25.4231981 7.57416045,25.8083329 8.48367537,25.8083329 Z M6,4.48712049 C6,2.80528185 6.8045709,2 8.48367537,2 L22.2663246,2 C23.9454291,2 24.75,2.80528185 24.75,4.48712049 L24.75,24.5128795 C24.75,26.1934677 23.9454291,27 22.2663246,27 L8.48367537,27 C6.8045709,27 6,26.1934677 6,24.5128795 L6,4.48712049 Z" id="path-1"></path>
    </defs>
    <g id="Icons" stroke="none" stroke-width="1" fill="none" fill-rule="evenodd">
        <g id="Global-icons" transform="translate(-603.000000, -7984.000000)">
            <g id="e-commerce" transform="translate(333.000000, 7984.000000)">
                <g id="commercial/financing/default" transform="translate(270.000000, 0.000000)">
                    <mask id="mask-2" fill="white">
                        <use xlink:href="#path-1"></use>
                    </mask>
                    <use id="ICON_COMMERCIAL_08" fill="#000000" fill-rule="evenodd" xlink:href="#path-1"></use>
                    <g id="colors/dacia/Blue-light" mask="url(#mask-2)" fill="#0089CD" fill-rule="evenodd">
                        <rect id="Rectangle-Copy-2" x="0" y="0" width="31" height="31"></rect>
                    </g>
                </g>
            </g>
        </g>
    </g>
</svg>