<?xml version="1.0" encoding="utf-8"?>
<!-- Generator: Adobe Illustrator 19.2.1, SVG Export Plug-In . SVG Version: 6.00 Build 0)  -->
<svg version="1.1" id="Capa_1" xmlns="http://www.w3.org/2000/svg" xmlns:xlink="http://www.w3.org/1999/xlink" x="0px" y="0px"
	 viewBox="0 0 308 478.7" style="enable-background:new 0 0 308 478.7;" xml:space="preserve">
<style type="text/css">
	.st0{fill:#2D2D2D;}
</style>
<g>
	<path class="st0" d="M297.6,305.9l-0.4,0.3V306l-84.6,79.5c-14.5,16.7-35.9,27.3-59.6,27.3c-43.6,0-79-35.4-79-79s35.4-79,79-79
		c27.2,0,51.3,13.9,65.5,34.9l79-74.2L298,20.2L232.1,20l-0.4,192.1c-22.7-14.7-49.6-23.2-78.6-23.2c-79.9,0-144.9,65-144.9,144.9
		s65,144.9,144.9,144.9c41.2,0,78.4-17.3,104.8-45l39.7-37.2V305.9z"/>
</g>
</svg>
