<?xml version="1.0" encoding="utf-8"?>
<!-- Generator: Adobe Illustrator 19.2.1, SVG Export Plug-In . SVG Version: 6.00 Build 0)  -->
<svg version="1.1" id="Capa_1" xmlns="http://www.w3.org/2000/svg" xmlns:xlink="http://www.w3.org/1999/xlink" x="0px" y="0px"
	 viewBox="0 0 300 200" style="enable-background:new 0 0 300 200;" xml:space="preserve">
<style type="text/css">
	.st0{fill:#C1272D;}
	.st1{fill:#474744;}
	.st2{fill:#686865;}
	.st3{fill:#FFDD12;}
	.st4{fill:#FFC715;}
	.st5{fill:#014B8E;}
	.st6{fill:#F57D31;}
	.st7{fill-rule:evenodd;clip-rule:evenodd;fill:#008F45;}
	.st8{fill-rule:evenodd;clip-rule:evenodd;fill:#2E4590;}
	.st9{fill-rule:evenodd;clip-rule:evenodd;fill:#FFFFFF;}
	.st10{fill:#666666;}
	.st11{fill-rule:evenodd;clip-rule:evenodd;fill:#DC8030;}
	.st12{fill-rule:evenodd;clip-rule:evenodd;fill:#616161;}
	.st13{fill:#F3F2F2;}
	.st14{fill:#1A80AD;}
	.st15{fill:#1A5B80;}
	.st16{fill:#293688;}
	.st17{fill:#F7981D;}
	.st18{fill:#3C80AD;}
	.st19{fill:#931B1D;}
	.st20{fill:#F16622;}
	.st21{fill:#CB2026;}
	.st22{fill:#FFFFFF;}
	.st23{fill:#27ADE4;}
	.st24{fill:#2D78BC;}
</style>
<g>
	<g>
		<path class="st0" d="M83,190.7c-1.3,0-2.4,0-3.5,0c0-0.4,0-0.7,0-0.9c0-6.7,0-13.5,0-20.2c0-0.7,0.2-1,0.8-1.3
			c0.9-0.3,1.7-0.8,2.8-1.2c0,4.7,0,9.3,0,13.8c0.1,0,0.1,0.1,0.2,0.1c0.4-0.4,0.8-0.9,1.2-1.3c1.2-1.4,2.4-2.7,3.6-4.1
			c0.2-0.2,0.5-0.5,0.8-0.5c1.2-0.1,2.5,0,3.9,0c-1.9,2.1-3.7,4.1-5.5,6.1c2.1,3.2,4.2,6.4,6.4,9.7c-1.4,0-2.6,0.1-3.7,0
			c-0.4,0-0.8-0.5-1.1-0.9c-1.2-1.7-2.3-3.5-3.5-5.3c-0.2-0.3-0.4-0.5-0.6-0.8c-1.1,0.9-2,1.8-1.8,3.3C83.1,188.2,83,189.4,83,190.7
			z"/>
		<path class="st0" d="M17.6,190.9c-1.5-1-2.8-1.7-4-2.7c-0.5-0.4-0.6-1.3-0.7-1.9c-0.5-3.5,2-7.2,5.4-7.8c0.8-0.1,1.6,0,2.4,0.1
			c0.5,0.1,0.8-0.1,1.1-0.5c1.1-1.8,1.1-3.8-0.1-5.1c-1.3-1.4-3.4-1.6-5.5-0.5c-0.8-0.9-1.6-1.8-2.5-2.9c1.4-1.2,2.8-2,4.5-2.5
			c0.2-0.1,0.5,0,0.8,0.1c4.6,1.2,7.1,7.6,3.6,11.2c-0.2,0.2-0.3,0.8-0.1,1c0.6,0.8,1.1,1.7,1.9,2.2c2.4,1.4,5.5-0.5,5.7-3.3
			c0-0.3,0-0.5,0-0.9c0.6-0.1,1.3-0.3,1.9-0.4c0.6-0.1,1.2-0.2,1.8-0.3c0.4,1.7,0.3,3.3,0,4.9c0,0.3-0.2,0.5-0.3,0.7
			c-2.3,2.9-7.7,3-10.1,0.2c-0.6-0.7-1-1.6-1.3-2.4c-0.2-0.5-0.4-0.7-0.9-0.7c-2.5-0.1-4.3,1.1-4.5,3.3c-0.2,1.7,0.4,3.1,1.9,4
			c0.4,0.3,0.6,0.5,0.4,1C18.3,188.7,18,189.7,17.6,190.9z"/>
		<path class="st0" d="M53,189.4c-0.6,0.3-1.2,0.7-1.8,0.9c-1.8,0.6-3.7,0.7-5.6,0.4c-3.4-0.6-5.3-2.7-5.8-6.5
			c-0.6-4.4,2-8.4,6.2-9.1c5.3-0.9,8.9,2.5,8.8,7.1c0,0.1,0,0.1,0,0.2c-0.1,1.6-0.1,1.6-1.7,1.6c-2.8,0-5.6,0-8.4,0
			c-0.3,0-0.7,0-1,0c-0.2,1.5,0.7,3,2.3,3.6c1.2,0.5,2.5,0.5,3.7,0.1C51.5,187.1,52.1,187.5,53,189.4z M51.2,181.2
			c-0.2-2.3-1.6-3.5-3.8-3.4c-2,0.1-3.6,1.5-3.5,3.4C46.2,181.2,48.7,181.2,51.2,181.2z"/>
		<path class="st0" d="M66.2,183.9c0.1,2.3,1.6,3.8,4,3.9c0.7,0,1.5-0.1,2.1-0.2c1.8-0.4,2.5-0.1,3.3,1.8c-0.6,0.3-1.2,0.7-1.8,0.9
			c-1.9,0.6-3.9,0.7-5.8,0.3c-2.9-0.6-4.7-2.4-5.3-5.4c-0.6-3.2-0.1-6.1,2.4-8.4c3.4-3.2,10.9-2.5,12.2,3.4c0.2,1.2,0,2.4,0,3.7
			C73.5,183.9,69.9,183.9,66.2,183.9z M73.7,181.2c0-2-1.4-3.4-3.5-3.4c-2.1,0-3.8,1.5-3.8,3.4C68.9,181.2,71.3,181.2,73.7,181.2z"
			/>
		<path class="st0" d="M125.2,180.5c0-1.5-0.7-2.3-2.1-2.6c-1.6-0.3-3.1-0.1-4.6,0.5c-0.7-1.5-0.1-3,1.5-3.2c1.6-0.2,3.3-0.3,4.9,0
			c1.8,0.3,3,1.6,3.4,3.5c0.2,1,0.4,2.1,0.4,3.2c0.1,1.8,0,3.6,0.2,5.3c0.1,0.9,0.5,1.7,0.9,2.7c-0.8,1.4-2.8,1.2-4.2-0.8
			c-1.4,1.3-3,1.7-4.9,1.6c-2.4-0.1-4.1-1.4-4.5-3.5c-0.5-2.4,0.4-4.7,2.5-5.8c1.8-1,3.8-1.2,5.9-1
			C124.7,180.5,124.9,180.5,125.2,180.5z M123.7,183.1c0-0.1,0-0.1-0.1-0.2c-1,0.3-2,0.5-3,1c-1,0.5-1.3,1.7-1,2.8
			c0.2,0.8,0.9,1.3,2,1.4c2.4,0.2,3.5-1,3.6-3.7c0-0.9-0.3-1.2-1.1-1.2C124,183.1,123.9,183.1,123.7,183.1z"/>
		<path class="st0" d="M104.9,187.2c0,0.9,0,1.8,0,2.6c0,0.2-0.3,0.6-0.6,0.6c-1.4,0.1-2.9,0.3-4.3,0.1c-2.1-0.3-3.3-2-3.3-4.3
			c0-2.5,0-5,0-7.4c0-0.3,0-0.6,0-1c-1.4,0-2.8,0-4.1,0c1.1-1.3,1.7-3.3,4.1-2.8c0-0.9,0-1.7,0-2.5c0-0.3,0.3-0.7,0.5-0.8
			c0.9-0.4,1.9-0.7,2.9-1.1c0,1.5,0,2.9,0,4.4c1.5,0,2.8,0,4.2,0c0,1,0,1.8,0,2.8c-1.4,0-2.7,0-4.2,0c0,1.6,0,3.1,0,4.5
			c0,1.1,0,2.1,0,3.2c0.1,1.9,1.1,2.7,3,2.3C103.7,187.6,104.2,187.4,104.9,187.2z"/>
		<path class="st0" d="M62,189.2c-0.8,1.3-2.1,1.8-3.5,1.4c-0.9-0.2-1.6-1.2-1.6-2.5c-0.1-1.3,0-2.7,0-4c0-4.9,0-9.8,0-14.7
			c0-0.6,0.1-0.9,0.7-1.2c0.9-0.4,1.8-0.8,2.8-1.3c0,0.5,0,0.8,0,1.1c0,5.8,0,11.6,0,17.4C60.4,187,60.5,188.4,62,189.2z"/>
		<path class="st0" d="M106.5,175c1.2,0,2.3,0,3.4,0c0,0.5,0.1,0.9,0.2,1.5c2-1.8,4.2-1.9,6.3-1.2c-0.3,1.1-0.5,2.1-0.7,3
			c-0.7-0.1-1.6-0.5-2.4-0.4c-2,0.1-3.3,1.7-3.3,3.9c0,2.6,0,5.3,0,7.9c0,0.3,0,0.6,0,1c-1.2,0-2.3,0-3.5,0
			C106.5,185.4,106.5,180.3,106.5,175z"/>
		<path class="st0" d="M27.3,177.7c0.4-0.7,0.9-1.4,1.1-2.2c0.6-1.5,0.4-2.9-0.8-3.9c-1.2-0.9-1.3-2.2-1.8-3.5
			c0.7-0.4,1.4-0.9,2.2-1.3c0.1,0.3,0.2,0.5,0.3,0.8c0.3,1.1,0.8,2.1,1.7,2.9c1.2,1.1,1.4,2.6,0.9,4.1c-0.6,1.6-1.6,2.8-3.4,3.1
			C27.5,177.8,27.4,177.8,27.3,177.7z"/>
		<path class="st0" d="M28.8,190.5c-0.3-0.1-0.6-0.1-0.7-0.1c-1.1-0.3-2.1-0.3-3.2,0.1c-2.4,0.8-4.9-1-5.2-3.7c-0.1-0.8,0-1.5,0-2.3
			c0.1,0,0.2,0,0.3-0.1c0.2,0.4,0.4,0.8,0.6,1.2c1,1.9,2.7,3.1,5.3,2c0.7-0.3,1.8,0.2,2.8,0.4c0.1,0,0.2,0.3,0.2,0.5
			C28.8,189.1,28.8,189.7,28.8,190.5z"/>
		<path class="st0" d="M17.9,174.7c-0.7,0-1.4,0-2.1,0c-1.8,0.1-3.2,1.1-3.4,2.9c-0.2,1.5-1.2,2.1-2,3.1c-0.8-0.4-1.4-0.8-2.2-1.3
			c0.2-0.3,0.4-0.5,0.5-0.7c0.7-0.8,1.3-1.6,1.5-2.8c0.2-1.6,1.3-2.6,3-2.9C15.2,172.7,16.8,173.3,17.9,174.7z"/>
	</g>
	<g>
		<g>
			<g>
				<path d="M290.5,190c0,1.1-0.9,2-2,2H153.6c-1.1,0-2-0.9-2-2v-22.4c0-1.1,0.9-2,2-2h134.8c1.1,0,2,0.9,2,2"/>
			</g>
			<g>
				<path class="st1" d="M213,165.6h-59.4c-1.1,0-2,0.9-2,2V190c0,1.1,0.9,2,2,2h85.8L213,165.6z"/>
			</g>
			<g>
				<path class="st2" d="M173.1,165.6h-19.5c-1.1,0-2,0.9-2,2V190c0,1.1,0.9,2,2,2h45.9L173.1,165.6z"/>
			</g>
		</g>
		<g>
			<polyline class="st3" points="161.9,177.5 158.1,177.5 156.3,168.5 159.5,168.5 160.1,174.1 161,168.5 164.6,168.5 165.5,174.1 
				166.2,168.5 169.3,168.5 167.5,177.5 163.5,177.5 162.8,171.7 			"/>
		</g>
		<g>
			<polyline class="st3" points="252,188.5 243.2,188.5 239.2,168.5 246.1,168.5 247.9,180.8 249.7,168.5 257.8,168.5 259.6,181.1 
				261.4,168.5 268.3,168.5 264.1,188.5 255.6,188.5 253.8,175.7 			"/>
		</g>
		<g>
			<polyline class="st3" points="171.3,177.5 171.3,168.5 178.1,168.5 178.1,171 174.7,171 174.7,171.9 177.8,171.9 177.8,174.1 
				174.7,174.1 174.7,175.2 178.3,175.2 178.3,177.5 			"/>
		</g>
		<g>
			<polyline class="st3" points="200.7,177.5 200.7,168.5 207.4,168.5 207.4,171 204,171 204,171.9 207.2,171.9 207.2,174.1 
				204,174.1 204,175.2 207.6,175.2 207.6,177.5 			"/>
		</g>
		<g>
			<path class="st3" d="M180.3,174.8h3.4l0,0c0,0.2,0,0.4,0.2,0.7s0.4,0.2,0.7,0.2s0.4,0,0.7-0.2s0.2-0.2,0.2-0.4s0-0.2,0-0.4
				l-0.2-0.2c-0.2,0-0.4-0.2-1.1-0.2c-0.4-0.2-0.9-0.2-1.3-0.4c-0.7-0.2-1.3-0.4-1.8-0.9s-0.4-0.9-0.4-1.6c0-0.9,0.4-1.6,1.1-2
				s1.8-0.7,3.1-0.7c1.1,0,2.2,0.2,2.7,0.7c0.7,0.4,0.9,1.1,0.9,1.8v0.2h-3.1c0-0.2,0-0.4-0.2-0.7c-0.2-0.2-0.2-0.2-0.7-0.2
				c-0.2,0-0.4,0-0.4,0.2c-0.2,0-0.2,0.2-0.2,0.4s0.4,0.7,1.1,0.7c0.2,0,0.4,0.2,0.7,0.2c1.3,0.2,2,0.7,2.5,1.1
				c0.4,0.4,0.7,0.9,0.7,1.8s-0.4,1.8-1.1,2.2c-0.7,0.7-1.8,0.9-3.1,0.9c-1.3,0-2.2-0.2-3.1-0.7c-0.7-0.4-1.1-1.1-1.1-2L180.3,174.8
				L180.3,174.8"/>
		</g>
		<g>
			<polyline class="st3" points="198.4,168.5 198.4,171 196.2,171 196.2,177.5 192.8,177.5 192.8,171 190.6,171 190.6,168.5 			"/>
		</g>
		<g>
			<path class="st3" d="M210.1,177.5v-8.7h4.5c1.3,0,2.2,0.2,2.9,0.4c0.4,0.4,0.9,0.9,0.9,1.8c0,0.4-0.2,0.9-0.4,1.3
				c-0.2,0.4-0.7,0.7-1.3,0.7c0.4,0,0.9,0.2,1.1,0.4c0.2,0.2,0.4,0.7,0.4,1.6l0.2,0.9c0,0.2,0,0.4,0,0.7c0,0.2,0.2,0.4,0.2,0.9h-3.4
				c0-0.2-0.2-0.4-0.2-0.7s0-0.4,0-0.4v-0.7c0-0.7-0.2-0.9-0.4-1.1s-0.4-0.2-0.7-0.2h-0.2h-0.2v3.1 M213.4,172.3L213.4,172.3h0.2
				c0.4,0,0.7,0,0.9-0.2s0.2-0.4,0.2-0.7s0-0.4-0.2-0.7s-0.4-0.2-0.9-0.2h-0.2h-0.2v1.8H213.4z"/>
		</g>
		<g>
			<polyline class="st3" points="223.7,172.1 223.7,177.5 220.8,177.5 220.8,168.5 225.1,168.5 226.9,173.9 226.9,168.5 
				229.8,168.5 229.8,177.5 225.5,177.5 			"/>
		</g>
		<g>
			<polyline class="st4" points="223.7,182.9 223.7,188.2 220.8,188.2 220.8,179.5 225.1,179.5 226.9,184.6 226.9,179.5 
				229.8,179.5 229.8,188.2 225.5,188.2 			"/>
		</g>
		<g>
			<polyline class="st4" points="194.2,182.9 194.2,188.2 191.5,188.2 191.5,179.5 195.5,179.5 197.5,184.6 197.5,179.5 
				200.2,179.5 200.2,188.2 196.2,188.2 			"/>
		</g>
		<g>
			<path class="st4" d="M180.3,179.5h3.4v5.6c0,0.4,0,0.7,0.2,0.9s0.2,0.2,0.7,0.2c0.2,0,0.4,0,0.7-0.2s0.2-0.4,0.2-0.9v-5.6h3.4
				v5.4c0,1.3-0.4,2.2-1.1,2.7c-0.7,0.7-1.8,0.9-3.1,0.9c-0.9,0-1.6,0-2-0.2s-0.9-0.4-1.3-0.9c-0.2-0.2-0.4-0.7-0.7-0.9
				c-0.2-0.4-0.2-0.9-0.2-1.6"/>
		</g>
		<g>
			<rect x="203.1" y="179.5" class="st4" width="3.6" height="8.7"/>
		</g>
		<g>
			<path class="st4" d="M213.7,188.5c-1.3,0-2.5-0.4-3.4-1.1c-0.7-0.9-1.1-2-1.1-3.4c0-1.6,0.4-2.7,1.1-3.4c0.9-0.9,2-1.1,3.4-1.1
				c1.6,0,2.7,0.4,3.4,1.1c0.9,0.9,1.1,2,1.1,3.4c0,1.6-0.4,2.7-1.1,3.4C216.4,188,215.2,188.5,213.7,188.5 M213.9,181.5
				c-0.4,0-0.7,0.2-0.7,0.4c-0.2,0.2-0.2,0.9-0.2,1.8c0,0.9,0,1.3,0.2,1.8s0.4,0.4,0.7,0.4c0.4,0,0.7-0.2,0.7-0.4
				c0.2-0.4,0.2-0.9,0.2-2c0-0.9,0-1.3-0.2-1.8C214.3,181.7,214.1,181.5,213.9,181.5"/>
		</g>
		<g>
			<polyline class="st3" points="238.1,188.2 237,188.2 232.9,168.5 234.1,168.5 			"/>
		</g>
		<g>
			<polyline class="st3" points="241.2,188.2 240.1,188.2 236.1,168.5 237.2,168.5 			"/>
		</g>
		<g>
			<path class="st3" d="M273.9,168.5v12.5c0,0.9-0.2,1.3-0.4,1.8s-0.7,0.7-1.3,0.7s-1.1-0.2-1.3-0.7c-0.2-0.4-0.4-1.1-0.4-1.8v-12.3
				h-1.6l-3.8,18.4c0.7,0.7,1.6,1.1,2.5,1.3c1.1,0.4,2.7,0.7,4.5,0.7c3.1,0,5.6-0.7,7.2-2c1.6-1.3,2.2-3.4,2.2-6.3v-12.1"/>
		</g>
		<g>
			<path class="st4" d="M262.7,168.5v12.1c0,1.6,0.2,2.7,0.4,3.6c0.2,0.9,0.7,1.6,1.3,2.2l3.8-17.7"/>
		</g>
		<g>
			<path class="st3" d="M283.1,170.1h0.4v0.2h0.2h0.2l0,0l0,0h-0.2c-0.2,0-0.2,0-0.4-0.2v-0.2v-0.2l0.2-0.2h0.2c0.2,0,0.2,0,0.4,0
				l0.2,0.2H284v-0.2h-0.2l0,0l0,0l0,0h0.2c0.2,0,0.2,0,0.4,0.2l0.2,0.2v0.2v0.2l-0.9,0.2h-0.2c-0.2,0-0.4,0-0.4-0.2
				C283.1,170.3,283.1,170.3,283.1,170.1"/>
		</g>
		<g>
			<polyline class="st3" points="284.2,169.2 284.9,169.2 285.1,170.1 285.3,169.2 285.8,169.2 285.8,170.5 285.3,170.5 
				285.3,169.6 285.1,170.5 284.9,170.5 284.7,169.6 284.7,170.5 284.2,170.5 			"/>
		</g>
	</g>
	<g>
		<g>
			<path class="st5" d="M49,106.1c2.5-2.3,6.3-3,9.6-2c1.2,0.4,2.6,1,2.9,2.4c0,1.1-0.4,2.2-0.6,3.3c-1.5-1.4-3.8-1.9-5.8-1.6
				c-2.2,0.4-3.7,2.3-4.6,4.3c-0.9,2.3-1.4,5-0.5,7.5c0.4,1.3,1.5,2.4,2.8,2.8c2.1,0.6,4.4-0.2,6-1.6c-0.3,1.4-0.5,2.9-0.9,4.3
				c-0.4,1.2-1.7,1.6-2.8,1.8c-2.9,0.5-6.2-0.1-8.2-2.3c-2-2.2-2.4-5.3-2.3-8.1C44.7,112.9,46,108.8,49,106.1z"/>
			<g>
				<path class="st5" d="M29.9,104.5c2.1-0.4,4.3-0.6,6.4-0.6c2,0.1,4.1,0.5,5.6,2c1.7,1.7,1.8,4.6,0.4,6.5c-0.9,1.1-2.1,2-3.5,2.3
					c1.1,0.5,2.2,1.1,2.7,2.2c1.3,2.6,0.6,6-1.6,7.9c-1.7,1.6-4.1,2.1-6.4,2.3c-1.7,0.1-3.4,0-5-0.5c-0.9-0.3-1.5-1-1.8-1.8
					c-0.4-1.2-0.3-2.6,0-3.8C27.8,115.5,28.8,110,29.9,104.5z M33.8,107.9c-0.3,1.6-0.6,3.1-0.9,4.7c-0.1,0.4,0.5,0.6,0.8,0.6
					c1.4,0.1,3.1-0.1,4.1-1.2c1-1,1.1-3-0.3-3.8C36.5,107.5,35.1,107.8,33.8,107.9z M32.2,116.7c-0.4,1.5-0.6,3-0.9,4.6
					c-0.1,0.7-0.4,1.4,0.1,1.9c1.5,0,3.2,0.1,4.5-0.8c1.6-0.9,2.1-3.4,0.8-4.8C35.4,116.5,33.7,116.8,32.2,116.7z"/>
			</g>
			<g>
				<path class="st5" d="M64.4,104.6c1.5-0.5,3.1-0.5,4.6-0.6c2.1,0,4.4,0,6.3,1.2c1.4,0.8,2.3,2.4,2.5,4c0.5,3.6-1.3,7.5-4.5,9.2
					c-2.1,1.2-4.6,1.3-7,1.1c-0.4,1.8-0.6,3.6-1.1,5.4c-0.2,0.9-0.8,1.9-1.8,2.1c-1.1,0.1-2.2,0-3.3,0
					C61.6,119.7,62.9,112.1,64.4,104.6z M68.7,108c-0.4,2.2-0.8,4.3-1.2,6.5c-0.1,0.4,0.2,0.8,0.6,1c1.2,0.2,2.4,0,3.4-0.6
					c1.9-1.1,2.7-3.8,1.8-5.8C72.3,107.6,70.2,107.9,68.7,108z"/>
			</g>
			<path class="st5" d="M16.3,105.7c0.8-0.4,1.7-0.2,2.3,0.4c0.9,1.3,0.9,3,0.9,4.5c0,1.2-0.2,2.5-0.7,3.6c-1.5-1.9-3.4-3.5-5.5-4.6
				C13.8,108.1,14.8,106.5,16.3,105.7z"/>
			<path class="st5" d="M79.9,109.7c0.7-1.6,1.6-3.3,3.3-4c0.9-0.3,1.8,0.1,2.3,0.8c1,2.5,0.8,5.3,0,7.8
				C84,112.4,82.1,110.8,79.9,109.7z"/>
		</g>
		<g>
			<path class="st6" d="M18.6,106.2c2.2,1.4,4,3.4,5.5,5.5c1.2,1.8,1.3,4.3,0.2,6.1c-1.4,2.4-3.6,4.3-5.7,6c-1.2,0.9-2.7,2-4.3,1.6
				c-1.5-0.4-2.5-1.7-3.1-3.1c3.2-1.9,6.4-4.4,7.7-8.1c0.4-1.2,0.6-2.4,0.7-3.6C19.5,109.1,19.5,107.5,18.6,106.2z"/>
			<path class="st6" d="M85.5,106.5c1.9,1,3.3,2.8,4.7,4.5c1,1.2,1.7,2.9,1.5,4.5c-0.1,1.4-0.8,2.6-1.7,3.7c-1.7,2.2-3.7,4-6,5.5
				c-0.9,0.6-2.1,1.1-3.2,0.8c-1.5-0.4-2.5-1.7-3.1-3.1c3.3-1.8,6.4-4.5,7.8-8.1C86.3,111.7,86.6,109,85.5,106.5z"/>
		</g>
	</g>
	<g>
		<polygon class="st7" points="192.6,101.4 287,101.4 287,126.8 192.6,126.8 192.6,101.4 		"/>
		<path class="st8" d="M196.6,121.7H210c1,0,1.9-0.9,1.9-1.9v-13.2h-13.4c-1,0-1.9,0.9-1.9,1.9V121.7L196.6,121.7z M200.2,119.3
			l7.9-1.4v-8.3l-7.9,1.4V119.3L200.2,119.3z"/>
		<path class="st9" d="M252.3,112.7c1.3,0,2.3,1.1,2.3,2.9c0,1.7-1,2.9-2.3,2.9c-0.7,0-1.3-0.3-1.7-0.8c-0.4-0.6-0.5-1.1-0.5-1.8
			c0-0.8,0.1-1.5,0.4-2.1C251,113,251.6,112.7,252.3,112.7L252.3,112.7z M250.2,108.7l0,3.7c1.1-1.1,2.2-1.3,3.7-0.9
			c1.7,0.5,2.6,2,2.6,4.2c0,2.7-1.9,4.5-4.1,4.5c-2.5,0-4.2-1.7-4.2-4.3v-7.1H250.2L250.2,108.7z M246.5,110.9h0.6v2h-0.6l0,0v0
			c-0.4,0-0.8,0.2-1.1,0.5c-0.3,0.3-0.5,0.7-0.5,1.1h0l0,0v5.4h-2v-5.4l0,0h0c0-1,0.4-1.9,1-2.5
			C244.7,111.3,245.6,110.9,246.5,110.9L246.5,110.9L246.5,110.9L246.5,110.9z M238.8,116.5H236c0,0.1,0.1,0.2,0.1,0.3
			c0.3,0.9,1.1,1.3,2,1.5l0,0h0c0.1,0,0.2,0,0.4,0c0.1,0,0.2,0,0.4,0l0,0c0.9,0,1.6-0.3,2.1-0.5c0.1,0.4,0,1,0,1.3
			c-0.2,0.8-1.7,0.9-2.2,0.9v0c-0.2,0-0.3,0-0.5,0c-0.2,0-0.3,0-0.5-0.1l0,0c-2.3-0.4-3.5-2.4-3.4-4.6v0v0l0,0
			c0.1-1.8,1.1-3.5,2.9-4h0l0,0l0,0c1.4-0.4,2.7,0,3.6,0.7c0.2,0.2,0.3,0.3,0.5,0.5c0.1,0.2,0.3,0.4,0.4,0.6l0,0l0,0l0,0
			c0.2,0.4,0.3,0.8,0.3,1.2c0,0.4-0.1,0.8-0.4,1.2c-0.2,0.3-0.5,0.5-0.9,0.7v0C240,116.4,239.4,116.5,238.8,116.5L238.8,116.5z
			 M236,115h3c0.7,0,1.4-0.3,1-1.2l0,0l0,0l0,0c0-0.1-0.1-0.2-0.2-0.3c-0.1-0.1-0.2-0.2-0.2-0.3c-0.5-0.5-1.2-0.8-2-0.5v0l0,0l0,0
			c-0.1,0-0.3,0.1-0.4,0.2c-0.1,0.1-0.2,0.1-0.3,0.2C236.4,113.5,236.1,114.2,236,115L236,115z M230.8,108.7v2.3h3.2l-0.1,0.7
			c-0.1,0.7-0.4,0.8-1.2,0.9h-1.9v4.2l0,0c0,0.1,0,0.4,0,0.5c0.1,0.7,0.5,0.8,1.1,0.9c0.6,0.1,1.6,0,2-0.2c0.1,0.7,0,1.7-0.4,1.8
			c-0.4,0.2-1.2,0.2-1.8,0.2c-0.3,0-0.5,0-0.8-0.1c-0.5-0.1-1.1-0.4-1.5-0.8c-0.6-0.7-0.6-1.5-0.7-2.3l0,0v-8.1H230.8L230.8,108.7z
			 M223.1,110.9h0.7l0,0v0c1,0,1.9,0.4,2.5,1c0.6,0.6,1,1.5,1,2.5l0,0l0,0v5.4h-2v-5.4l0,0h0c0-0.4-0.2-0.8-0.5-1.1
			c-0.3-0.3-0.7-0.5-1.1-0.5v0l0,0h-0.7l0,0v0c-0.4,0-0.8,0.2-1.1,0.5c-0.3,0.3-0.5,0.7-0.5,1.1h0l0,0v5.4h-2v-5.4l0,0l0,0
			c0-1,0.4-1.9,1-2.5C221.3,111.3,222.2,110.9,223.1,110.9L223.1,110.9L223.1,110.9L223.1,110.9z M215.9,108.6h2v11.3h-2V108.6
			L215.9,108.6z M269.2,110.9h0.7h0v0c1,0,1.9,0.4,2.5,1c0.6,0.6,1,1.5,1,2.5h0l0,0v5.4h-2v-5.4l0,0h0c0-0.4-0.2-0.8-0.5-1.1
			c-0.3-0.3-0.7-0.5-1.1-0.5v0h0h-0.7h0v0c-0.4,0-0.8,0.2-1.1,0.5c-0.3,0.3-0.5,0.7-0.5,1.1h0l0,0v5.4h-2v-5.4l0,0h0
			c0-1,0.4-1.9,1-2.5C267.4,111.3,268.3,110.9,269.2,110.9L269.2,110.9L269.2,110.9L269.2,110.9z M275.1,108.6h2v11.3h-2V108.6
			L275.1,108.6z M282.6,111.3h-2l-3.6,4l4,4.5h2l-4-4.5L282.6,111.3L282.6,111.3z M262.7,116L262.7,116c-0.5,0-0.9,0-1.3,0
			c-0.8,0-1.2,0.1-1.6,0.3c-0.4,0.2-0.6,0.6-0.7,0.9l0,0v0.1l0,0c-0.1,0.7,0.3,1.2,0.9,1.3h0v0c0.8,0.1,1.4,0,1.8-0.2
			c0.4-0.2,0.6-0.6,0.7-1.1C262.7,116.9,262.7,116.4,262.7,116L262.7,116z M260.2,111c1-0.1,2.1,0,2.9,0.6c0.3,0.2,0.6,0.5,0.8,1
			c0.2,0.5,0.2,1,0.3,1.5v2.6c0,1.3-0.4,2.4-1.7,3c-0.4,0.2-0.9,0.3-1.4,0.3c-2.2,0.1-3.9-1.1-3.7-3.1c0.1-1.5,1.4-2.1,2.8-2.2
			c0.7,0,1.9,0.1,2.4,0c0-0.4-0.1-1-0.2-1.3c-0.1-0.3-0.3-0.6-0.7-0.7c-0.4-0.2-1.1-0.2-1.6-0.2c-0.7,0-1.2,0.1-2,0.6l0-0.8
			c0-0.2,0-0.5,0.2-0.7C258.6,111.2,259.6,111.1,260.2,111L260.2,111z"/>
	</g>
	<line class="st10" x1="34.8" y1="147.3" x2="253.3" y2="147.3"/>
	<g>
		<path class="st11" d="M149.1,101.3c0.3,0.1,0.5,0.1,0.8,0.2c1.1,0.2,2,0.8,2.7,1.5c0.2,0.2,0.4,0.6,0.3,0.7
			c-0.1,0.2-0.4,0.4-0.7,0.5c-2.5,0.4-4.8,1-7.1,2c-1.3,0.5-2.6,1.2-3.9,1.9c-2.8,1.5-5,3.6-7.2,5.8c-2.3,2.3-4.5,4.8-6.4,7.5
			c-1.2,1.7-2.3,3.4-3.3,5.1c-0.5,0.9-0.9,1.9-1.3,2.8c-0.1,0.1-0.2,0.4-0.3,0.4c-0.2-0.1-0.5-0.2-0.5-0.3c-0.1-0.4-0.2-0.8-0.2-1.1
			c0.4-2,1.2-3.8,2.1-5.5c1.8-3.4,4-6.5,6.6-9.4c1.5-1.6,3-3.2,4.6-4.7c2.4-2.3,5-4.2,7.9-5.7c1.4-0.7,2.8-1.2,4.3-1.5
			c0.2,0,0.5-0.1,0.7-0.2C148.5,101.3,148.8,101.3,149.1,101.3z"/>
		<path class="st12" d="M102,123.1c0.1-0.7,0.2-1.4,0.4-2.1c0.7-3.7,1.4-7.4,2.1-11.1c0-0.2,0.1-0.4,0.4-0.4c1.8-0.3,3.7-0.5,5.5,0
			c1.6,0.4,2.7,1.5,2.9,2.8c0.4,2.6-1.1,4.7-3.4,5.5c-1.2,0.4-2.4,0.5-3.7,0.4c-0.3,0-0.4,0.1-0.4,0.3c-0.3,1.4-0.5,2.9-0.8,4.3
			c0,0.1-0.1,0.3-0.2,0.3C103.8,123.2,103,123.1,102,123.1z M106.2,115.9c0.6,0,1.1,0,1.7,0c1-0.1,1.8-0.6,2.3-1.5
			c0.5-1.1,0.1-2.3-0.8-2.6c-0.7-0.2-1.4-0.2-2.1-0.1c-0.1,0-0.2,0.1-0.2,0.2C106.7,113.2,106.5,114.5,106.2,115.9z"/>
		<path class="st12" d="M119.3,121.3c-0.5,0.5-0.9,1-1.4,1.4c-1,0.8-2.2,1-3.4,0.4c-1.2-0.5-1.7-1.6-1.7-2.8c-0.1-2.6,0.8-4.7,3-6.2
			c1.4-0.9,2.9-1.2,4.6-1.1c0.8,0,1.7,0.2,2.5,0.4c0.3,0,0.4,0.2,0.3,0.5c-0.4,1.9-0.8,3.9-1.1,5.8c-0.2,1-0.2,2.1-0.3,3.1
			c0,0.3-0.1,0.4-0.4,0.4c-0.6,0-1.2,0-1.8,0c-0.3,0-0.4-0.1-0.4-0.4C119.3,122.3,119.3,121.8,119.3,121.3z M120,115.2
			c-0.9-0.3-1.7-0.1-2.4,0.5c-1.2,1.1-1.8,2.4-1.7,4.1c0,0.5,0.2,1,0.7,1.2c0.5,0.2,1,0.1,1.4-0.3c0.2-0.2,0.5-0.5,0.7-0.7
			C119.7,118.5,119.7,116.9,120,115.2z"/>
		<path class="st12" d="M138.4,123.4c-2.6,0-4.1-1-4.6-2.7c-0.9-2.8,0.8-7.3,5-7.7c1.3-0.1,2.4,0,3.4,0.8c1,0.7,1.5,1.7,1.5,2.9
			c0.1,1.2-0.1,2.4-0.7,3.6C142,122.3,140.2,123.3,138.4,123.4z M136.6,119.1c0,0.2,0,0.3,0,0.5c0.1,1,0.8,1.7,1.8,1.6
			c0.5,0,1-0.3,1.3-0.7c0.9-1.1,1.2-2.4,1.1-3.7c-0.1-1.1-0.9-1.7-2-1.5c-0.5,0.1-0.9,0.4-1.2,0.8C136.9,117,136.7,118,136.6,119.1z
			"/>
		<path class="st12" d="M146.1,113.2c0.8,0,1.6,0,2.5,0c0,0.5-0.1,1-0.1,1.6c0.3-0.3,0.5-0.5,0.8-0.7c1-0.8,2.1-1.2,3.4-1
			c1.1,0.2,1.8,1,1.9,2c0.1,1.2-0.1,2.4-0.3,3.6c-0.3,1.4-0.5,2.8-0.8,4.2c0,0.1-0.2,0.3-0.3,0.3c-0.8,0-1.7,0-2.5,0
			c0,0-0.1,0-0.2-0.1c0.2-0.8,0.3-1.6,0.5-2.4c0.2-1.3,0.4-2.5,0.6-3.8c0-0.2,0-0.4,0-0.7c-0.1-0.7-0.6-1.1-1.4-0.9
			c-0.7,0.2-1.1,0.8-1.5,1.4c-0.5,0.9-0.7,1.9-0.9,2.9c-0.2,1.1-0.4,2.2-0.6,3.2c0,0.1-0.2,0.3-0.3,0.3c-0.9,0-1.7,0-2.7,0
			C144.9,119.8,145.5,116.5,146.1,113.2z"/>
		<path class="st12" d="M158.6,119.2c-0.1,1,0.6,1.7,1.7,1.9c1,0.1,2,0,2.9-0.4c0.1,0,0.2-0.1,0.3-0.1c0,0,0.1,0,0.1,0
			c0.1,0.6,0.1,1.2,0.2,1.8c0,0.1-0.1,0.3-0.2,0.4c-1.6,0.7-3.3,0.9-5,0.5c-1.6-0.4-2.5-1.6-2.7-3.2c-0.3-2.3,0.4-4.3,2.2-5.8
			c1.5-1.2,3.2-1.6,5-1.1c1.2,0.4,1.9,1.3,2,2.6c0.1,1.3-0.5,2.2-1.6,2.8c-0.9,0.5-1.9,0.6-2.9,0.7
			C159.8,119.3,159.2,119.2,158.6,119.2z M158.8,117.1c0.8,0.2,2.3,0,2.9-0.3c0.4-0.2,0.6-0.6,0.5-1c-0.1-0.4-0.3-0.6-0.7-0.7
			C160.4,114.8,159,115.8,158.8,117.1z"/>
		<path class="st12" d="M168.3,119.3c-0.1,1,0.6,1.7,1.6,1.8c1,0.1,1.9,0,2.8-0.4c0.2-0.1,0.3-0.1,0.5-0.2c0.1,0.6,0.1,1.2,0.2,1.8
			c0,0.1-0.1,0.3-0.2,0.4c-1.7,0.7-3.4,0.9-5.1,0.4c-1.6-0.4-2.4-1.6-2.6-3.1c-0.2-2,0.3-3.8,1.7-5.3c1.5-1.6,3.4-2.2,5.5-1.6
			c1.3,0.4,2,1.3,2.1,2.6c0.1,1.3-0.5,2.3-1.7,2.8c-1.2,0.6-2.5,0.7-3.9,0.7C168.9,119.3,168.6,119.3,168.3,119.3z M168.6,117.2
			c0.6,0,1.2,0,1.8-0.1c0.4-0.1,0.8-0.2,1.1-0.3c0.4-0.2,0.6-0.5,0.5-0.9c-0.1-0.4-0.3-0.6-0.7-0.7
			C170.1,114.8,168.7,115.8,168.6,117.2z"/>
		<path class="st12" d="M174.9,123.1c0.1-0.7,0.2-1.4,0.4-2c0.5-2.5,1-5.1,1.2-7.6c0-0.1,0.2-0.3,0.2-0.3c0.7,0,1.5,0,2.3,0
			c-0.1,0.7-0.1,1.3-0.2,2c0.9-1.3,1.9-2.4,3.8-2.2c-0.2,0.9-0.3,1.8-0.5,2.6c0,0.1-0.1,0.2-0.2,0.2c-1.9,0.3-2.7,0.9-3.2,2.9
			c-0.3,1.4-0.6,2.8-0.8,4.2c0,0.1-0.1,0.3-0.2,0.3C176.8,123.2,175.9,123.1,174.9,123.1z"/>
		<path class="st11" d="M127.8,110.8c0,1.4-0.3,2.7-0.7,4c0,0.1-0.1,0.3-0.2,0.4c-0.2,0.3-0.4,0.3-0.6,0c-0.2-0.4-0.4-0.8-0.5-1.3
			c-0.3-1.4-0.6-2.8-0.9-4.2c-0.3-1.8-0.6-3.6-1-5.3c0-0.3-0.1-0.5-0.1-0.8c0-0.3,0.1-0.4,0.4-0.3c0.3,0.1,0.5,0.2,0.7,0.4
			c1.6,1.6,2.5,3.6,2.8,5.8C127.7,109.9,127.8,110.3,127.8,110.8z"/>
	</g>
	<line class="st10" x1="35.2" y1="85" x2="253.7" y2="85"/>
	<g>
		<circle class="st13" cx="42.5" cy="37.5" r="30.5"/>
		<g>
			<g>
				<path class="st14" d="M56.7,32.3c-1.3,0-2.3,0.3-3,0.5l-0.2,1.9c0.4-0.2,1.6-0.5,2.6-0.6c1,0,1.6,0.2,1.4,1c-3,0-5,0.6-5.4,2.5
					c-0.6,3.3,3,3.2,4.5,1.8l-0.2,0.8h2.7l1.1-5.3C60.6,32.9,58.5,32.3,56.7,32.3z M56.8,37.7c-0.1,0.7-0.7,1-1.4,1
					c-0.6,0-1.1-0.5-0.7-1.1c0.3-0.5,1.1-0.6,1.6-0.6c0.2,0,0.4,0,0.6,0C56.9,37.3,56.9,37.5,56.8,37.7z"/>
				<polygon class="st14" points="62.4,30.3 60.2,40.4 62.9,40.4 65.1,30.3 				"/>
				<path class="st14" d="M50,30.3H45l-2.2,10.1h2.9l0.7-3.3h2c2,0,3.7-1.2,4.1-3.3C53.1,31.4,51.4,30.3,50,30.3z M49.9,33.7
					c-0.2,0.8-0.9,1.4-1.7,1.4h-1.3l0.6-2.8h1.4C49.6,32.3,50.1,33,49.9,33.7z"/>
			</g>
			<g>
				<path class="st15" d="M30.8,32.3c-1.3,0-2.2,0.3-3,0.5l-0.2,1.9c0.3-0.2,1.5-0.5,2.5-0.6c1,0,1.6,0.2,1.4,1
					c-2.9,0-4.9,0.6-5.3,2.5c-0.6,3.3,3,3.2,4.4,1.8l-0.2,0.8h2.7l1.1-5.3C34.7,32.9,32.6,32.3,30.8,32.3z M31,37.7
					c-0.1,0.7-0.7,1-1.4,1c-0.6,0-1.1-0.5-0.7-1.1c0.3-0.5,1.1-0.6,1.6-0.6c0.2,0,0.4,0,0.7,0C31.1,37.3,31,37.5,31,37.7z"/>
				<polygon class="st15" points="35.4,32.5 38,32.5 38.5,37.2 41,32.5 43.8,32.5 37.5,43.7 34.5,43.7 36.5,40.4 				"/>
				<path class="st15" d="M24.2,30.3h-4.9l-2.2,10.1H20l0.7-3.3h2.1c2,0,3.6-1.2,4.1-3.3C27.4,31.4,25.7,30.3,24.2,30.3z M24.1,33.7
					c-0.2,0.8-0.9,1.4-1.7,1.4h-1.4l0.6-2.8h1.4C23.9,32.3,24.3,33,24.1,33.7z"/>
			</g>
		</g>
		<g>
			<path class="st15" d="M65.7,31.6v-1.2h-0.4v-0.2h1.1v0.2h-0.4v1.2H65.7z"/>
			<path class="st15" d="M66.5,31.6v-1.4h0.3l0.3,1c0,0.1,0.1,0.2,0.1,0.2c0,0,0-0.1,0.1-0.2l0.3-0.9h0.2v1.4h-0.2v-1.1l-0.4,1.1H67
				l-0.4-1.1v1.1H66.5L66.5,31.6z"/>
		</g>
	</g>
	<g>
		<circle class="st13" cx="115" cy="37" r="30"/>
		<g>
			<polygon class="st16" points="107.2,42.7 109.5,29.2 113.2,29.2 110.9,42.7 			"/>
			<path class="st16" d="M124.1,29.5c-0.7-0.3-1.9-0.6-3.3-0.6c-3.7,0-6.3,1.8-6.3,4.5c0,1.9,1.8,3,3.3,3.7c1.4,0.7,1.9,1.1,1.9,1.7
				c0,0.9-1.2,1.3-2.2,1.3c-1.5,0-2.3-0.2-3.5-0.7l-0.5-0.2l-0.5,3c0.9,0.4,2.5,0.7,4.1,0.7c3.9,0,6.4-1.8,6.5-4.6
				c0-1.5-1-2.7-3.1-3.7c-1.3-0.6-2.1-1-2.1-1.7c0-0.6,0.7-1.2,2.1-1.2c1.2,0,2.1,0.2,2.8,0.5l0.3,0.2L124.1,29.5L124.1,29.5z"/>
			<path class="st16" d="M130.5,29.2c-0.9,0-1.5,0.3-1.9,1.2L123,42.7h3.9l0.8-2.1h4.7l0.4,2.1h3.5l-3.1-13.5L130.5,29.2L130.5,29.2
				L130.5,29.2z M128.8,38c0.3-0.8,1.5-3.8,1.5-3.8c0,0,0.3-0.8,0.5-1.3L131,34c0,0,0.7,3.2,0.9,3.9L128.8,38L128.8,38z"/>
			<path class="st16" d="M100.4,38.5l-0.3-1.9c-0.7-2.2-2.8-4.5-5.1-5.7l3.3,11.8h3.9l5.9-13.5h-3.9L100.4,38.5z"/>
		</g>
		<g>
			<path class="st17" d="M90.9,29.2v0.2c4.7,1.1,7.9,4,9.2,7.2l-1.3-6.3c-0.2-0.9-0.9-1.1-1.7-1.2L90.9,29.2L90.9,29.2z"/>
			<path class="st17" d="M115,67c11.6,0,21.6-6.6,26.6-16.2H88.4C93.4,60.4,103.4,67,115,67z"/>
		</g>
		<path class="st16" d="M115,7c-11.4,0-21.3,6.3-26.4,15.7h52.7C136.3,13.4,126.4,7,115,7z"/>
	</g>
	<g>
		<circle class="st18" cx="186.4" cy="37.3" r="29.8"/>
		<path class="st19" d="M176.6,22.9c-7.5,0-13.6,6.2-13.6,13.7c0,7.6,6.1,13.7,13.7,13.7c3.5,0,6.8-1.4,9.2-3.6l0,0h0
			c0.5-0.5,1-0.9,1.4-1.5h-2.8c-0.4-0.5-0.7-0.9-1-1.4h4.8c0.3-0.5,0.6-1,0.8-1.5h-6.4c-0.2-0.5-0.4-1-0.6-1.4h7.6
			c0.5-1.4,0.7-2.8,0.7-4.4c0-1-0.1-2-0.3-2.9h-8.4c0.1-0.5,0.2-1,0.4-1.4h7.6c-0.2-0.5-0.4-1-0.6-1.5h-6.4c0.2-0.5,0.5-1,0.8-1.4
			h4.8c-0.3-0.5-0.7-1-1.1-1.5h-2.7c0.4-0.5,0.9-1,1.4-1.4C183.5,24.2,180.2,22.9,176.6,22.9C176.7,22.9,176.6,22.9,176.6,22.9z"/>
		<path class="st20" d="M208.8,36.6c0,7.6-6.1,13.7-13.7,13.7c-7.6,0-13.7-6.1-13.7-13.7v0c0-7.6,6.1-13.7,13.7-13.7
			C202.6,22.9,208.8,29,208.8,36.6C208.8,36.6,208.8,36.6,208.8,36.6z"/>
		<path class="st17" d="M208.8,36.7c0,7.6-6.1,13.7-13.7,13.7c-7.6,0-13.7-6.1-13.7-13.7v0c0-7.6,6.1-13.7,13.7-13.7
			C202.6,23,208.8,29.2,208.8,36.7C208.8,36.7,208.8,36.7,208.8,36.7z"/>
		<path class="st21" d="M176.6,23c-7.5,0-13.6,6.2-13.6,13.7c0,7.6,6.1,13.7,13.7,13.7c3.5,0,6.8-1.4,9.2-3.6l0,0h0
			c0.5-0.5,1-0.9,1.4-1.5h-2.8c-0.4-0.5-0.7-0.9-1-1.4h4.8c0.3-0.5,0.6-1,0.8-1.5h-6.4c-0.2-0.5-0.4-1-0.6-1.4h7.6
			c0.5-1.4,0.7-2.8,0.7-4.4c0-1-0.1-2-0.3-2.9h-8.4c0.1-0.5,0.2-1,0.4-1.4h7.6c-0.2-0.5-0.4-1-0.6-1.5h-6.4c0.2-0.5,0.5-1,0.8-1.4
			h4.8c-0.3-0.5-0.7-1-1.1-1.5h-2.7c0.4-0.5,0.9-1,1.4-1.4C183.5,24.4,180.2,23,176.6,23C176.7,23,176.6,23,176.6,23z"/>
		<g>
			<path class="st22" d="M181.6,40.2l0.2-1.2c-0.1,0-0.2,0-0.4,0c-0.5,0-0.6-0.3-0.5-0.5l0.4-2.5h0.8l0.2-1.4h-0.7l0.1-0.9h-1.5
				c0,0-0.9,4.8-0.9,5.4c0,0.9,0.5,1.2,1.2,1.2C181.1,40.4,181.5,40.3,181.6,40.2z"/>
			<path class="st22" d="M182.1,37.9c0,2.1,1.4,2.6,2.5,2.6c1.1,0,1.5-0.2,1.5-0.2l0.3-1.4c0,0-0.8,0.4-1.5,0.4
				c-1.6,0-1.3-1.2-1.3-1.2h3c0,0,0.2-0.9,0.2-1.3c0-1-0.5-2.1-2.1-2.1C183.2,34.5,182.1,36.1,182.1,37.9z M184.6,35.8
				c0.8,0,0.7,0.9,0.7,1h-1.6C183.7,36.7,183.8,35.8,184.6,35.8z"/>
			<path class="st22" d="M193.9,40.2l0.3-1.6c0,0-0.7,0.4-1.2,0.4c-1,0-1.4-0.8-1.4-1.6c0-1.7,0.9-2.7,1.9-2.7
				c0.7,0,1.3,0.4,1.3,0.4l0.2-1.5c0,0-0.9-0.4-1.6-0.4c-1.7,0-3.3,1.5-3.3,4.2c0,1.8,0.9,3,2.6,3C193.1,40.4,193.9,40.2,193.9,40.2
				z"/>
			<path class="st22" d="M173.6,34.5c-1,0-1.8,0.3-1.8,0.3l-0.2,1.3c0,0,0.6-0.3,1.6-0.3c0.5,0,0.9,0.1,0.9,0.5c0,0.3,0,0.4,0,0.4
				s-0.4,0-0.6,0c-1.3,0-2.6,0.5-2.6,2.2c0,1.3,0.9,1.6,1.4,1.6c1,0,1.5-0.7,1.5-0.7l0,0.6h1.3l0.6-4
				C175.6,34.6,174.1,34.5,173.6,34.5z M173.9,37.8c0,0.2-0.2,1.4-1,1.4c-0.5,0-0.6-0.3-0.6-0.6c0-0.4,0.2-0.9,1.3-0.9
				C173.8,37.8,173.9,37.8,173.9,37.8z"/>
			<path class="st22" d="M177,40.4c0.3,0,2.2,0.1,2.2-1.9c0-1.8-1.7-1.5-1.7-2.2c0-0.4,0.3-0.5,0.8-0.5c0.2,0,1,0.1,1,0.1l0.2-1.3
				c0,0-0.5-0.1-1.3-0.1c-1.1,0-2.2,0.4-2.2,1.9c0,1.7,1.8,1.5,1.8,2.2c0,0.5-0.5,0.5-0.9,0.5c-0.7,0-1.3-0.2-1.3-0.2l-0.2,1.3
				C175.4,40.2,175.7,40.4,177,40.4z"/>
			<path class="st22" d="M206,33.4l-0.3,2c0,0-0.5-0.8-1.4-0.8c-1.3,0-2.5,1.6-2.5,3.5c0,1.2,0.6,2.4,1.8,2.4c0.9,0,1.4-0.6,1.4-0.6
				l-0.1,0.5h1.4l1.1-6.9L206,33.4z M205.3,37.2c0,0.8-0.4,1.8-1.2,1.8c-0.5,0-0.8-0.4-0.8-1.1c0-1.1,0.5-1.9,1.1-1.9
				C205,36,205.3,36.3,205.3,37.2z"/>
			<path class="st22" d="M165.7,40.3l0.9-5.2l0.1,5.2h1l1.9-5.2l-0.8,5.2h1.5l1.2-7h-2.3l-1.4,4.3l-0.1-4.3h-2.1l-1.2,7H165.7
				L165.7,40.3z"/>
			<path class="st22" d="M188.2,40.3c0.4-2.4,0.5-4.4,1.5-4c0.2-0.9,0.3-1.3,0.5-1.7c0,0-0.1,0-0.3,0c-0.7,0-1.1,0.9-1.1,0.9
				l0.1-0.8h-1.4l-0.9,5.7H188.2z"/>
			<path class="st22" d="M197.2,34.5c-1,0-1.8,0.3-1.8,0.3l-0.2,1.3c0,0,0.6-0.3,1.6-0.3c0.5,0,0.9,0.1,0.9,0.5c0,0.3,0,0.4,0,0.4
				s-0.4,0-0.6,0c-1.3,0-2.6,0.5-2.6,2.2c0,1.3,0.9,1.6,1.4,1.6c1,0,1.5-0.7,1.5-0.7l0,0.6h1.3l0.6-4
				C199.2,34.6,197.8,34.5,197.2,34.5z M197.6,37.8c0,0.2-0.2,1.4-1,1.4c-0.5,0-0.6-0.3-0.6-0.6c0-0.4,0.2-0.9,1.3-0.9
				C197.5,37.8,197.5,37.8,197.6,37.8z"/>
			<path class="st22" d="M200.4,40.3c0.4-2.4,0.5-4.4,1.5-4c0.2-0.9,0.3-1.3,0.5-1.7c0,0-0.1,0-0.3,0c-0.7,0-1.1,0.9-1.1,0.9
				l0.1-0.8h-1.4l-0.9,5.7L200.4,40.3L200.4,40.3L200.4,40.3z"/>
		</g>
	</g>
</g>
<g>
	<circle class="st23" cx="257.5" cy="37.5" r="30.1"/>
	<path class="st24" d="M237.6,32.1l-0.9-2.3l-0.9,2.3 M258.3,31.2c-0.2,0.1-0.4,0.1-0.7,0.1H256V30h1.7c0.2,0,0.5,0,0.7,0.1
		c0.2,0.1,0.3,0.3,0.3,0.5C258.6,30.9,258.5,31.1,258.3,31.2 M270.2,32.1l-1-2.3l-0.9,2.3H270.2L270.2,32.1z M248,34.6h-1.4l0-4.6
		l-2,4.6h-1.2l-2-4.6v4.6h-2.8l-0.5-1.3h-2.9l-0.5,1.3h-1.5l2.5-5.8h2l2.3,5.5v-5.5h2.2l1.8,4l1.7-4h2.3L248,34.6L248,34.6z
		 M253.7,34.6h-4.6v-5.8h4.6V30h-3.2V31h3.1v1.2h-3.1v1.2h3.2L253.7,34.6L253.7,34.6z M260.1,30.4c0,0.9-0.6,1.4-1,1.6
		c0.3,0.1,0.6,0.3,0.7,0.5c0.2,0.3,0.2,0.5,0.2,1.1v1.1h-1.4l0-0.7c0-0.4,0-0.9-0.2-1.1c-0.2-0.2-0.5-0.2-1-0.2H256v2.1h-1.4v-5.8
		h3.2c0.7,0,1.2,0,1.7,0.3C259.9,29.3,260.1,29.7,260.1,30.4 M262.3,34.6h-1.4v-5.8h1.4V34.6z M278.6,34.6h-1.9l-2.6-4.4v4.4h-2.8
		l-0.5-1.3h-2.9l-0.5,1.3h-1.6c-0.7,0-1.5-0.1-2-0.6c-0.5-0.5-0.7-1.2-0.7-2.2c0-0.9,0.1-1.7,0.7-2.3c0.4-0.5,1.1-0.7,2.1-0.7h1.3
		V30h-1.3c-0.5,0-0.8,0.1-1.1,0.3c-0.2,0.2-0.4,0.7-0.4,1.3c0,0.6,0.1,1.1,0.4,1.4c0.2,0.2,0.6,0.3,1,0.3h0.6l1.9-4.6h2.1l2.3,5.5
		v-5.5h2.1l2.4,4.1v-4.1h1.4L278.6,34.6L278.6,34.6z M233.2,35.8h2.3l0.5-1.3h1.2l0.5,1.3h4.6v-1l0.4,1h2.4l0.4-1v1h11.5l0-2.1h0.2
		c0.2,0,0.2,0,0.2,0.3v1.8h5.9v-0.5c0.5,0.3,1.2,0.5,2.2,0.5h2.5l0.5-1.3h1.2l0.5,1.3h4.8v-1.2l0.7,1.2h3.9v-8.1H276v1l-0.5-1h-3.9
		v1l-0.5-1h-5.3c-0.9,0-1.7,0.1-2.3,0.5v-0.5h-3.6v0.5c-0.4-0.4-0.9-0.5-1.6-0.5h-13.3l-0.9,2.1l-0.9-2.1h-4.2v1l-0.5-1h-3.6
		l-1.7,3.9l-1.9,4.3H233.2z"/>
	<path class="st22" d="M237.6,32.6l-0.9-2.3l-0.9,2.3 M258.3,31.6c-0.2,0.1-0.4,0.1-0.7,0.1H256v-1.3h1.7c0.2,0,0.5,0,0.7,0.1
		c0.2,0.1,0.3,0.3,0.3,0.5C258.6,31.3,258.5,31.6,258.3,31.6 M270.2,32.6l-1-2.3l-0.9,2.3L270.2,32.6L270.2,32.6z M248,35.1h-1.4
		l0-4.6l-2,4.6h-1.2l-2-4.6v4.6h-2.8l-0.5-1.3h-2.9l-0.5,1.3h-1.5l2.5-5.8h2l2.3,5.5v-5.5h2.2l1.8,4l1.7-4h2.3L248,35.1L248,35.1z
		 M253.7,35.1h-4.6v-5.8h4.6v1.2h-3.2v1.1h3.1v1.2h-3.1v1.2h3.2L253.7,35.1L253.7,35.1z M260.1,30.8c0,0.9-0.6,1.4-1,1.6
		c0.3,0.1,0.6,0.3,0.7,0.5c0.2,0.3,0.2,0.5,0.2,1.1v1.1h-1.4l0-0.7c0-0.4,0-0.9-0.2-1.1c-0.2-0.2-0.5-0.2-1-0.2H256v2.1h-1.4v-5.8
		h3.2c0.7,0,1.2,0,1.7,0.3C259.9,29.8,260.1,30.2,260.1,30.8 M262.3,35.1h-1.4v-5.8h1.4V35.1z M278.6,35.1h-1.9l-2.6-4.4v4.4h-2.8
		l-0.5-1.3h-2.9l-0.5,1.3h-1.6c-0.7,0-1.5-0.1-2-0.6c-0.5-0.5-0.7-1.2-0.7-2.2c0-0.9,0.1-1.7,0.7-2.3c0.4-0.5,1.1-0.7,2.1-0.7h1.3
		v1.2h-1.3c-0.5,0-0.8,0.1-1.1,0.3c-0.2,0.2-0.4,0.7-0.4,1.3c0,0.6,0.1,1.1,0.4,1.4c0.2,0.2,0.6,0.3,1,0.3h0.6l1.9-4.6h2.1l2.3,5.5
		v-5.5h2.1l2.4,4.1v-4.1h1.4L278.6,35.1L278.6,35.1z M233.2,36.2h2.3l0.5-1.3h1.2l0.5,1.3h4.6v-1l0.4,1h2.4l0.4-1v1h11.5l0-2.1h0.2
		c0.2,0,0.2,0,0.2,0.3v1.8h5.9v-0.5c0.5,0.3,1.2,0.5,2.2,0.5h2.5l0.5-1.3h1.2l0.5,1.3h4.8V35l0.7,1.2h3.9v-8.1H276v1l-0.5-1h-3.9v1
		l-0.5-1h-5.3c-0.9,0-1.7,0.1-2.3,0.5v-0.5h-3.6v0.5c-0.4-0.4-0.9-0.5-1.6-0.5h-13.3l-0.9,2.1l-0.9-2.1h-4.2v1l-0.5-1h-3.6l-1.7,3.9
		l-1.9,4.3H233.2z"/>
	<path class="st24" d="M282.9,41.2v-3.7h-1l0,0h-2.5c-0.8,0-1.3,0.2-1.7,0.5v-0.5H274c-0.6,0-1.3,0.2-1.6,0.5v-0.5h-6.7V38
		c-0.5-0.4-1.4-0.5-1.9-0.5h-4.4V38c-0.4-0.4-1.4-0.5-1.9-0.5h-5l-1.1,1.2l-1.1-1.2h-7.4v8.1h7.3l1.2-1.3l1.1,1.3l4.5,0v-1.9h0.4
		c0.6,0,1.3,0,1.9-0.3v2.2h3.7v-2.1h0.2c0.2,0,0.2,0,0.2,0.2v1.9h11.2c0.7,0,1.5-0.2,1.9-0.5v0.5h3.6c0.7,0,1.5-0.1,2-0.4v0
		c0.8-0.5,1.3-1.4,1.3-2.5C283.3,42.2,283.2,41.7,282.9,41.2z M257.3,42.5h-1.7v2H253l-1.7-1.9l-1.8,1.9h-5.4v-5.8h5.5l1.7,1.9
		l1.7-1.9h4.4c1.1,0,2.3,0.3,2.3,1.9C259.7,42.2,258.5,42.5,257.3,42.5z M265.6,42.3c0.2,0.3,0.2,0.5,0.2,1.1v1.2h-1.4v-0.7
		c0-0.4,0-0.9-0.2-1.1c-0.2-0.2-0.5-0.3-1-0.3h-1.5v2.1h-1.4v-5.8h3.2c0.7,0,1.2,0,1.7,0.3c0.4,0.3,0.7,0.6,0.7,1.3
		c0,0.9-0.6,1.4-1,1.5C265.2,41.9,265.5,42.1,265.6,42.3z M271.3,39.9H268v1.1h3.1v1.2H268v1.2l3.2,0v1.2h-4.6v-5.8h4.6V39.9
		L271.3,39.9z M274.8,44.5h-2.7v-1.2h2.7c0.3,0,0.4,0,0.6-0.1c0.1-0.1,0.2-0.2,0.2-0.4c0-0.2-0.1-0.3-0.2-0.4
		c-0.1-0.1-0.2-0.1-0.5-0.1c-1.3,0-2.9,0-2.9-1.8c0-0.8,0.5-1.7,2-1.7h2.8v1.2h-2.5c-0.2,0-0.4,0-0.6,0.1c-0.1,0.1-0.2,0.2-0.2,0.4
		c0,0.2,0.1,0.4,0.3,0.4c0.1,0.1,0.3,0.1,0.5,0.1l0.7,0c0.7,0,1.3,0.1,1.6,0.5c0.3,0.3,0.4,0.6,0.4,1.2
		C276.9,43.9,276.1,44.5,274.8,44.5z M281.8,43.9c-0.4,0.4-0.9,0.6-1.7,0.6h-2.7v-1.2h2.6c0.3,0,0.4,0,0.6-0.1
		c0.1-0.1,0.2-0.2,0.2-0.4c0-0.2-0.1-0.3-0.2-0.4c-0.1-0.1-0.2-0.1-0.5-0.1c-1.3,0-2.9,0-2.9-1.8c0-0.8,0.5-1.7,2-1.7h2.7v1.2h-2.5
		c-0.2,0-0.4,0-0.6,0.1c-0.1,0.1-0.2,0.2-0.2,0.4c0,0.2,0.1,0.4,0.3,0.4c0.1,0.1,0.3,0.1,0.5,0.1l0.7,0c0.8,0,1.3,0.1,1.6,0.5
		c0.1,0,0.1,0.1,0.1,0.1c0,0,0,0,0-0.1c0.2,0.3,0.4,0.7,0.4,1.1C282.3,43.2,282.1,43.6,281.8,43.9z M248.9,39.9l1.5,1.7l-1.6,1.7
		h-3.4v-1.2h3v-1.2h-3v-1.1L248.9,39.9L248.9,39.9z M252.1,41.6l2.1-2.3V44L252.1,41.6z M258.3,40.6c0,0.5-0.3,0.8-0.9,0.8h-1.8
		v-1.5h1.8C257.9,39.9,258.3,40.1,258.3,40.6z M264.4,40.5c0,0.2-0.1,0.4-0.3,0.6c-0.2,0.1-0.4,0.1-0.7,0.1h-1.7v-1.3h1.7
		c0.2,0,0.5,0,0.7,0.1C264.3,40.1,264.4,40.3,264.4,40.5z"/>
	<path class="st22" d="M282.9,41.7V38h-1l0,0h-2.5c-0.8,0-1.3,0.2-1.7,0.5V38H274c-0.6,0-1.3,0.2-1.6,0.5V38h-6.7v0.5
		c-0.5-0.4-1.4-0.5-1.9-0.5h-4.4v0.5c-0.4-0.4-1.4-0.5-1.9-0.5h-5l-1.1,1.2l-1.1-1.2h-7.4v8.1h7.3l1.2-1.3l1.1,1.3l4.5,0v-1.9h0.4
		c0.6,0,1.3,0,1.9-0.3v2.2h3.7V44h0.2c0.2,0,0.2,0,0.2,0.2v1.9h11.2c0.7,0,1.5-0.2,1.9-0.5v0.5h3.6c0.7,0,1.5-0.1,2-0.4v0
		c0.8-0.5,1.3-1.4,1.3-2.5C283.3,42.7,283.2,42.2,282.9,41.7z M257.3,43h-1.7v2H253l-1.7-1.9l-1.8,1.9h-5.4v-5.8h5.5l1.7,1.9
		l1.7-1.9h4.4c1.1,0,2.3,0.3,2.3,1.9C259.7,42.7,258.5,43,257.3,43z M265.6,42.8c0.2,0.3,0.2,0.5,0.2,1.1V45h-1.4v-0.7
		c0-0.4,0-0.9-0.2-1.1c-0.2-0.2-0.5-0.3-1-0.3h-1.5V45h-1.4v-5.8h3.2c0.7,0,1.2,0,1.7,0.3c0.4,0.3,0.7,0.6,0.7,1.3
		c0,0.9-0.6,1.4-1,1.5C265.2,42.4,265.5,42.6,265.6,42.8z M271.3,40.4H268v1.1h3.1v1.2H268v1.2l3.2,0V45h-4.6v-5.8h4.6V40.4
		L271.3,40.4z M274.8,45h-2.7v-1.2h2.7c0.3,0,0.4,0,0.6-0.1c0.1-0.1,0.2-0.2,0.2-0.4c0-0.2-0.1-0.3-0.2-0.4
		c-0.1-0.1-0.2-0.1-0.5-0.1c-1.3,0-2.9,0-2.9-1.8c0-0.8,0.5-1.7,2-1.7h2.8v1.2h-2.5c-0.2,0-0.4,0-0.6,0.1c-0.1,0.1-0.2,0.2-0.2,0.4
		c0,0.2,0.1,0.4,0.3,0.4c0.1,0.1,0.3,0.1,0.5,0.1l0.7,0c0.7,0,1.3,0.1,1.6,0.5c0.3,0.3,0.4,0.6,0.4,1.2
		C276.9,44.4,276.1,45,274.8,45z M281.8,44.4c-0.4,0.4-0.9,0.6-1.7,0.6h-2.7v-1.2h2.6c0.3,0,0.4,0,0.6-0.1c0.1-0.1,0.2-0.2,0.2-0.4
		c0-0.2-0.1-0.3-0.2-0.4c-0.1-0.1-0.2-0.1-0.5-0.1c-1.3,0-2.9,0-2.9-1.8c0-0.8,0.5-1.7,2-1.7h2.7v1.2h-2.5c-0.2,0-0.4,0-0.6,0.1
		c-0.1,0.1-0.2,0.2-0.2,0.4c0,0.2,0.1,0.4,0.3,0.4c0.1,0.1,0.3,0.1,0.5,0.1l0.7,0c0.8,0,1.3,0.1,1.6,0.5c0.1,0,0.1,0.1,0.1,0.1
		c0,0,0,0,0-0.1c0.2,0.3,0.4,0.7,0.4,1.1C282.3,43.6,282.1,44.1,281.8,44.4z M248.9,40.4l1.5,1.7l-1.6,1.7h-3.4v-1.2h3v-1.2h-3v-1.1
		L248.9,40.4L248.9,40.4z M252.1,42.1l2.1-2.3v4.7L252.1,42.1z M258.3,41.1c0,0.5-0.3,0.8-0.9,0.8h-1.8v-1.5h1.8
		C257.9,40.4,258.3,40.6,258.3,41.1z M264.4,41c0,0.2-0.1,0.4-0.3,0.6c-0.2,0.1-0.4,0.1-0.7,0.1h-1.7v-1.3h1.7c0.2,0,0.5,0,0.7,0.1
		C264.3,40.6,264.4,40.7,264.4,41z"/>
</g>
</svg>
