<?xml version="1.0" encoding="utf-8"?>
<!-- Generator: Adobe Illustrator 22.0.1, SVG Export Plug-In . SVG Version: 6.00 Build 0)  -->
<svg version="1.1" id="Capa_1" xmlns="http://www.w3.org/2000/svg" xmlns:xlink="http://www.w3.org/1999/xlink" x="0px" y="0px"
	 viewBox="0 0 500 151" style="enable-background:new 0 0 500 151;" xml:space="preserve">
<style type="text/css">
	.st0{fill:#FFFFFF;}
</style>
<g>
	<g>
		<path class="st0" d="M57.2,35v15.8c0,0.7,0.3,1.3,0.7,1.8l22.6,22.1c1,0.9,1,2.5,0,3.5l-22.7,23.3c-0.4,0.5-0.7,1.1-0.7,1.7v15.7
			c0,2.2,2.6,3.3,4.2,1.7l41.9-41.9c1-1,1-2.5,0-3.5L61.4,33.3C59.9,31.7,57.2,32.8,57.2,35z"/>
		<path class="st0" d="M61.7,75.3l-8-8c-1-1-2.5-1-3.5,0L35.6,81.9c-0.9,0.9-2.5,1-3.4,0l-3.3-3.2c-1-0.9-1-2.5,0-3.5L51.5,52
			c0.4-0.5,0.7-1.1,0.7-1.7V35.1c0-2.2-2.6-3.3-4.2-1.7L6.2,75.2c-1,1-1,2.5,0,3.5L48,120.5c1.5,1.5,4.2,0.5,4.2-1.7v-16.2
			c0-0.7-0.3-1.3-0.7-1.8l-4.2-4.1c-1-1-1-2.5,0-3.5l14.4-14.4C62.7,77.8,62.7,76.3,61.7,75.3z"/>
	</g>
	<g>
		<path class="st0" d="M125.3,91.6h-6.5V59h22.8v6.5h-16.3V72h9.8v6.5h-9.8V91.6z"/>
		<path class="st0" d="M164.9,79.2c0,1.8-0.3,3.5-1,5.1s-1.5,2.9-2.7,4.1c-1.1,1.1-2.4,2-3.9,2.7s-3.1,1-4.8,1s-3.3-0.3-4.8-1
			s-2.8-1.6-3.9-2.7c-1.1-1.1-2-2.5-2.7-4.1s-1-3.3-1-5.1c0-1.8,0.3-3.6,1-5.1c0.7-1.6,1.5-2.9,2.7-4.1c1.1-1.1,2.4-2,3.9-2.7
			c1.5-0.6,3.1-1,4.8-1s3.3,0.3,4.8,0.9s2.8,1.5,3.9,2.6c1.1,1.1,2,2.5,2.7,4.1C164.5,75.5,164.9,77.3,164.9,79.2z M158.6,79.2
			c0-1-0.2-1.9-0.5-2.7c-0.3-0.8-0.8-1.5-1.3-2.1c-0.6-0.6-1.2-1-2-1.3c-0.7-0.3-1.5-0.5-2.4-0.5c-0.8,0-1.6,0.2-2.4,0.5
			c-0.7,0.3-1.4,0.8-2,1.3c-0.6,0.6-1,1.3-1.3,2.1c-0.3,0.8-0.5,1.7-0.5,2.7c0,0.9,0.2,1.8,0.5,2.6c0.3,0.8,0.8,1.5,1.3,2.1
			c0.6,0.6,1.2,1.1,2,1.4c0.7,0.3,1.5,0.5,2.4,0.5c0.8,0,1.6-0.2,2.4-0.5c0.7-0.3,1.4-0.8,2-1.3c0.6-0.6,1-1.3,1.3-2.1
			C158.5,81.1,158.6,80.2,158.6,79.2z"/>
		<path class="st0" d="M174.5,91.6h-6.2V67.3h1.5l2,2.9c1-0.9,2.1-1.6,3.4-2.1c1.3-0.5,2.6-0.7,3.9-0.7h5.5v6.2h-5.5
			c-0.7,0-1.3,0.1-1.8,0.4c-0.6,0.2-1.1,0.6-1.5,1s-0.8,0.9-1,1.5s-0.4,1.2-0.4,1.8v13.3H174.5z"/>
		<path class="st0" d="M218.4,91.6h-6.2V76.1c0-0.4-0.1-0.8-0.2-1.2c-0.2-0.4-0.4-0.7-0.7-1s-0.6-0.5-1-0.7s-0.8-0.2-1.2-0.2
			s-0.8,0.1-1.2,0.2c-0.4,0.2-0.7,0.4-1,0.7c-0.3,0.3-0.5,0.6-0.7,1s-0.2,0.8-0.2,1.2v15.4h-6.2V76.1c0-0.4-0.1-0.8-0.2-1.2
			c-0.2-0.4-0.4-0.7-0.7-1s-0.6-0.5-1-0.7s-0.8-0.2-1.2-0.2s-0.8,0.1-1.2,0.2c-0.4,0.2-0.7,0.4-1,0.7c-0.3,0.3-0.5,0.6-0.7,1
			s-0.2,0.8-0.2,1.2v15.4h-6.2V67.3h1.5l1.7,1.9c0.9-0.7,1.8-1.3,2.8-1.7c1-0.4,2.1-0.6,3.2-0.6c1.1,0,2.2,0.2,3.3,0.6
			s2,1.2,2.8,2.2c0.4-0.5,0.8-1,1.3-1.3c0.5-0.4,1-0.7,1.5-0.9c0.5-0.2,1.1-0.4,1.7-0.5c0.6-0.1,1.1-0.1,1.7-0.1
			c1.3,0,2.5,0.2,3.6,0.7s2.1,1.1,2.9,2c0.8,0.8,1.5,1.8,2,3c0.5,1.1,0.7,2.3,0.7,3.6v15.4H218.4z"/>
		<path class="st0" d="M246.5,91.6H245l-2.4-3.3c-0.6,0.5-1.2,1-1.9,1.5s-1.4,0.9-2.1,1.2c-0.7,0.3-1.5,0.6-2.2,0.8
			c-0.8,0.2-1.5,0.3-2.3,0.3c-1.7,0-3.3-0.3-4.8-0.9s-2.8-1.4-3.9-2.5c-1.1-1.1-2-2.4-2.7-4s-1-3.4-1-5.4c0-1.9,0.3-3.6,1-5.2
			s1.5-2.9,2.7-4.1c1.1-1.1,2.4-2,3.9-2.6s3.1-0.9,4.8-0.9c0.8,0,1.6,0.1,2.3,0.3c0.8,0.2,1.5,0.5,2.2,0.8s1.4,0.8,2.1,1.2
			c0.7,0.5,1.3,1,1.8,1.5l2.4-2.9h1.5L246.5,91.6L246.5,91.6z M240.2,79.2c0-0.8-0.2-1.7-0.5-2.5s-0.8-1.5-1.3-2.1
			c-0.6-0.6-1.2-1.1-2-1.5c-0.7-0.4-1.5-0.6-2.4-0.6c-0.8,0-1.6,0.1-2.4,0.4c-0.7,0.3-1.4,0.7-2,1.3c-0.6,0.6-1,1.3-1.3,2.1
			c-0.3,0.8-0.5,1.8-0.5,2.8c0,1.1,0.2,2,0.5,2.8s0.8,1.5,1.3,2.1c0.6,0.6,1.2,1,2,1.3c0.7,0.3,1.5,0.4,2.4,0.4
			c0.8,0,1.6-0.2,2.4-0.6c0.7-0.4,1.4-0.9,2-1.5s1-1.3,1.3-2.1C240.1,80.9,240.2,80.1,240.2,79.2z"/>
		<path class="st0" d="M257.4,91.6h-6.2V67.3h1.5l2,2.4c1-0.9,2.1-1.6,3.4-2.1c1.3-0.5,2.6-0.7,4-0.7c1.5,0,2.9,0.3,4.2,0.9
			c1.3,0.6,2.5,1.3,3.4,2.3c1,1,1.8,2.1,2.3,3.5c0.6,1.3,0.9,2.7,0.9,4.2v13.9h-6.2v-14c0-0.6-0.1-1.2-0.4-1.8
			c-0.2-0.6-0.6-1.1-1-1.5s-0.9-0.8-1.5-1S262.6,73,262,73c-0.7,0-1.3,0.1-1.8,0.4c-0.6,0.2-1.1,0.6-1.5,1s-0.8,0.9-1,1.5
			s-0.4,1.2-0.4,1.8L257.4,91.6L257.4,91.6z"/>
		<path class="st0" d="M300.8,91.6h-1.5l-2.4-3.3c-0.6,0.5-1.2,1-1.9,1.5c-0.7,0.5-1.3,0.9-2.1,1.2c-0.7,0.3-1.5,0.6-2.2,0.8
			c-0.8,0.2-1.5,0.3-2.3,0.3c-1.7,0-3.3-0.3-4.8-1c-1.5-0.6-2.8-1.5-3.9-2.7c-1.1-1.1-2-2.5-2.7-4.1s-1-3.3-1-5.1
			c0-1.8,0.3-3.5,1-5.1s1.5-2.9,2.7-4.1c1.1-1.1,2.4-2,3.9-2.7c1.5-0.6,3.1-1,4.8-1c0.5,0,1.1,0,1.7,0.1s1.1,0.2,1.7,0.4
			c0.6,0.2,1.1,0.5,1.6,0.8s0.9,0.7,1.2,1.2V57.6h6.2L300.8,91.6L300.8,91.6z M294.6,79.2c0-0.8-0.2-1.7-0.5-2.5s-0.8-1.5-1.3-2.1
			c-0.6-0.6-1.2-1.1-2-1.5c-0.7-0.4-1.5-0.6-2.4-0.6c-0.8,0-1.6,0.2-2.4,0.5c-0.7,0.3-1.4,0.7-2,1.3c-0.6,0.6-1,1.3-1.3,2.1
			s-0.5,1.7-0.5,2.8c0,0.9,0.2,1.7,0.5,2.5s0.8,1.5,1.3,2.1c0.6,0.6,1.2,1.1,2,1.4c0.7,0.3,1.5,0.5,2.4,0.5c0.8,0,1.6-0.2,2.4-0.6
			c0.7-0.4,1.4-0.9,2-1.5s1-1.3,1.3-2.1C294.4,80.9,294.6,80.1,294.6,79.2z"/>
		<path class="st0" d="M329,79.2c0,1.8-0.3,3.5-1,5.1s-1.5,2.9-2.7,4.1c-1.1,1.1-2.4,2-3.9,2.7s-3.1,1-4.8,1c-1.7,0-3.3-0.3-4.8-1
			s-2.8-1.6-3.9-2.7s-2-2.5-2.7-4.1s-1-3.3-1-5.1c0-1.8,0.3-3.6,1-5.1c0.6-1.6,1.5-2.9,2.7-4.1c1.1-1.1,2.4-2,3.9-2.7
			c1.5-0.6,3.1-1,4.8-1c1.7,0,3.3,0.3,4.8,0.9s2.8,1.5,3.9,2.6s2,2.5,2.7,4.1S329,77.3,329,79.2z M322.8,79.2c0-1-0.2-1.9-0.5-2.7
			c-0.3-0.8-0.8-1.5-1.3-2.1c-0.6-0.6-1.2-1-2-1.3c-0.7-0.3-1.5-0.5-2.4-0.5c-0.8,0-1.6,0.2-2.4,0.5c-0.7,0.3-1.4,0.8-2,1.3
			c-0.6,0.6-1,1.3-1.3,2.1c-0.3,0.8-0.5,1.7-0.5,2.7c0,0.9,0.2,1.8,0.5,2.6c0.3,0.8,0.8,1.5,1.3,2.1c0.6,0.6,1.2,1.1,2,1.4
			c0.7,0.3,1.5,0.5,2.4,0.5c0.8,0,1.6-0.2,2.4-0.5c0.7-0.3,1.4-0.8,2-1.3c0.6-0.6,1-1.3,1.3-2.1C322.6,81.1,322.8,80.2,322.8,79.2z"
			/>
		<path class="st0" d="M372.1,88.2c-1.5,1.3-3.2,2.3-5.1,3s-3.8,1-5.8,1c-1.5,0-3-0.2-4.5-0.6c-1.4-0.4-2.8-1-4-1.7
			s-2.4-1.6-3.4-2.6s-1.9-2.2-2.6-3.4c-0.7-1.2-1.3-2.6-1.7-4c-0.4-1.4-0.6-2.9-0.6-4.5s0.2-3,0.6-4.5c0.4-1.4,1-2.8,1.7-4
			s1.6-2.4,2.6-3.4s2.2-1.9,3.4-2.6c1.2-0.7,2.6-1.3,4-1.7c1.4-0.4,2.9-0.6,4.5-0.6c2,0,4,0.3,5.8,1c1.9,0.7,3.6,1.7,5.1,3l-3.4,5.7
			c-1-1-2.1-1.8-3.4-2.4s-2.7-0.8-4.1-0.8s-2.8,0.3-4,0.8c-1.3,0.5-2.4,1.3-3.3,2.2c-0.9,0.9-1.7,2-2.2,3.3s-0.8,2.6-0.8,4
			s0.3,2.8,0.8,4s1.3,2.3,2.2,3.3c0.9,0.9,2,1.7,3.3,2.2s2.6,0.8,4,0.8s2.8-0.3,4.1-0.8c1.3-0.6,2.4-1.3,3.4-2.4L372.1,88.2z"/>
		<path class="st0" d="M398.7,79.2c0,1.8-0.3,3.5-1,5.1s-1.5,2.9-2.7,4.1c-1.1,1.1-2.4,2-3.9,2.7s-3.1,1-4.8,1c-1.7,0-3.3-0.3-4.8-1
			s-2.8-1.6-3.9-2.7s-2-2.5-2.7-4.1s-1-3.3-1-5.1c0-1.8,0.3-3.6,1-5.1c0.6-1.6,1.5-2.9,2.7-4.1c1.1-1.1,2.4-2,3.9-2.7
			c1.5-0.6,3.1-1,4.8-1c1.7,0,3.3,0.3,4.8,0.9s2.8,1.5,3.9,2.6s2,2.5,2.7,4.1C398.3,75.5,398.7,77.3,398.7,79.2z M392.4,79.2
			c0-1-0.2-1.9-0.5-2.7c-0.3-0.8-0.8-1.5-1.3-2.1c-0.6-0.6-1.2-1-2-1.3c-0.7-0.3-1.5-0.5-2.4-0.5c-0.8,0-1.6,0.2-2.4,0.5
			c-0.7,0.3-1.4,0.8-2,1.3c-0.6,0.6-1,1.3-1.3,2.1c-0.3,0.8-0.5,1.7-0.5,2.7c0,0.9,0.2,1.8,0.5,2.6c0.3,0.8,0.8,1.5,1.3,2.1
			c0.6,0.6,1.2,1.1,2,1.4c0.7,0.3,1.5,0.5,2.4,0.5c0.8,0,1.6-0.2,2.4-0.5c0.7-0.3,1.4-0.8,2-1.3c0.6-0.6,1-1.3,1.3-2.1
			C392.3,81.1,392.4,80.2,392.4,79.2z M386.2,64.5l-2.6-3.4l6.7-6.3l3.7,4.7L386.2,64.5z"/>
		<path class="st0" d="M425.6,91.6h-1.5l-2.4-3.3c-0.6,0.5-1.2,1-1.9,1.5c-0.7,0.5-1.3,0.9-2.1,1.2c-0.7,0.3-1.5,0.6-2.2,0.8
			c-0.8,0.2-1.5,0.3-2.3,0.3c-1.7,0-3.3-0.3-4.8-1c-1.5-0.6-2.8-1.5-3.9-2.7c-1.1-1.1-2-2.5-2.7-4.1s-1-3.3-1-5.1
			c0-1.8,0.3-3.5,1-5.1c0.6-1.6,1.5-2.9,2.7-4.1c1.1-1.1,2.4-2,3.9-2.7c1.5-0.6,3.1-1,4.8-1c0.5,0,1.1,0,1.7,0.1s1.1,0.2,1.7,0.4
			c0.6,0.2,1.1,0.5,1.6,0.8s0.9,0.7,1.2,1.2V57.6h6.2L425.6,91.6L425.6,91.6z M419.3,79.2c0-0.8-0.2-1.7-0.5-2.5s-0.8-1.5-1.3-2.1
			c-0.6-0.6-1.2-1.1-2-1.5c-0.7-0.4-1.5-0.6-2.4-0.6c-0.8,0-1.6,0.2-2.4,0.5c-0.7,0.3-1.4,0.7-2,1.3c-0.6,0.6-1,1.3-1.3,2.1
			s-0.5,1.7-0.5,2.8c0,0.9,0.2,1.7,0.5,2.5s0.8,1.5,1.3,2.1c0.6,0.6,1.2,1.1,2,1.4c0.7,0.3,1.5,0.5,2.4,0.5c0.8,0,1.6-0.2,2.4-0.6
			c0.7-0.4,1.4-0.9,2-1.5s1-1.3,1.3-2.1C419.2,80.9,419.3,80.1,419.3,79.2z"/>
		<path class="st0" d="M437.6,60.7c0,0.6-0.1,1.1-0.3,1.6c-0.2,0.5-0.5,0.9-0.9,1.3s-0.8,0.7-1.3,0.9c-0.5,0.2-1,0.3-1.6,0.3
			s-1.1-0.1-1.6-0.3c-0.5-0.2-0.9-0.5-1.3-0.9s-0.7-0.8-0.9-1.3c-0.2-0.5-0.3-1-0.3-1.6s0.1-1.1,0.3-1.6c0.2-0.5,0.5-0.9,0.9-1.3
			c0.4-0.4,0.8-0.7,1.3-0.9s1-0.3,1.6-0.3s1.1,0.1,1.6,0.3s0.9,0.5,1.3,0.9s0.7,0.8,0.9,1.3S437.6,60.1,437.6,60.7z M436.5,91.6
			h-6.2V67.3h6.2V91.6z"/>
		<path class="st0" d="M464.8,88.5c0,1.7-0.3,3.3-1,4.8s-1.5,2.8-2.7,3.9c-1.1,1.1-2.4,2-3.9,2.7c-1.5,0.6-3.1,1-4.8,1h-3.1v-6.2
			h3.1c1,0,1.8-0.1,2.5-0.4c0.7-0.2,1.3-0.6,1.7-1c0.5-0.4,0.8-0.9,1.1-1.5c0.3-0.6,0.5-1.1,0.7-1.8c-0.2,0.4-0.6,0.7-1,1
			c-0.5,0.3-1,0.5-1.5,0.6c-0.6,0.2-1.1,0.3-1.7,0.3c-0.6,0.1-1.2,0.1-1.7,0.1c-1.7,0-3.3-0.3-4.8-0.9s-2.8-1.4-3.9-2.5
			s-2-2.4-2.7-4s-1-3.4-1-5.4c0-1.8,0.3-3.5,1-5.1c0.6-1.6,1.5-2.9,2.7-4.1c1.1-1.1,2.4-2,3.9-2.7c1.5-0.6,3.1-1,4.8-1
			c0.8,0,1.6,0.1,2.3,0.3c0.8,0.2,1.5,0.5,2.2,0.8s1.4,0.8,2.1,1.2c0.7,0.5,1.3,1,1.8,1.5l2.4-2.9h1.5V88.5z M458.5,79.2
			c0-0.8-0.2-1.7-0.5-2.5s-0.8-1.5-1.3-2.1c-0.6-0.6-1.2-1.1-2-1.5c-0.7-0.4-1.5-0.6-2.4-0.6c-0.8,0-1.6,0.1-2.4,0.4
			c-0.7,0.3-1.4,0.7-2,1.3c-0.6,0.6-1,1.3-1.3,2.1c-0.3,0.8-0.5,1.8-0.5,2.8s0.2,1.9,0.5,2.7c0.3,0.8,0.8,1.5,1.3,2.1
			c0.6,0.6,1.2,1,2,1.3c0.7,0.3,1.5,0.5,2.4,0.5c0.8,0,1.6-0.2,2.4-0.6c0.7-0.4,1.4-0.9,2-1.5s1-1.3,1.3-2.1
			C458.4,80.9,458.5,80.1,458.5,79.2z"/>
		<path class="st0" d="M493,79.2c0,1.8-0.3,3.5-1,5.1s-1.5,2.9-2.7,4.1c-1.1,1.1-2.4,2-3.9,2.7s-3.1,1-4.8,1c-1.7,0-3.3-0.3-4.8-1
			s-2.8-1.6-3.9-2.7s-2-2.5-2.7-4.1s-1-3.3-1-5.1c0-1.8,0.3-3.6,1-5.1c0.6-1.6,1.5-2.9,2.7-4.1c1.1-1.1,2.4-2,3.9-2.7
			c1.5-0.6,3.1-1,4.8-1c1.7,0,3.3,0.3,4.8,0.9s2.8,1.5,3.9,2.6s2,2.5,2.7,4.1S493,77.3,493,79.2z M486.7,79.2c0-1-0.2-1.9-0.5-2.7
			c-0.3-0.8-0.8-1.5-1.3-2.1c-0.6-0.6-1.2-1-2-1.3c-0.7-0.3-1.5-0.5-2.4-0.5c-0.8,0-1.6,0.2-2.4,0.5c-0.7,0.3-1.4,0.8-2,1.3
			c-0.6,0.6-1,1.3-1.3,2.1c-0.3,0.8-0.5,1.7-0.5,2.7c0,0.9,0.2,1.8,0.5,2.6c0.3,0.8,0.8,1.5,1.3,2.1c0.6,0.6,1.2,1.1,2,1.4
			c0.7,0.3,1.5,0.5,2.4,0.5c0.8,0,1.6-0.2,2.4-0.5c0.7-0.3,1.4-0.8,2-1.3c0.6-0.6,1-1.3,1.3-2.1C486.6,81.1,486.7,80.2,486.7,79.2z"
			/>
	</g>
</g>
</svg>
