<?xml version="1.0" encoding="utf-8"?>
<!-- Generator: Adobe Illustrator 21.0.0, SVG Export Plug-In . SVG Version: 6.00 Build 0)  -->
<svg version="1.1" id="Layer_1" xmlns="http://www.w3.org/2000/svg" xmlns:xlink="http://www.w3.org/1999/xlink" x="0px" y="0px"
	 viewBox="0 0 512 512" style="enable-background:new 0 0 512 512;" xml:space="preserve">
<style type="text/css">
	.st0{fill:#0278AA;}
	.st1{fill:#0A547B;}
	.st2{fill:#06344C;}
	.st3{fill:#74E7E7;}
	.st4{fill:#FFFFFF;}
</style>
<path class="st0" d="M448,158.1l61,30.8c0,33.1-27.3,60-61,60c-2.8,0-61-60-61-60C388.4,190.4,448,158.1,448,158.1z"/>
<path class="st1" d="M343.1,333.1H168.9c-75,21.7-127.4,69.7-127.4,126.6h429C470.5,402.8,418.2,354.8,343.1,333.1z"/>
<rect x="217.3" y="198" class="st2" width="76.1" height="68"/>
<path class="st0" d="M65.2,159.1l-60,30.8c0,33.1,26.9,60,60,60c2.7,0,60-60,60-60C123.7,191.4,65.2,159.1,65.2,159.1z"/>
<path class="st2" d="M446.8,193.2c33.9,0,65.1-3.9,65.1-3.9s2.5-48.7-18.5-73.9C472.3,90,428.1,67.5,347.5,57.9l-35.8-3.2
	C294.5,53.6,276,53,256,53c-20.1,0-38.6,0.6-55.9,1.7L163.5,58c-80,9.6-123.9,32-145,57.4c-21,25.3-18.5,73.9-18.5,73.9
	s31.2,3.9,65.1,3.9s65.1-3.9,65.1-3.9v-65.3h251.5v65.3L446.8,193.2z"/>
<circle class="st3" cx="256" cy="333.3" r="87.1"/>
<g>
	<circle class="st4" cx="256" cy="290.1" r="8.5"/>
	<circle class="st4" cx="218.6" cy="311.7" r="8.5"/>
	<circle class="st4" cx="218.6" cy="354.9" r="8.5"/>
	<circle class="st4" cx="256" cy="376.5" r="8.5"/>
	<circle class="st4" cx="293.4" cy="354.9" r="8.5"/>
	<circle class="st4" cx="293.4" cy="311.7" r="8.5"/>
</g>
<path class="st2" d="M481.9,468.2H30.1c-4.7,0-8.5-3.8-8.5-8.5c0-4.7,3.8-8.5,8.5-8.5h451.8c4.7,0,8.5,3.8,8.5,8.5
	C490.4,464.4,486.6,468.2,481.9,468.2z"/>
<path class="st0" d="M341.3,43.8h-23.4c-3.4,0-6.2,2.8-6.2,6.2v107.8H200.3V50c0-3.4-2.8-6.2-6.2-6.2h-23.4c-3.4,0-6.2,2.8-6.2,6.2
	v124.7c0,19.2,15.5,34.7,34.7,34.7h113.7c19.2,0,34.7-15.5,34.7-34.7V50C347.5,46.6,344.8,43.8,341.3,43.8z"/>
</svg>
